<?xml version="1.0" encoding="UTF-8" standalone="no"?>
<!-- Created with Inkscape (http://www.inkscape.org/) -->

<svg
   xmlns:dc="http://purl.org/dc/elements/1.1/"
   xmlns:cc="http://creativecommons.org/ns#"
   xmlns:rdf="http://www.w3.org/1999/02/22-rdf-syntax-ns#"
   xmlns:svg="http://www.w3.org/2000/svg"
   xmlns="http://www.w3.org/2000/svg"
   xmlns:sodipodi="http://sodipodi.sourceforge.net/DTD/sodipodi-0.dtd"
   xmlns:inkscape="http://www.inkscape.org/namespaces/inkscape"
   width="175.11501"
   height="175.11626"
   id="svg3351"
   version="1.1"
   inkscape:version="0.48.4 r9939"
   sodipodi:docname="New document 3">
  <defs
     id="defs3353" />
  <sodipodi:namedview
     id="base"
     pagecolor="#ffffff"
     bordercolor="#666666"
     borderopacity="1.0"
     inkscape:pageopacity="0.0"
     inkscape:pageshadow="2"
     inkscape:zoom="0.7"
     inkscape:cx="64.096827"
     inkscape:cy="155.23527"
     inkscape:document-units="px"
     inkscape:current-layer="layer1"
     showgrid="false"
     fit-margin-top="0"
     fit-margin-left="0"
     fit-margin-right="0"
     fit-margin-bottom="0"
     inkscape:window-width="467"
     inkscape:window-height="372"
     inkscape:window-x="2583"
     inkscape:window-y="287"
     inkscape:window-maximized="0" />
  <metadata
     id="metadata3356">
    <rdf:RDF>
      <cc:Work
         rdf:about="">
        <dc:format>image/svg+xml</dc:format>
        <dc:type
           rdf:resource="http://purl.org/dc/dcmitype/StillImage" />
        <dc:title></dc:title>
      </cc:Work>
    </rdf:RDF>
  </metadata>
  <g
     inkscape:label="Layer 1"
     inkscape:groupmode="layer"
     id="layer1"
     transform="translate(-461.01393,-516.23265)">
    <g
       transform="matrix(1.25,0,0,-1.25,266.01393,1066.3839)"
       id="g3316">
      <path
         d="m 296.092,370.075 c 0,-38.685 -31.361,-70.047 -70.046,-70.047 -38.685,0 -70.046,31.362 -70.046,70.047 0,38.685 31.361,70.046 70.046,70.046 38.685,0 70.046,-31.361 70.046,-70.046"
         style="fill:#2eaeb7;fill-opacity:1;fill-rule:nonzero;stroke:none"
         id="path18"
         inkscape:connector-curvature="0" />
      <path
         d="m 296.092,370.075 c 0,-38.685 -31.361,-70.047 -70.046,-70.047 -38.685,0 -70.046,31.362 -70.046,70.047 0,38.685 31.361,70.046 70.046,70.046 38.685,0 70.046,-31.361 70.046,-70.046"
         style="fill:#2eaeb7;fill-opacity:1;fill-rule:nonzero;stroke:none"
         id="path20"
         inkscape:connector-curvature="0" />
      <path
         d="m 194.454,343.109 42.272,-42.271 c 30.038,4.595 53.789,28.274 58.505,58.272 l -40.133,40.283 -60.644,-56.284"
         style="fill:#268f96;fill-opacity:1;fill-rule:nonzero;stroke:none"
         id="path22"
         inkscape:connector-curvature="0" />
      <path
         d="m 267.592,370.075 c 0,-22.945 -18.6,-41.547 -41.546,-41.547 -22.945,0 -41.546,18.602 -41.546,41.547 0,22.945 18.601,41.546 41.546,41.546 22.946,0 41.546,-18.601 41.546,-41.546"
         style="fill:#103754;fill-opacity:1;fill-rule:nonzero;stroke:none"
         id="path102"
         inkscape:connector-curvature="0" />
      <path
         d="m 263.094,370.075 c 0,-20.462 -16.586,-37.05 -37.048,-37.05 -20.462,0 -37.049,16.588 -37.049,37.05 0,20.461 16.587,37.049 37.049,37.049 20.462,0 37.048,-16.588 37.048,-37.049"
         style="fill:#ffffff;fill-opacity:1;fill-rule:nonzero;stroke:none"
         id="path104"
         inkscape:connector-curvature="0" />
      <path
         d="m 209.849,342.021 21.955,24.729 -11.517,6.649 -10.438,-31.378"
         style="fill:#2eaeb7;fill-opacity:1;fill-rule:nonzero;stroke:none"
         id="path106"
         inkscape:connector-curvature="0" />
      <path
         d="m 220.287,373.399 11.517,-6.649 10.436,31.377 -21.953,-24.728"
         style="fill:#d8472a;fill-opacity:1;fill-rule:nonzero;stroke:none"
         id="path108"
         inkscape:connector-curvature="0" />
      <path
         d="m 226.046,398.48 -5.855,11.343 11.709,0 -5.854,-11.343"
         style="fill:#103754;fill-opacity:1;fill-rule:nonzero;stroke:none"
         id="path110"
         inkscape:connector-curvature="0" />
      <path
         d="m 226.046,341.669 5.854,-11.343 -11.709,0 5.855,11.343"
         style="fill:#103754;fill-opacity:1;fill-rule:nonzero;stroke:none"
         id="path112"
         inkscape:connector-curvature="0" />
      <path
         d="m 254.449,370.076 11.346,5.854 0,-11.709 -11.346,5.855"
         style="fill:#103754;fill-opacity:1;fill-rule:nonzero;stroke:none"
         id="path114"
         inkscape:connector-curvature="0" />
      <path
         d="m 197.64,370.073 -11.345,-5.854 0,11.71 11.345,-5.856"
         style="fill:#103754;fill-opacity:1;fill-rule:nonzero;stroke:none"
         id="path116"
         inkscape:connector-curvature="0" />
    </g>
  </g>
</svg>
