<?xml version="1.0" encoding="UTF-8" standalone="no"?>
<!-- Created with Inkscape (http://www.inkscape.org/) -->

<svg
   xmlns:dc="http://purl.org/dc/elements/1.1/"
   xmlns:cc="http://creativecommons.org/ns#"
   xmlns:rdf="http://www.w3.org/1999/02/22-rdf-syntax-ns#"
   xmlns:svg="http://www.w3.org/2000/svg"
   xmlns="http://www.w3.org/2000/svg"
   xmlns:sodipodi="http://sodipodi.sourceforge.net/DTD/sodipodi-0.dtd"
   xmlns:inkscape="http://www.inkscape.org/namespaces/inkscape"
   id="svg2"
   version="1.1"
   inkscape:version="0.48.4 r9939"
   width="1754.9989"
   height="849.95264"
   xml:space="preserve"
   sodipodi:docname="devices.svg"><metadata
     id="metadata8"><rdf:RDF><cc:Work
         rdf:about=""><dc:format>image/svg+xml</dc:format><dc:type
           rdf:resource="http://purl.org/dc/dcmitype/StillImage" /><dc:title /></cc:Work></rdf:RDF></metadata><defs
     id="defs6"><clipPath
       clipPathUnits="userSpaceOnUse"
       id="clipPath244"><path
         d="m 4435.12,5568.94 0,0 409.52,288.29 -47.22,27.83 100.81,0 60.86,-29.03 -48.94,-34.55 -65.51,35.75 -409.52,-288.29"
         id="path246"
         inkscape:connector-curvature="0" /></clipPath></defs><sodipodi:namedview
     pagecolor="#ffffff"
     bordercolor="#666666"
     borderopacity="1"
     objecttolerance="10"
     gridtolerance="10"
     guidetolerance="10"
     inkscape:pageopacity="0"
     inkscape:pageshadow="2"
     inkscape:window-width="1920"
     inkscape:window-height="1056"
     id="namedview4"
     showgrid="false"
     showguides="true"
     inkscape:guide-bbox="true"
     inkscape:zoom="0.29509044"
     inkscape:cx="1234.5798"
     inkscape:cy="-200.5367"
     inkscape:window-x="1920"
     inkscape:window-y="24"
     inkscape:window-maximized="1"
     inkscape:current-layer="g10"
     fit-margin-top="0"
     fit-margin-left="0"
     fit-margin-right="0"
     fit-margin-bottom="0" /><g
     id="g10"
     inkscape:groupmode="layer"
     inkscape:label="ink_ext_XXXXXX"
     transform="matrix(1.25,0,0,-1.25,-89.999389,939.95205)"><path
       inkscape:connector-curvature="0"
       id="path16"
       style="fill:#4b4452;fill-opacity:1;fill-rule:nonzero;stroke:none"
       d="m 71.999511,71.999511 1403.999089,0 0,17.999983 -1403.999089,0 0,-17.999983 z" /><path
       inkscape:connector-curvature="0"
       id="path18"
       style="fill:#595063;fill-opacity:1;fill-rule:nonzero;stroke:none"
       d="m 188.99972,89.999494 116.99957,0 0,17.999986 -116.99957,0 0,-17.999986 z" /><path
       inkscape:connector-curvature="0"
       id="path20"
       style="fill:#60596b;fill-opacity:1;fill-rule:nonzero;stroke:none"
       d="m 305.99824,89.999494 116.99957,0 0,17.999986 -116.99957,0 0,-17.999986 z" /><path
       inkscape:connector-curvature="0"
       id="path22"
       style="fill:#595063;fill-opacity:1;fill-rule:nonzero;stroke:none"
       d="m 422.99781,89.999494 116.99958,0 0,17.999986 -116.99958,0 0,-17.999986 z" /><path
       inkscape:connector-curvature="0"
       id="path24"
       style="fill:#60596b;fill-opacity:1;fill-rule:nonzero;stroke:none"
       d="m 539.99739,89.999494 116.99957,0 0,17.999986 -116.99957,0 0,-17.999986 z" /><path
       inkscape:connector-curvature="0"
       id="path26"
       style="fill:#595063;fill-opacity:1;fill-rule:nonzero;stroke:none"
       d="m 656.99696,89.999494 116.99957,0 0,17.999986 -116.99957,0 0,-17.999986 z" /><path
       inkscape:connector-curvature="0"
       id="path28"
       style="fill:#60596b;fill-opacity:1;fill-rule:nonzero;stroke:none"
       d="m 773.99653,89.999494 116.99958,0 0,17.999986 -116.99957,0 0,-17.999986 z" /><path
       inkscape:connector-curvature="0"
       id="path30"
       style="fill:#595063;fill-opacity:1;fill-rule:nonzero;stroke:none"
       d="m 890.99611,89.999494 116.99959,0 0,17.999986 -116.99959,0 0,-17.999986 z" /><path
       inkscape:connector-curvature="0"
       id="path32"
       style="fill:#60596b;fill-opacity:1;fill-rule:nonzero;stroke:none"
       d="m 1007.9957,89.999494 116.9996,0 0,17.999986 -116.9996,0 0,-17.999986 z" /><path
       inkscape:connector-curvature="0"
       id="path34"
       style="fill:#595063;fill-opacity:1;fill-rule:nonzero;stroke:none"
       d="m 1124.991,89.999494 116.9996,0 0,17.999986 -116.9996,0 0,-17.999986 z" /><path
       inkscape:connector-curvature="0"
       id="path36"
       style="fill:#60596b;fill-opacity:1;fill-rule:nonzero;stroke:none"
       d="m 1241.9927,89.999494 116.9996,0 0,17.999986 -116.9996,0 0,-17.999986 z" /><path
       inkscape:connector-curvature="0"
       id="path38"
       style="fill:#60596b;fill-opacity:1;fill-rule:nonzero;stroke:none"
       d="m 71.999511,89.999494 116.999579,0 0,17.999986 -116.999579,0 0,-17.999986 z" /><path
       inkscape:connector-curvature="0"
       id="path40"
       style="fill:#595063;fill-opacity:1;fill-rule:nonzero;stroke:none"
       d="m 1358.9944,89.999494 116.9996,0 0,17.999986 -116.9996,0 0,-17.999986 z" /><path
       inkscape:connector-curvature="0"
       id="path42"
       style="fill:#929faf;fill-opacity:1;fill-rule:nonzero;stroke:none"
       d="m 1079.9969,249.9993 c 0,-13.80742 -11.1958,-25.00004 -25.0022,-25.00004 l -561.99637,0 c -13.80742,0 -25.00003,11.19262 -25.00003,25.00004 l 0,345.99808 c 0,13.80637 11.19261,25.00004 25.00003,25.00004 l 561.99637,0 c 13.8064,0 25.0022,-11.19367 25.0022,-25.00004 l 0,-345.99808" /><path
       inkscape:connector-curvature="0"
       id="path44"
       style="fill:#f1efe1;fill-opacity:1;fill-rule:nonzero;stroke:none"
       d="m 503.99784,260.99881 539.99846,0 0,323.99801 -539.99846,0 0,-323.99801 z" /><path
       inkscape:connector-curvature="0"
       id="path46"
       style="fill:#768493;fill-opacity:1;fill-rule:nonzero;stroke:none"
       d="m 836.99679,224.99926 -126.00051,0 -8.99883,-98.9998 143.99817,0 -8.99883,98.9998" /><path
       inkscape:connector-curvature="0"
       id="path48"
       style="fill:#929faf;fill-opacity:1;fill-rule:nonzero;stroke:none"
       d="m 674.99673,107.99969 197.99961,0 0,17.99998 -197.99961,0 0,-17.99998 z" /><path
       inkscape:connector-curvature="0"
       id="path50"
       style="fill:#768493;fill-opacity:1;fill-rule:nonzero;stroke:none"
       d="m 782.99642,242.99903 c 0,-4.97109 -4.02879,-8.99988 -8.99989,-8.99988 -4.97109,0 -8.99988,4.02879 -8.99988,8.99988 0,4.9711 4.02879,8.99989 8.99988,8.99989 4.9711,0 8.99989,-4.02879 8.99989,-8.99989" /><path
       inkscape:connector-curvature="0"
       id="path52"
       style="fill:#9cdac4;fill-opacity:1;fill-rule:nonzero;stroke:none"
       d="m 611.99753,269.99869 27.00019,0 0,26.99977 -27.00019,0 0,-26.99977 z" /><path
       inkscape:connector-curvature="0"
       id="path54"
       style="fill:#ec8864;fill-opacity:1;fill-rule:nonzero;stroke:none"
       d="m 647.99707,269.99869 26.99977,0 0,26.99977 -26.99977,0 0,-26.99977 z" /><path
       inkscape:connector-curvature="0"
       id="path56"
       style="fill:#f8c92a;fill-opacity:1;fill-rule:nonzero;stroke:none"
       d="m 683.99662,269.99869 26.99976,0 0,26.99977 -26.99976,0 0,-26.99977 z" /><path
       inkscape:connector-curvature="0"
       id="path58"
       style="fill:#62c6db;fill-opacity:1;fill-rule:nonzero;stroke:none"
       d="m 719.99616,269.99869 27.00019,0 0,26.99977 -27.00019,0 0,-26.99977 z" /><path
       inkscape:connector-curvature="0"
       id="path60"
       style="fill:#7e8c9b;fill-opacity:1;fill-rule:nonzero;stroke:none"
       d="m 755.99676,269.99869 26.99977,0 0,26.99977 -26.99977,0 0,-26.99977 z" /><path
       inkscape:connector-curvature="0"
       id="path62"
       style="fill:#e34151;fill-opacity:1;fill-rule:nonzero;stroke:none"
       d="m 791.99631,269.99869 26.99976,0 0,26.99977 -26.99976,0 0,-26.99977 z" /><path
       inkscape:connector-curvature="0"
       id="path64"
       style="fill:#f36b4a;fill-opacity:1;fill-rule:nonzero;stroke:none"
       d="m 827.99585,269.99869 27.00019,0 0,26.99977 -27.00019,0 0,-26.99977 z" /><path
       inkscape:connector-curvature="0"
       id="path66"
       style="fill:#9cdac4;fill-opacity:1;fill-rule:nonzero;stroke:none"
       d="m 863.99645,269.99869 26.99976,0 0,26.99977 -26.99976,0 0,-26.99977 z" /><path
       inkscape:connector-curvature="0"
       id="path68"
       style="fill:#f8c92a;fill-opacity:1;fill-rule:nonzero;stroke:none"
       d="m 899.996,269.99869 26.99976,0 0,26.99977 -26.99976,0 0,-26.99977 z" /><path
       inkscape:connector-curvature="0"
       id="path70"
       style="fill:#7e8c9b;fill-opacity:1;fill-rule:nonzero;stroke:none"
       d="m 512.99773,305.99824 17.99998,0 0,125.99946 -17.99998,0 0,-125.99946 z" /><path
       inkscape:connector-curvature="0"
       id="path72"
       style="fill:#7e8c9b;fill-opacity:1;fill-rule:nonzero;stroke:none"
       d="m 539.99739,377.99838 17.99998,0 0,53.99953 -17.99998,0 0,-53.99953 z" /><path
       inkscape:connector-curvature="0"
       id="path74"
       style="fill:#7e8c9b;fill-opacity:1;fill-rule:nonzero;stroke:none"
       d="m 566.99704,305.99824 17.99999,0 0,125.99946 -17.99999,0 0,-125.99946 z" /><path
       inkscape:connector-curvature="0"
       id="path76"
       style="fill:#7e8c9b;fill-opacity:1;fill-rule:nonzero;stroke:none"
       d="m 593.99776,305.99824 17.99956,0 0,17.99998 -17.99956,0 0,-17.99998 z" /><path
       inkscape:connector-curvature="0"
       id="path78"
       style="fill:#7e8c9b;fill-opacity:1;fill-rule:nonzero;stroke:none"
       d="m 620.99742,305.99824 17.99998,0 0,71.99993 -17.99998,0 0,-71.99993 z" /><path
       inkscape:connector-curvature="0"
       id="path80"
       style="fill:#7e8c9b;fill-opacity:1;fill-rule:nonzero;stroke:none"
       d="m 647.99707,305.99824 17.99999,0 0,35.99996 -17.99999,0 0,-35.99996 z" /><path
       inkscape:connector-curvature="0"
       id="path82"
       style="fill:#7e8c9b;fill-opacity:1;fill-rule:nonzero;stroke:none"
       d="m 647.99707,350.99872 17.99999,0 0,80.99972 -17.99999,0 0,-80.99972 z" /><path
       inkscape:connector-curvature="0"
       id="path84"
       style="fill:#7e8c9b;fill-opacity:1;fill-rule:nonzero;stroke:none"
       d="m 620.99742,386.99827 17.99998,0 0,44.99974 -17.99998,0 0,-44.99974 z" /><path
       inkscape:connector-curvature="0"
       id="path86"
       style="fill:#7e8c9b;fill-opacity:1;fill-rule:nonzero;stroke:none"
       d="m 593.99776,331.99861 17.99956,0 0,63.99975 -17.99956,0 0,-63.99975 z" /><path
       inkscape:connector-curvature="0"
       id="path88"
       style="fill:#7e8c9b;fill-opacity:1;fill-rule:nonzero;stroke:none"
       d="m 593.99776,403.99876 17.99956,0 0,27.99978 -17.99956,0 0,-27.99978 z" /><path
       inkscape:connector-curvature="0"
       id="path90"
       style="fill:#7e8c9b;fill-opacity:1;fill-rule:nonzero;stroke:none"
       d="m 539.99739,305.99824 17.99998,0 0,62.99973 -17.99998,0 0,-62.99973 z" /><path
       inkscape:connector-curvature="0"
       id="path92"
       style="fill:#62c6db;fill-opacity:1;fill-rule:nonzero;stroke:none"
       d="m 512.99773,440.99864 152.99912,0 0,134.99935 -152.99912,0 0,-134.99935 z" /><path
       inkscape:connector-curvature="0"
       id="path94"
       style="fill:#f8c92a;fill-opacity:1;fill-rule:nonzero;stroke:none"
       d="m 674.99673,305.99824 152.99912,0 0,125.99946 -152.99912,0 0,-125.99946 z" /><path
       inkscape:connector-curvature="0"
       id="path96"
       style="fill:#ec8864;fill-opacity:1;fill-rule:nonzero;stroke:none"
       d="m 674.99673,512.99773 152.99912,0 0,62.99973 -152.99912,0 0,-62.99973 z" /><path
       inkscape:connector-curvature="0"
       id="path98"
       style="fill:#e34151;fill-opacity:1;fill-rule:nonzero;stroke:none"
       d="m 836.99679,377.99838 98.9997,0 0,197.99855 -98.9997,0 0,-197.99855 z" /><path
       inkscape:connector-curvature="0"
       id="path100"
       style="fill:#f8c92a;fill-opacity:1;fill-rule:nonzero;stroke:none"
       d="m 944.99543,377.99838 89.99947,0 0,125.99946 -89.99947,0 0,-125.99946 z" /><path
       inkscape:connector-curvature="0"
       id="path102"
       style="fill:#7e8c9b;fill-opacity:1;fill-rule:nonzero;stroke:none"
       d="m 944.99543,512.99773 89.99947,0 0,62.99973 -89.99947,0 0,-62.99973 z" /><path
       inkscape:connector-curvature="0"
       id="path104"
       style="fill:#ec8864;fill-opacity:1;fill-rule:nonzero;stroke:none"
       d="m 836.99679,305.99824 197.99851,0 0,62.99973 -197.99851,0 0,-62.99973 z" /><path
       inkscape:connector-curvature="0"
       id="path106"
       style="fill:#9cdac4;fill-opacity:1;fill-rule:nonzero;stroke:none"
       d="m 674.99673,440.99864 152.99912,0 0,62.99931 -152.99912,0 0,-62.99931 z" /><path
       inkscape:connector-curvature="0"
       id="path108"
       style="fill:#78d2e0;fill-opacity:1;fill-rule:nonzero;stroke:none"
       d="m 656.99696,548.99727 -19.21537,0 -32.98798,17.99977 52.20335,0 0,-17.99977" /><path
       inkscape:connector-curvature="0"
       id="path110"
       style="fill:#78d2e0;fill-opacity:1;fill-rule:nonzero;stroke:none"
       d="m 656.99696,538.51271 -2.72139,1.48468 2.72139,0 0,-1.48468" /><path
       inkscape:connector-curvature="0"
       id="path112"
       style="fill:#ecb40e;fill-opacity:1;fill-rule:nonzero;stroke:none"
       d="m 683.99662,377.99838 62.99973,0 0,44.99975 -62.99973,0 0,-44.99975 z" /><path
       inkscape:connector-curvature="0"
       id="path114"
       style="fill:#ecb40e;fill-opacity:1;fill-rule:nonzero;stroke:none"
       d="m 683.99662,314.99918 134.99935,0 0,53.99953 -134.99935,0 0,-53.99953 z" /><path
       inkscape:connector-curvature="0"
       id="path116"
       style="fill:#ecb40e;fill-opacity:1;fill-rule:nonzero;stroke:none"
       d="m 755.99676,377.99838 62.99973,0 0,44.99975 -62.99973,0 0,-44.99975 z" /><path
       inkscape:connector-curvature="0"
       id="path118"
       style="fill:#f25970;fill-opacity:1;fill-rule:nonzero;stroke:none"
       d="m 845.99562,467.9983 80.99972,0 0,26.99976 -80.99972,0 0,-26.99976 z" /><path
       inkscape:connector-curvature="0"
       id="path120"
       style="fill:#f25970;fill-opacity:1;fill-rule:nonzero;stroke:none"
       d="m 845.99562,386.99827 80.99972,0 0,71.99951 -80.99972,0 0,-71.99951 z" /><path
       inkscape:connector-curvature="0"
       id="path122"
       style="fill:#f25970;fill-opacity:1;fill-rule:nonzero;stroke:none"
       d="m 845.99562,503.99784 80.99972,0 0,27.00019 -80.99972,0 0,-27.00019 z" /><path
       inkscape:connector-curvature="0"
       id="path124"
       style="fill:#f25970;fill-opacity:1;fill-rule:nonzero;stroke:none"
       d="m 845.99562,539.99739 80.99972,0 0,26.99976 -80.99972,0 0,-26.99976 z" /><path
       inkscape:connector-curvature="0"
       id="path126"
       style="fill:#ec8864;fill-opacity:1;fill-rule:nonzero;stroke:none"
       d="m 1394.9982,119.87397 c 0,-6.55708 -2.3215,-11.87428 -8.8849,-11.87428 l -99.3691,0 c -6.5634,0 -8.7477,5.3172 -8.7477,11.87428 l 0,141.12484 117.0017,0 0,-141.12484" /><path
       inkscape:connector-curvature="0"
       id="path128"
       style="fill:#ec8864;fill-opacity:1;fill-rule:nonzero;stroke:none"
       d="m 1277.9965,145.09771 c -20.9987,1.07948 -28.7017,18.3195 -28.7017,39.43003 0,21.10842 7.703,38.34633 28.7017,39.42792 l 0,12.47786 c -28.0053,-1.09003 -49.8798,-23.91001 -49.8798,-51.90578 0,-27.99894 21.8745,-50.81786 49.8798,-51.90895 l 0,12.47892" /><path
       inkscape:connector-curvature="0"
       id="path130"
       style="fill:#c67254;fill-opacity:1;fill-rule:nonzero;stroke:none"
       d="m 1394.9982,119.99954 c 0,-7.00027 -2.3215,-11.99985 -8.8849,-11.99985 l -99.3691,0 c -6.5634,0 -8.8743,4.99958 -8.8743,11.99985 l 117.1283,0" /><path
       inkscape:connector-curvature="0"
       id="path170"
       style="fill:#b1a98d;fill-opacity:1;fill-rule:nonzero;stroke:none"
       d="m 566.99704,332.99895 c 0,4.52263 -4.4762,8.99989 -9.99917,8.99989 l -114.99995,0 c -5.52297,0 -10.00022,-4.47726 -10.00022,-8.99989 l 0,-213.99975 c 0,-6.5212 4.47725,-10.99951 10.00022,-10.99951 l 114.99995,0 c 5.52297,0 9.99917,4.47831 9.99917,10.99951 l 0,213.99975" /><path
       inkscape:connector-curvature="0"
       id="path172"
       style="fill:#f9f3e0;fill-opacity:1;fill-rule:nonzero;stroke:none"
       d="m 440.99864,143.99923 116.99957,0 0,170.99889 -116.99957,0 0,-170.99889 z" /><path
       inkscape:connector-curvature="0"
       id="path174"
       style="fill:#8f8873;fill-opacity:1;fill-rule:nonzero;stroke:none"
       d="m 508.99743,125.46763 c 0,-4.97109 -4.02879,-8.99988 -8.99989,-8.99988 -4.97109,0 -8.99989,4.02879 -8.99989,8.99988 0,4.9711 4.0288,8.99989 8.99989,8.99989 4.9711,0 8.99989,-4.02879 8.99989,-8.99989" /><path
       inkscape:connector-curvature="0"
       id="path176"
       style="fill:#8f8873;fill-opacity:1;fill-rule:nonzero;stroke:none"
       d="m 472.99788,325.99869 53.99995,0 0,4.99988 -53.99995,0 0,-4.99988 z" /><path
       inkscape:connector-curvature="0"
       id="path178"
       style="fill:#ec8864;fill-opacity:1;fill-rule:nonzero;stroke:none"
       d="m 449.99853,152.99912 17.99998,0 0,17.99998 -17.99998,0 0,-17.99998 z" /><path
       inkscape:connector-curvature="0"
       id="path180"
       style="fill:#f8c92a;fill-opacity:1;fill-rule:nonzero;stroke:none"
       d="m 476.99818,152.99912 17.99999,0 0,17.99998 -17.99999,0 0,-17.99998 z" /><path
       inkscape:connector-curvature="0"
       id="path182"
       style="fill:#e34151;fill-opacity:1;fill-rule:nonzero;stroke:none"
       d="m 503.99784,152.99912 17.99999,0 0,17.99998 -17.99999,0 0,-17.99998 z" /><path
       inkscape:connector-curvature="0"
       id="path184"
       style="fill:#9cdac4;fill-opacity:1;fill-rule:nonzero;stroke:none"
       d="m 530.9975,152.99912 17.99998,0 0,17.99998 -17.99998,0 0,-17.99998 z" /><path
       inkscape:connector-curvature="0"
       id="path186"
       style="fill:#959888;fill-opacity:1;fill-rule:nonzero;stroke:none"
       d="m 449.99853,179.99878 98.99969,0 0,27.00018 -98.99969,0 0,-27.00018 z" /><path
       inkscape:connector-curvature="0"
       id="path188"
       style="fill:#e34151;fill-opacity:1;fill-rule:nonzero;stroke:none"
       d="m 449.99853,278.99858 98.99969,0 0,26.99976 -98.99969,0 0,-26.99976 z" /><path
       inkscape:connector-curvature="0"
       id="path190"
       style="fill:#9cdac4;fill-opacity:1;fill-rule:nonzero;stroke:none"
       d="m 449.99853,215.99938 44.99974,0 0,53.99995 -44.99974,0 0,-53.99995 z" /><path
       inkscape:connector-curvature="0"
       id="path192"
       style="fill:#ec8864;fill-opacity:1;fill-rule:nonzero;stroke:none"
       d="m 503.99784,215.99938 45.00017,0 0,53.99995 -45.00017,0 0,-53.99995 z" /><path
       inkscape:connector-curvature="0"
       id="path194"
       style="fill:#8996a5;fill-opacity:1;fill-rule:nonzero;stroke:none"
       d="m 1043.9952,422.99781 35.9996,0 0,8.99979 -35.9996,0 0,-8.99979 z" /><path
       inkscape:connector-curvature="0"
       id="path196"
       style="fill:#d6d6cb;fill-opacity:1;fill-rule:nonzero;stroke:none"
       d="m 962.99625,371.54472 -9.00094,4.912 0,1.54166 9.00094,0 0,-6.45366 m 80.99895,51.45309 -8.9999,0 0,8.99989 8.9999,0 0,-8.99989" /><path
       inkscape:connector-curvature="0"
       id="path198"
       style="fill:#d9b737;fill-opacity:1;fill-rule:nonzero;stroke:none"
       d="m 962.99625,377.99838 -9.00094,0 0,38.99951 c 0,8.28445 6.71641,14.99981 14.99981,14.99981 l 66.00018,0 0,-8.99989 -57.00029,0 c -8.2834,0 -14.99876,-6.71535 -14.99876,-14.99981 l 0,-29.99962" /><path
       inkscape:connector-curvature="0"
       id="path200"
       style="fill:#767e7e;fill-opacity:1;fill-rule:nonzero;stroke:none"
       d="m 1187.9976,122.9995 c 0,-8.28446 -6.7217,-14.99981 -15.0051,-14.99981 l -194.99749,0 c -8.2834,0 -14.99876,6.71535 -14.99876,14.99981 l 0,284.9985 c 0,8.28446 6.71536,14.99981 14.99876,14.99981 l 194.99749,0 c 8.2834,0 15.0051,-6.71535 15.0051,-14.99981 l 0,-284.9985" /><path
       inkscape:connector-curvature="0"
       id="path202"
       style="fill:#f5f5f5;fill-opacity:1;fill-rule:nonzero;stroke:none"
       d="m 989.99591,134.99935 170.99889,0 0,260.9988 -170.99889,0 0,-260.9988 z" /><path
       inkscape:connector-curvature="0"
       id="path204"
       style="fill:#545b5c;fill-opacity:1;fill-rule:nonzero;stroke:none"
       d="m 1083.4474,121.50005 c 0,-4.3939 -3.5666,-7.95418 -7.9563,-7.95418 -4.3896,0 -7.9457,3.56028 -7.9457,7.95418 0,4.39178 3.5561,7.95206 7.9457,7.95206 4.3897,0 7.9563,-3.56028 7.9563,-7.95206" /><path
       inkscape:connector-curvature="0"
       id="path206"
       style="fill:#7a7b7c;fill-opacity:1;fill-rule:nonzero;stroke:none"
       d="m 998.9958,143.99923 45.0002,0 0,26.99977 -45.0002,0 0,-26.99977 z" /><path
       inkscape:connector-curvature="0"
       id="path208"
       style="fill:#7a7b7c;fill-opacity:1;fill-rule:nonzero;stroke:none"
       d="m 1079.9969,251.99892 71.9999,0 0,62.99973 -71.9999,0 0,-62.99973 z" /><path
       inkscape:connector-curvature="0"
       id="path210"
       style="fill:#f36b4a;fill-opacity:1;fill-rule:nonzero;stroke:none"
       d="m 1052.9951,143.99923 44.9998,0 0,26.99977 -44.9998,0 0,-26.99977 z" /><path
       inkscape:connector-curvature="0"
       id="path212"
       style="fill:#62c6db;fill-opacity:1;fill-rule:nonzero;stroke:none"
       d="m 1106.9997,143.99923 45.0002,0 0,26.99977 -45.0002,0 0,-26.99977 z" /><path
       inkscape:connector-curvature="0"
       id="path214"
       style="fill:#f8c92a;fill-opacity:1;fill-rule:nonzero;stroke:none"
       d="m 998.9958,179.99878 153.0002,0 0,62.99973 -153.0002,0 0,-62.99973 z" /><path
       inkscape:connector-curvature="0"
       id="path216"
       style="fill:#f36b4a;fill-opacity:1;fill-rule:nonzero;stroke:none"
       d="m 998.9958,251.99892 71.9999,0 0,62.99973 -71.9999,0 0,-62.99973 z" /><path
       inkscape:connector-curvature="0"
       id="path218"
       style="fill:#62c6db;fill-opacity:1;fill-rule:nonzero;stroke:none"
       d="m 998.9958,323.99801 45.0002,0 0,62.99973 -45.0002,0 0,-62.99973 z" /><path
       inkscape:connector-curvature="0"
       id="path220"
       style="fill:#f8c92a;fill-opacity:1;fill-rule:nonzero;stroke:none"
       d="m 1052.9951,323.99801 44.9998,0 0,62.99973 -44.9998,0 0,-62.99973 z" /><path
       inkscape:connector-curvature="0"
       id="path222"
       style="fill:#f36b4a;fill-opacity:1;fill-rule:nonzero;stroke:none"
       d="m 1106.9997,323.99801 45.0002,0 0,62.99973 -45.0002,0 0,-62.99973 z" /><path
       inkscape:connector-curvature="0"
       id="path224"
       style="fill:#9cdac4;fill-opacity:1;fill-rule:nonzero;stroke:none"
       d="M 252.96022,137.74922 147.58484,423.75123 318.13632,667.16391 345.32275,650.91367 181.90238,419.4312 283.326,146.75333 252.96022,137.74922" /><path
       inkscape:connector-curvature="0"
       id="path226"
       style="fill:#959888;fill-opacity:1;fill-rule:nonzero;stroke:none"
       d="m 201.98724,418.08686 c 0,-19.20271 -15.56751,-34.76916 -34.76917,-34.76916 -19.20165,0 -34.76811,15.56645 -34.76811,34.76916 0,19.20166 15.56646,34.76812 34.76811,34.76812 19.20166,0 34.76917,-15.56646 34.76917,-34.76812" /><path
       inkscape:connector-curvature="0"
       id="path228"
       style="fill:#9cdac4;fill-opacity:1;fill-rule:nonzero;stroke:none"
       d="m 182.18517,418.08686 c 0,-8.26651 -6.70058,-14.96815 -14.9671,-14.96815 -8.26546,0 -14.9671,6.70164 -14.9671,14.96815 0,8.26652 6.70164,14.9671 14.9671,14.9671 8.26652,0 14.9671,-6.70058 14.9671,-14.9671" /><path
       inkscape:connector-curvature="0"
       id="path230"
       style="fill:#959888;fill-opacity:1;fill-rule:nonzero;stroke:none"
       d="m 287.62914,163.06793 c 0,-19.20165 -15.56751,-34.76811 -34.76917,-34.76811 -19.20165,0 -34.76917,15.56646 -34.76917,34.76811 0,19.20271 15.56752,34.77023 34.76917,34.77023 19.20166,0 34.76917,-15.56752 34.76917,-34.77023" /><path
       inkscape:connector-curvature="0"
       id="path232"
       style="fill:#959888;fill-opacity:1;fill-rule:nonzero;stroke:none"
       d="m 366.4987,658.10599 c 0,-19.2006 -15.56751,-34.76812 -34.77022,-34.76812 -19.2006,0 -34.76812,15.56752 -34.76812,34.76812 0,19.20271 15.56752,34.77022 34.76812,34.77022 19.20271,0 34.77022,-15.56751 34.77022,-34.77022" /><path
       inkscape:connector-curvature="0"
       id="path234"
       style="fill:#9cdac4;fill-opacity:1;fill-rule:nonzero;stroke:none"
       d="m 252.85997,174.99497 c -49.18967,0 -89.32775,-32.00452 -91.57851,-57.9954 l 180.71738,0 c -2.25077,25.99088 -39.9492,57.9954 -89.13887,57.9954" /><path
       inkscape:connector-curvature="0"
       id="path236"
       style="fill:#80b7a6;fill-opacity:1;fill-rule:nonzero;stroke:none"
       d="m 299.14781,142.93453 c 0,-4.77483 -3.86945,-8.64639 -8.64533,-8.64639 -4.77377,0 -8.64428,3.87156 -8.64428,8.64639 0,4.77377 3.87051,8.64428 8.64428,8.64428 4.77588,0 8.64533,-3.87051 8.64533,-8.64428" /><path
       inkscape:connector-curvature="0"
       id="path238"
       style="fill:#80b7a6;fill-opacity:1;fill-rule:nonzero;stroke:none"
       d="m 160.99867,107.99969 180.99911,0 0,8.99979 -180.99911,0 0,-8.99979 z" /><g
       id="g240"
       transform="scale(0.105521,0.105521)"><g
         clip-path="url(#clipPath244)"
         id="g242"><path
           inkscape:connector-curvature="0"
           id="path248"
           style="fill:#8996a5;fill-opacity:1;fill-rule:nonzero;stroke:none"
           d="m 4435.12,5568.94 523.977,0 0,316.117 -523.977,0 0,-316.117 z" /></g></g><path
       inkscape:connector-curvature="0"
       id="path250"
       style="fill:#9cdac4;fill-opacity:1;fill-rule:nonzero;stroke:none"
       d="m 282.31194,702.72343 67.88588,49.23821 94.54154,-109.50125 -87.69745,-63.60912 -74.72997,123.87216" /><path
       inkscape:connector-curvature="0"
       id="path252"
       style="fill:#9cdac4;fill-opacity:1;fill-rule:nonzero;stroke:none"
       d="M 511.21126,618.06077 356.05107,508.83598 332.1991,632.37047 l 69.38217,50.32402 109.62999,-64.63372" /><path
       inkscape:connector-curvature="0"
       id="path254"
       style="fill:#80b7a6;fill-opacity:1;fill-rule:nonzero;stroke:none"
       d="m 344.48175,725.74284 -10.54577,14.58722 7.29466,5.27183 10.54366,-14.58722 -7.29255,-5.27183" /><path
       inkscape:connector-curvature="0"
       id="path256"
       style="fill:#80b7a6;fill-opacity:1;fill-rule:nonzero;stroke:none"
       d="m 329.89452,715.19707 -10.54577,14.58828 7.29362,5.27183 10.54471,-14.58617 -7.29256,-5.27394" /><path
       inkscape:connector-curvature="0"
       id="path258"
       style="fill:#80b7a6;fill-opacity:1;fill-rule:nonzero;stroke:none"
       d="m 315.30624,704.65235 -10.54471,14.58617 7.29256,5.27289 10.54577,-14.58723 -7.29362,-5.27183" /><path
       inkscape:connector-curvature="0"
       id="path260"
       style="fill:#80b7a6;fill-opacity:1;fill-rule:nonzero;stroke:none"
       d="m 300.71902,694.10553 -10.54577,14.58828 7.29361,5.27394 10.54577,-14.58722 -7.29361,-5.275" /><path
       inkscape:connector-curvature="0"
       id="path262"
       style="fill:#ebeed3;fill-opacity:1;fill-rule:nonzero;stroke:none"
       d="m 1445.9965,107.99969 -1045.99805,0 -43.94738,400.83629 111.94723,78.80414 0,-245.64128 -26.00038,0 c -5.52297,0 -10.00022,-4.47726 -10.00022,-8.99989 l 0,-213.99975 c 0,-6.5212 4.47725,-10.99951 10.00022,-10.99951 l 114.99995,0 c 5.52297,0 9.99917,4.47831 9.99917,10.99951 l 0,106.00006 395.99921,0 0,-101.99976 c 0,-8.28446 6.71536,-14.99981 14.99876,-14.99981 l 194.99749,0 c 8.2834,0 15.0051,6.71535 15.0051,14.99981 l 0,125.77681 53.5836,-29.24304 c -8.3889,-9.23414 -13.4645,-21.51889 -13.4645,-35.00553 0,-27.99894 21.8745,-50.81786 49.8798,-51.90895 l 0,-12.61925 -0.1266,0 c 0,-7.00027 2.3109,-11.99985 8.8743,-11.99985 l 99.3691,0 c 5.8037,0 8.2834,3.90533 8.7794,9.64673 0.074,0.72176 0.1055,1.46568 0.1055,2.22755 l 0,15.95372 50.9983,-27.828 m -770.99977,17.99977 0,-17.99977 197.99961,0 0,17.99977 -122.974,0 -75.02561,0 m 35.99955,98.9998 -8.99883,-98.9998 143.99817,0 -8.99883,98.9998 -126.00051,0 m 567.00022,-79.90155 c -20.9987,1.07948 -28.7017,18.3195 -28.7017,39.43003 0,10.56898 1.931,20.16928 6.5001,27.25502 l 22.2016,-12.11487 0,-54.57018"
       sodipodi:nodetypes="cccccssssssccssssccscccsscsccccccccccccccsccc" /><path
       inkscape:connector-curvature="0"
       id="path264"
       style="fill:#a1b0c1;fill-opacity:1;fill-rule:nonzero;stroke:none"
       d="m 953.99531,224.99926 -377.99732,0 0,35.99955 377.99732,0 0,-35.99955 m -179.99878,26.99966 c -4.97109,0 -8.99988,-4.02879 -8.99988,-8.99989 0,-4.97109 4.02879,-8.99988 8.99988,-8.99988 4.9711,0 8.99989,4.02879 8.99989,8.99988 0,4.9711 -4.02879,8.99989 -8.99989,8.99989 m -305.99823,89.99992 0,245.64128 0,-8.74347 50.12564,35.39174 53.68064,-29.29157 -67.80674,0 0,-233.9981 -35.99954,0 0,-8.99988" /><path
       inkscape:connector-curvature="0"
       id="path266"
       style="fill:#f5f3e9;fill-opacity:1;fill-rule:nonzero;stroke:none"
       d="m 953.99531,260.99881 -377.99732,0 0,44.99943 8.99883,0 0,125.99946 -17.99978,0 0,-81.04857 c -0.32817,0.0327 -0.66267,0.0496 -0.99928,0.0496 l -8.0006,0 0,17.99978 -17.99977,0 0,-17.99978 -8.99989,0 0,80.99898 -17.99977,0 0,-80.99898 -8.99989,0 0,233.9981 67.80674,0 16.49399,-8.99883 -75.30084,0 0,-134.99935 152.99912,0 0,92.60312 8.99988,-4.91095 0,-15.69308 28.76081,0 16.49398,-8.99989 -45.25479,0 0,-62.9992 152.99912,0 0,4.20818 9.00094,-4.9099 0,-62.29854 98.99875,0 0,8.28023 8.99989,-4.91094 0,-3.36929 6.17403,0 2.82585,-1.54166 0,-7.45822 -116.99852,0 0,-63.00026 116.99852,0 0,-44.99943 m -53.99931,35.99954 0,-26.99966 26.99965,0 0,26.99966 -26.99965,0 m -35.99955,0 0,-26.99966 26.99966,0 0,26.99966 -26.99966,0 m -36.0006,0 0,-26.99966 27.00072,0 0,26.99966 -27.00072,0 m -35.99954,0 0,-26.99966 26.99966,0 0,26.99966 -26.99966,0 m -35.99955,0 0,-26.99966 26.99966,0 0,26.99966 -26.99966,0 m -36.0006,0 0,-26.99966 27.00072,0 0,26.99966 -27.00072,0 m -35.99954,0 0,-26.99966 26.99966,0 0,26.99966 -26.99966,0 m -35.99955,0 0,-26.99966 26.99966,0 0,26.99966 -26.99966,0 m -35.99954,0 0,-26.99966 26.99966,0 0,26.99966 -26.99966,0 m 62.9992,134.99935 0,-125.99946 152.99912,0 0,125.99946 -152.99912,0 m -26.99966,-89.99886 0,-36.0006 17.99978,0 0,36.0006 -17.99978,0 m -26.99965,35.99954 0,-72.00014 17.99977,0 0,72.00014 -17.99977,0 m -26.99966,-54.00037 0,-17.99977 17.99977,0 0,17.99977 -17.99977,0 m 0,72.00014 0,-63.99954 17.99977,0 0,63.99954 -17.99977,0 m 53.99931,35.99955 0,-80.99898 17.99978,0 0,80.99898 -17.99978,0 m -107.99968,0 0,-53.99932 17.99977,0 0,53.99932 -17.99977,0 m 81.00003,0 0,-44.99943 17.99977,0 0,44.99943 -17.99977,0 m -26.99966,0 0,-27.99894 17.99977,0 0,27.99894 -17.99977,0" /><path
       inkscape:connector-curvature="0"
       id="path268"
       style="fill:#8899a8;fill-opacity:1;fill-rule:nonzero;stroke:none"
       d="m 845.99562,125.99946 -143.99817,0 8.99883,98.9998 126.00051,0 8.99883,-98.9998" /><path
       inkscape:connector-curvature="0"
       id="path270"
       style="fill:#a1b0c1;fill-opacity:1;fill-rule:nonzero;stroke:none"
       d="m 674.99673,107.99969 197.99961,0 0,17.99998 -197.99961,0 0,-17.99998 z" /><path
       inkscape:connector-curvature="0"
       id="path272"
       style="fill:#8899a8;fill-opacity:1;fill-rule:nonzero;stroke:none"
       d="m 773.99653,233.99915 c -4.97109,0 -8.99988,4.02879 -8.99988,8.99988 0,4.9711 4.02879,8.99989 8.99988,8.99989 4.9711,0 8.99989,-4.02879 8.99989,-8.99989 0,-4.97109 -4.02879,-8.99988 -8.99989,-8.99988" /><path
       inkscape:connector-curvature="0"
       id="path274"
       style="fill:#aae1d1;fill-opacity:1;fill-rule:nonzero;stroke:none"
       d="m 611.99753,269.99869 27.00019,0 0,26.99977 -27.00019,0 0,-26.99977 z" /><path
       inkscape:connector-curvature="0"
       id="path276"
       style="fill:#ee9b84;fill-opacity:1;fill-rule:nonzero;stroke:none"
       d="m 647.99707,269.99869 26.99977,0 0,26.99977 -26.99977,0 0,-26.99977 z" /><path
       inkscape:connector-curvature="0"
       id="path278"
       style="fill:#f8d24b;fill-opacity:1;fill-rule:nonzero;stroke:none"
       d="m 683.99662,269.99869 26.99976,0 0,26.99977 -26.99976,0 0,-26.99977 z" /><path
       inkscape:connector-curvature="0"
       id="path280"
       style="fill:#73d1e0;fill-opacity:1;fill-rule:nonzero;stroke:none"
       d="m 719.99616,269.99869 27.00019,0 0,26.99977 -27.00019,0 0,-26.99977 z" /><path
       inkscape:connector-curvature="0"
       id="path282"
       style="fill:#8e9eae;fill-opacity:1;fill-rule:nonzero;stroke:none"
       d="m 755.99676,269.99869 26.99977,0 0,26.99977 -26.99977,0 0,-26.99977 z" /><path
       inkscape:connector-curvature="0"
       id="path284"
       style="fill:#e75a74;fill-opacity:1;fill-rule:nonzero;stroke:none"
       d="m 791.99631,269.99869 26.99976,0 0,26.99977 -26.99976,0 0,-26.99977 z" /><path
       inkscape:connector-curvature="0"
       id="path286"
       style="fill:#f5846d;fill-opacity:1;fill-rule:nonzero;stroke:none"
       d="m 827.99585,269.99869 27.00019,0 0,26.99977 -27.00019,0 0,-26.99977 z" /><path
       inkscape:connector-curvature="0"
       id="path288"
       style="fill:#aae1d1;fill-opacity:1;fill-rule:nonzero;stroke:none"
       d="m 863.99645,269.99869 26.99976,0 0,26.99977 -26.99976,0 0,-26.99977 z" /><path
       inkscape:connector-curvature="0"
       id="path290"
       style="fill:#f8d24b;fill-opacity:1;fill-rule:nonzero;stroke:none"
       d="m 899.996,269.99869 26.99976,0 0,26.99977 -26.99976,0 0,-26.99977 z" /><path
       inkscape:connector-curvature="0"
       id="path292"
       style="fill:#8e9eae;fill-opacity:1;fill-rule:nonzero;stroke:none"
       d="m 512.99773,350.99872 17.99998,0 0,80.99972 -17.99998,0 0,-80.99972 z" /><path
       inkscape:connector-curvature="0"
       id="path294"
       style="fill:#8e9eae;fill-opacity:1;fill-rule:nonzero;stroke:none"
       d="m 539.99739,377.99838 17.99998,0 0,53.99953 -17.99998,0 0,-53.99953 z" /><path
       inkscape:connector-curvature="0"
       id="path296"
       style="fill:#8e9eae;fill-opacity:1;fill-rule:nonzero;stroke:none"
       d="m 584.99682,305.99824 -8.99883,0 0,36.0006 c 0,4.24616 -3.94754,8.45223 -9.00095,8.95029 l 0,81.04857 17.99978,0 0,-125.99946" /><path
       inkscape:connector-curvature="0"
       id="path298"
       style="fill:#8e9eae;fill-opacity:1;fill-rule:nonzero;stroke:none"
       d="m 593.99776,305.99824 17.99956,0 0,17.99998 -17.99956,0 0,-17.99998 z" /><path
       inkscape:connector-curvature="0"
       id="path300"
       style="fill:#8e9eae;fill-opacity:1;fill-rule:nonzero;stroke:none"
       d="m 620.99742,305.99824 17.99998,0 0,71.99993 -17.99998,0 0,-71.99993 z" /><path
       inkscape:connector-curvature="0"
       id="path302"
       style="fill:#8e9eae;fill-opacity:1;fill-rule:nonzero;stroke:none"
       d="m 647.99707,305.99824 17.99999,0 0,35.99996 -17.99999,0 0,-35.99996 z" /><path
       inkscape:connector-curvature="0"
       id="path304"
       style="fill:#8e9eae;fill-opacity:1;fill-rule:nonzero;stroke:none"
       d="m 647.99707,350.99872 17.99999,0 0,80.99972 -17.99999,0 0,-80.99972 z" /><path
       inkscape:connector-curvature="0"
       id="path306"
       style="fill:#8e9eae;fill-opacity:1;fill-rule:nonzero;stroke:none"
       d="m 620.99742,386.99827 17.99998,0 0,44.99974 -17.99998,0 0,-44.99974 z" /><path
       inkscape:connector-curvature="0"
       id="path308"
       style="fill:#8e9eae;fill-opacity:1;fill-rule:nonzero;stroke:none"
       d="m 593.99776,331.99861 17.99956,0 0,63.99975 -17.99956,0 0,-63.99975 z" /><path
       inkscape:connector-curvature="0"
       id="path310"
       style="fill:#8e9eae;fill-opacity:1;fill-rule:nonzero;stroke:none"
       d="m 593.99776,403.99876 17.99956,0 0,27.99978 -17.99956,0 0,-27.99978 z" /><path
       inkscape:connector-curvature="0"
       id="path312"
       style="fill:#8e9eae;fill-opacity:1;fill-rule:nonzero;stroke:none"
       d="m 539.99739,350.99872 17.99998,0 0,17.99999 -17.99998,0 0,-17.99999 z" /><path
       inkscape:connector-curvature="0"
       id="path314"
       style="fill:#73d1e0;fill-opacity:1;fill-rule:nonzero;stroke:none"
       d="m 665.99685,440.99864 -152.99912,0 0,134.99935 75.30084,0 16.49504,-9.00095 -28.79562,0 0,-17.99977 61.7836,0 16.49398,-8.99988 -78.27758,0 0,-17.99978 80.99897,0 0,16.5151 8.99989,-4.91095 0,-92.60312 m -143.99924,71.99909 0,-62.9992 134.99935,0 0,62.9992 -134.99935,0 m 0,53.99931 0,-44.99943 44.99943,0 0,44.99943 -44.99943,0" /><path
       inkscape:connector-curvature="0"
       id="path316"
       style="fill:#f8d24b;fill-opacity:1;fill-rule:nonzero;stroke:none"
       d="m 827.99585,305.99824 -152.99912,0 0,125.99946 152.99912,0 0,-125.99946 m -143.99923,63.00026 0,-53.99932 134.99935,0 0,53.99932 -134.99935,0 m 72.00014,53.99931 0,-44.99943 62.99921,0 0,44.99943 -62.99921,0 m -72.00014,0 0,-44.99943 63.00026,0 0,44.99943 -63.00026,0" /><path
       inkscape:connector-curvature="0"
       id="path318"
       style="fill:#ee9b84;fill-opacity:1;fill-rule:nonzero;stroke:none"
       d="m 703.75754,512.99773 -28.76081,0 0,15.69308 28.76081,-15.69308" /><path
       inkscape:connector-curvature="0"
       id="path320"
       style="fill:#e75a74;fill-opacity:1;fill-rule:nonzero;stroke:none"
       d="m 935.99554,377.99838 -98.99875,0 0,62.29854 8.99883,-4.91094 0,-48.38771 81.00003,0 0,4.19024 8.99989,-4.9099 0,-8.28023" /><path
       inkscape:connector-curvature="0"
       id="path322"
       style="fill:#f8d24b;fill-opacity:1;fill-rule:nonzero;stroke:none"
       d="m 951.16946,377.99838 -6.17403,0 0,3.36929 6.17403,-3.36929" /><path
       inkscape:connector-curvature="0"
       id="path324"
       style="fill:#ee9b84;fill-opacity:1;fill-rule:nonzero;stroke:none"
       d="m 836.99679,305.99824 116.99958,0 0,62.99973 -116.99958,0 0,-62.99973 z" /><path
       inkscape:connector-curvature="0"
       id="path326"
       style="fill:#aae1d1;fill-opacity:1;fill-rule:nonzero;stroke:none"
       d="m 827.99585,440.99864 -152.99912,0 0,62.9992 45.25479,0 107.74433,-58.79102 0,-4.20818" /><path
       inkscape:connector-curvature="0"
       id="path328"
       style="fill:#89d8e4;fill-opacity:1;fill-rule:nonzero;stroke:none"
       d="m 521.99761,521.99761 44.99975,0 0,44.99975 -44.99975,0 0,-44.99975 z" /><path
       inkscape:connector-curvature="0"
       id="path330"
       style="fill:#89d8e4;fill-opacity:1;fill-rule:nonzero;stroke:none"
       d="m 637.78159,548.99727 -61.7836,0 0,17.99977 28.79562,0 32.98798,-17.99977" /><path
       inkscape:connector-curvature="0"
       id="path332"
       style="fill:#89d8e4;fill-opacity:1;fill-rule:nonzero;stroke:none"
       d="m 656.99696,521.99761 -80.99897,0 0,17.99978 78.27758,0 2.72139,-1.48468 0,-16.5151" /><path
       inkscape:connector-curvature="0"
       id="path334"
       style="fill:#89d8e4;fill-opacity:1;fill-rule:nonzero;stroke:none"
       d="m 521.99761,449.99853 134.99935,0 0,62.99973 -134.99935,0 0,-62.99973 z" /><path
       inkscape:connector-curvature="0"
       id="path336"
       style="fill:#efc132;fill-opacity:1;fill-rule:nonzero;stroke:none"
       d="m 683.99662,377.99838 62.99973,0 0,44.99975 -62.99973,0 0,-44.99975 z" /><path
       inkscape:connector-curvature="0"
       id="path338"
       style="fill:#efc132;fill-opacity:1;fill-rule:nonzero;stroke:none"
       d="m 683.99662,314.99918 134.99935,0 0,53.99953 -134.99935,0 0,-53.99953 z" /><rect
       style="fill:#ffffff;fill-opacity:1;stroke-width:19.10000038;stroke-miterlimit:4;stroke-dasharray:none"
       id="rect3647"
       width="133.22449"
       height="203.07735"
       x="671.16339"
       y="-350.7045"
       transform="scale(1,-1)" /><path
       inkscape:connector-curvature="0"
       id="path340"
       style="fill:#efc132;fill-opacity:1;fill-rule:nonzero;stroke:none"
       d="m 755.99676,377.99838 62.99973,0 0,44.99975 -62.99973,0 0,-44.99975 z" /><path
       inkscape:connector-curvature="0"
       id="path342"
       style="fill:#f5738d;fill-opacity:1;fill-rule:nonzero;stroke:none"
       d="m 926.99565,386.99827 -81.00003,0 0,48.38771 81.00003,-44.19747 0,-4.19024" /><path
       inkscape:connector-curvature="0"
       id="path344"
       style="fill:#ee9b84;fill-opacity:1;fill-rule:nonzero;stroke:none"
       d="m 1394.8927,117.64642 c 0.074,0.75342 0.1055,1.53955 0.1055,2.35312 l 0,-0.12557 c 0,-0.76187 -0.032,-1.50579 -0.1055,-2.22755 m 0.1055,2.35312 -117.0017,0 0,79.66835 117.0017,-63.8402 0,-15.82815" /><path
       inkscape:connector-curvature="0"
       id="path346"
       style="fill:#ee9b84;fill-opacity:1;fill-rule:nonzero;stroke:none"
       d="m 1277.9965,132.61879 0,0 c -28.0053,1.09109 -49.8798,23.91001 -49.8798,51.90895 0,13.48664 5.0756,25.77139 13.4645,35.00553 l 14.2137,-7.75051 c -4.5691,-7.08574 -6.5001,-16.68604 -6.5001,-27.25502 0,-21.11053 7.703,-38.35055 28.7017,-39.43003 l 0,-12.47892" /><path
       inkscape:connector-curvature="0"
       id="path348"
       style="fill:#cc8975;fill-opacity:1;fill-rule:nonzero;stroke:none"
       d="m 1386.1133,107.99969 -99.3691,0 c -6.5634,0 -8.8743,4.99958 -8.8743,11.99985 l 117.1283,0 0,0 c 0,-0.81357 -0.032,-1.5997 -0.1055,-2.35312 -0.496,-5.7414 -2.9757,-9.64673 -8.7794,-9.64673" /><path
       inkscape:connector-curvature="0"
       id="path350"
       style="fill:#99a8b7;fill-opacity:1;fill-rule:nonzero;stroke:none"
       d="m 575.99799,224.99926 -9.00095,0 0,35.99955 9.00095,0 0,-35.99955 m -72.00015,116.99958 -35.99954,0 0,8.99988 35.99954,0 0,-8.99988" /><path
       inkscape:connector-curvature="0"
       id="path352"
       style="fill:#dcded7;fill-opacity:1;fill-rule:nonzero;stroke:none"
       d="m 575.99799,260.99881 -9.00095,0 0,44.99943 9.00095,0 0,-44.99943 m -9.00095,72.00014 c 0,4.24511 -3.94648,8.45223 -8.99988,8.95029 l 0,9.04948 8.0006,0 c 0.33661,0 0.67111,-0.0169 0.99928,-0.0496 l 0,-17.95018 m -26.99965,8.99989 -8.99989,0 0,8.99988 8.99989,0 0,-8.99988 m -26.99966,0 -8.99989,0 0,8.99988 8.99989,0 0,-8.99988" /><path
       inkscape:connector-curvature="0"
       id="path354"
       style="fill:#8a9aaa;fill-opacity:1;fill-rule:nonzero;stroke:none"
       d="m 512.99773,341.99884 17.99998,0 0,8.99979 -17.99998,0 0,-8.99979 z" /><path
       inkscape:connector-curvature="0"
       id="path356"
       style="fill:#8a9aaa;fill-opacity:1;fill-rule:nonzero;stroke:none"
       d="m 575.99799,305.99824 -9.00095,0 0,44.95089 c 5.05341,-0.49806 9.00095,-4.70413 9.00095,-8.95029 l 0,-36.0006" /><path
       inkscape:connector-curvature="0"
       id="path358"
       style="fill:#8a9aaa;fill-opacity:1;fill-rule:nonzero;stroke:none"
       d="m 557.99716,341.94924 c -0.32817,0.0327 -0.66267,0.0496 -0.99929,0.0496 l -17.00048,0 0,8.99988 17.99977,0 0,-9.04948" /><path
       inkscape:connector-curvature="0"
       id="path360"
       style="fill:#bbb7a4;fill-opacity:1;fill-rule:nonzero;stroke:none"
       d="m 556.99787,107.99969 -114.99995,0 c -5.52297,0 -10.00022,4.47831 -10.00022,10.99951 l 0,213.99975 c 0,4.52263 4.47725,8.99989 10.00022,8.99989 l 114.99995,0 c 0.33662,0 0.67112,-0.0169 0.99929,-0.0496 5.0534,-0.49806 8.99988,-4.70518 8.99988,-8.95029 l 0,-213.99975 c 0,-6.5212 -4.4762,-10.99951 -9.99917,-10.99951 m -57.00033,26.46783 c -4.97109,0 -8.99989,-4.02879 -8.99989,-8.99989 0,-4.97109 4.0288,-8.99988 8.99989,-8.99988 4.9711,0 8.99989,4.02879 8.99989,8.99988 0,4.9711 -4.02879,8.99989 -8.99989,8.99989 m -58.9989,180.53166 0,-170.99995 116.99852,0 0,170.99995 -116.99852,0 m 31.99924,15.99909 0,-4.99958 13.09151,0 26.6449,0 14.26396,0 0,4.99958 -35.1478,0 -18.85257,0"
       sodipodi:nodetypes="cssssscssccssscccccccccccccc" /><path
       inkscape:connector-curvature="0"
       id="path362"
       style="fill:#faf4e7;fill-opacity:1;fill-rule:nonzero;stroke:none"
       d="m 557.99716,143.99923 -116.99852,0 0,170.99995 116.99852,0 0,-170.99995 m -26.99966,26.99966 0,-17.99977 17.99977,0 0,17.99977 -17.99977,0 m -26.99966,0 0,-17.99977 17.99977,0 0,17.99977 -17.99977,0 m -26.99966,0 0,-17.99977 17.99978,0 0,17.99977 -17.99978,0 m -26.99965,0 0,-17.99977 17.99977,0 0,17.99977 -17.99977,0 m 0,36.0006 0,-27.00071 98.99874,0 0,27.00071 -98.99874,0 m 53.99931,62.9992 0,-53.99931 44.99943,0 0,53.99931 -44.99943,0 m -53.99931,0 0,-53.99931 44.99943,0 0,53.99931 -44.99943,0 m 0,35.99955 0,-26.99966 98.99874,0 0,26.99966 -98.99874,0" /><path
       inkscape:connector-curvature="0"
       id="path364"
       style="fill:#9d9c8e;fill-opacity:1;fill-rule:nonzero;stroke:none"
       d="m 499.99754,116.46775 c -4.97109,0 -8.99989,4.02879 -8.99989,8.99988 0,4.9711 4.0288,8.99989 8.99989,8.99989 4.9711,0 8.99989,-4.02879 8.99989,-8.99989 0,-4.97109 -4.02879,-8.99988 -8.99989,-8.99988" /><path
       inkscape:connector-curvature="0"
       id="path366"
       style="fill:#9d9c8e;fill-opacity:1;fill-rule:nonzero;stroke:none"
       d="m 472.99788,325.99869 53.99995,0 0,4.99988 -53.99995,0 0,-4.99988 z" /><path
       inkscape:connector-curvature="0"
       id="path368"
       style="fill:#ee9b84;fill-opacity:1;fill-rule:nonzero;stroke:none"
       d="m 449.99853,152.99912 17.99998,0 0,17.99998 -17.99998,0 0,-17.99998 z" /><path
       inkscape:connector-curvature="0"
       id="path370"
       style="fill:#f8d24b;fill-opacity:1;fill-rule:nonzero;stroke:none"
       d="m 476.99818,152.99912 17.99999,0 0,17.99998 -17.99999,0 0,-17.99998 z" /><path
       inkscape:connector-curvature="0"
       id="path372"
       style="fill:#e75a74;fill-opacity:1;fill-rule:nonzero;stroke:none"
       d="m 503.99784,152.99912 17.99999,0 0,17.99998 -17.99999,0 0,-17.99998 z" /><path
       inkscape:connector-curvature="0"
       id="path374"
       style="fill:#aae1d1;fill-opacity:1;fill-rule:nonzero;stroke:none"
       d="m 530.9975,152.99912 17.99998,0 0,17.99998 -17.99998,0 0,-17.99998 z" /><path
       inkscape:connector-curvature="0"
       id="path376"
       style="fill:#a3a99f;fill-opacity:1;fill-rule:nonzero;stroke:none"
       d="m 449.99853,179.99878 98.99969,0 0,27.00018 -98.99969,0 0,-27.00018 z" /><path
       inkscape:connector-curvature="0"
       id="path378"
       style="fill:#e75a74;fill-opacity:1;fill-rule:nonzero;stroke:none"
       d="m 449.99853,278.99858 98.99969,0 0,26.99976 -98.99969,0 0,-26.99976 z" /><path
       inkscape:connector-curvature="0"
       id="path380"
       style="fill:#aae1d1;fill-opacity:1;fill-rule:nonzero;stroke:none"
       d="m 449.99853,215.99938 44.99974,0 0,53.99995 -44.99974,0 0,-53.99995 z" /><path
       inkscape:connector-curvature="0"
       id="path382"
       style="fill:#ee9b84;fill-opacity:1;fill-rule:nonzero;stroke:none"
       d="m 503.99784,215.99938 45.00017,0 0,53.99995 -45.00017,0 0,-53.99995 z" /><path
       inkscape:connector-curvature="0"
       id="path384"
       style="fill:#99a8b7;fill-opacity:1;fill-rule:nonzero;stroke:none"
       d="m 953.99531,224.99926 9.0002,0 0,35.99955 -9.0002,0 0,-35.99955 z" /><path
       inkscape:connector-curvature="0"
       id="path386"
       style="fill:#dcded7;fill-opacity:1;fill-rule:nonzero;stroke:none"
       d="m 962.99625,260.99881 -9.00094,0 0,44.99943 9.00094,0 0,-44.99943 m 0,107.99969 -9.00094,0 0,7.45822 9.00094,-4.912 0,-2.54622" /><path
       inkscape:connector-curvature="0"
       id="path388"
       style="fill:#d69888;fill-opacity:1;fill-rule:nonzero;stroke:none"
       d="m 953.99531,305.99824 9.0002,0 0,62.99973 -9.0002,0 0,-62.99973 z" /><path
       inkscape:connector-curvature="0"
       id="path390"
       style="fill:#889498;fill-opacity:1;fill-rule:nonzero;stroke:none"
       d="m 1172.9925,107.99969 -194.99749,0 c -8.2834,0 -14.99876,6.71535 -14.99876,14.99981 l 0,248.54522 26.99966,-14.73073 0,-221.81464 170.99889,0 0,128.50875 27.0028,-14.73179 0,-125.77681 c 0,-8.28446 -6.7217,-14.99981 -15.0051,-14.99981 m -97.5014,21.45242 c -4.3896,0 -7.9457,-3.56028 -7.9457,-7.95206 0,-4.3939 3.5561,-7.95418 7.9457,-7.95418 4.3897,0 7.9563,3.56028 7.9563,7.95418 0,4.39178 -3.5666,7.95206 -7.9563,7.95206" /><path
       inkscape:connector-curvature="0"
       id="path392"
       style="fill:#f7f7f8;fill-opacity:1;fill-rule:nonzero;stroke:none"
       d="m 1160.9948,134.99935 -170.99889,0 0,221.81464 8.99989,-4.91201 0,-27.90397 44.9994,0 0,3.35029 22.6322,-12.34912 -67.6316,0 0,-63.00026 72.0001,0 0,60.61654 9.001,-4.90989 0,-55.70665 71.997,0 0,16.42012 9.0009,-4.91094 0,-128.50875 m -53.9951,35.99954 0,-26.99966 44.9942,0 0,26.99966 -44.9942,0 m -54.0046,0 0,-26.99966 45.0037,0 0,26.99966 -45.0037,0 m -53.9993,0 0,-26.99966 44.9994,0 0,26.99966 -44.9994,0 m 0,72.00014 0,-63.00025 152.9981,0 0,63.00025 -152.9981,0" /><path
       inkscape:connector-curvature="0"
       id="path394"
       style="fill:#69777e;fill-opacity:1;fill-rule:nonzero;stroke:none"
       d="m 1075.4911,113.54587 c -4.3896,0 -7.9457,3.56028 -7.9457,7.95418 0,4.39178 3.5561,7.95206 7.9457,7.95206 4.3897,0 7.9563,-3.56028 7.9563,-7.95206 0,-4.3939 -3.5666,-7.95418 -7.9563,-7.95418" /><path
       inkscape:connector-curvature="0"
       id="path396"
       style="fill:#8c9296;fill-opacity:1;fill-rule:nonzero;stroke:none"
       d="m 998.9958,143.99923 45.0002,0 0,26.99977 -45.0002,0 0,-26.99977 z" /><path
       inkscape:connector-curvature="0"
       id="path398"
       style="fill:#8c9296;fill-opacity:1;fill-rule:nonzero;stroke:none"
       d="m 1151.9939,251.99892 -71.997,0 0,55.70665 71.997,-39.28653 0,-16.42012" /><path
       inkscape:connector-curvature="0"
       id="path400"
       style="fill:#f5846d;fill-opacity:1;fill-rule:nonzero;stroke:none"
       d="m 1052.9951,143.99923 44.9998,0 0,26.99977 -44.9998,0 0,-26.99977 z" /><path
       inkscape:connector-curvature="0"
       id="path402"
       style="fill:#73d1e0;fill-opacity:1;fill-rule:nonzero;stroke:none"
       d="m 1106.9997,143.99923 45.0002,0 0,26.99977 -45.0002,0 0,-26.99977 z" /><path
       inkscape:connector-curvature="0"
       id="path404"
       style="fill:#f8d24b;fill-opacity:1;fill-rule:nonzero;stroke:none"
       d="m 998.9958,179.99878 153.0002,0 0,62.99973 -153.0002,0 0,-62.99973 z" /><path
       inkscape:connector-curvature="0"
       id="path406"
       style="fill:#f5846d;fill-opacity:1;fill-rule:nonzero;stroke:none"
       d="m 1070.9959,251.99892 -72.0001,0 0,63.00026 67.6316,0 4.3685,-2.38372 0,-60.61654" /><path
       inkscape:connector-curvature="0"
       id="path408"
       style="fill:#73d1e0;fill-opacity:1;fill-rule:nonzero;stroke:none"
       d="m 1043.9952,323.99801 -44.9994,0 0,27.90397 44.9994,-24.55368 0,-3.35029" /><path
       inkscape:connector-curvature="0"
       id="path410"
       style="fill:#99a8b7;fill-opacity:1;fill-rule:nonzero;stroke:none"
       d="m 467.9983,578.89665 0,8.74347 43.21296,30.42065 6.91268,-3.77238 -50.12564,-35.39174" /><path
       inkscape:connector-curvature="0"
       id="path360-0"
       style="fill:#808080;fill-opacity:1;fill-rule:nonzero;stroke:none"
       d="m 802.27756,108.40188 -129.64236,0 c -6.23004,0 -11.36085,4.93312 -11.36085,12.11659 l 0,235.73303 c 0,4.98194 5.05045,9.9139 11.28049,9.9139 l 129.72272,0 c 0.37972,0 0.75704,-0.0186 1.12723,-0.0546 5.70035,-0.54864 10.15208,-5.18302 10.15208,-9.85926 l 0,-235.73303 c 0,-7.18347 -5.04926,-12.11659 -11.27931,-12.11659 m -130.84993,228.02184 0,-188.36628 131.97716,0 0,202.46622 -131.97716,0"
       sodipodi:nodetypes="cssssscsscccccc" /><path
       inkscape:connector-curvature="0"
       id="path368-6"
       style="fill:#ee9b84;fill-opacity:1;fill-rule:nonzero;stroke:none"
       d="m 679.27518,153.40131 17.99998,0 0,17.99998 -17.99998,0 0,-17.99998 z" /><path
       inkscape:connector-curvature="0"
       id="path370-5"
       style="fill:#f8d24b;fill-opacity:1;fill-rule:nonzero;stroke:none"
       d="m 704.02317,153.40131 17.99999,0 0,17.99998 -17.99999,0 0,-17.99998 z" /><path
       inkscape:connector-curvature="0"
       id="path372-3"
       style="fill:#e75a74;fill-opacity:1;fill-rule:nonzero;stroke:none"
       d="m 728.77117,153.40131 17.99999,0 0,17.99998 -17.99999,0 0,-17.99998 z" /><path
       inkscape:connector-curvature="0"
       id="path374-5"
       style="fill:#aae1d1;fill-opacity:1;fill-rule:nonzero;stroke:none"
       d="m 753.51917,153.40131 17.99998,0 0,17.99998 -17.99998,0 0,-17.99998 z" /><path
       inkscape:connector-curvature="0"
       id="path376-2"
       style="fill:#a3a99f;fill-opacity:1;fill-rule:nonzero;stroke:none"
       d="m 679.27518,180.40097 116.47116,0 0,27.00018 -116.47116,0 0,-27.00018 z" /><path
       inkscape:connector-curvature="0"
       id="path378-6"
       style="fill:#e75a74;fill-opacity:1;fill-rule:nonzero;stroke:none"
       d="m 679.27518,279.40077 116.47116,0 0,26.99976 -116.47116,0 0,-26.99976 z" /><path
       inkscape:connector-curvature="0"
       id="path380-4"
       style="fill:#aae1d1;fill-opacity:1;fill-rule:nonzero;stroke:none"
       d="m 679.27518,216.40157 44.99974,0 0,53.99995 -44.99974,0 0,-53.99995 z" /><path
       inkscape:connector-curvature="0"
       id="path382-1"
       style="fill:#ee9b84;fill-opacity:1;fill-rule:nonzero;stroke:none"
       d="m 733.27449,216.40157 62.47185,0 0,53.99995 -62.47185,0 0,-53.99995 z" /><path
       inkscape:connector-curvature="0"
       id="path374-5-4"
       style="fill:#d38d5f;fill-opacity:1;fill-rule:nonzero;stroke:none"
       d="m 778.26714,153.74464 17.99998,0 0,17.99998 -17.99998,0 0,-17.99998 z" /><path
       inkscape:connector-curvature="0"
       id="path378-6-4"
       style="fill:#8e9eae;fill-opacity:1;fill-rule:nonzero;stroke:none"
       d="m 679.27518,315.35442 116.47116,0 0,26.99976 -116.47116,0 0,-26.99976 z" /><rect
       style="fill:#8e9eae;fill-opacity:1;stroke-width:19.10000038;stroke-miterlimit:4;stroke-dasharray:none"
       id="rect3743"
       width="26.897766"
       height="6.0657659"
       x="723.96674"
       y="-129.89136"
       transform="scale(1,-1)" /></g></svg>