<?xml version="1.0" encoding="UTF-8" standalone="no"?>
<!-- Created with Inkscape (http://www.inkscape.org/) -->

<svg
   xmlns:dc="http://purl.org/dc/elements/1.1/"
   xmlns:cc="http://creativecommons.org/ns#"
   xmlns:rdf="http://www.w3.org/1999/02/22-rdf-syntax-ns#"
   xmlns:svg="http://www.w3.org/2000/svg"
   xmlns="http://www.w3.org/2000/svg"
   xmlns:sodipodi="http://sodipodi.sourceforge.net/DTD/sodipodi-0.dtd"
   xmlns:inkscape="http://www.inkscape.org/namespaces/inkscape"
   width="450.08203"
   height="204.98038"
   id="svg2"
   version="1.1"
   inkscape:version="0.48.5 r10040"
   sodipodi:docname="logo - simple.svg">
  <defs
     id="defs4">
    <inkscape:perspective
       sodipodi:type="inkscape:persp3d"
       inkscape:vp_x="0 : 526.18109 : 1"
       inkscape:vp_y="0 : 1000 : 0"
       inkscape:vp_z="744.09448 : 526.18109 : 1"
       inkscape:persp3d-origin="372.04724 : 350.78739 : 1"
       id="perspective5787" />
  </defs>
  <sodipodi:namedview
     id="base"
     pagecolor="#ffffff"
     bordercolor="#666666"
     borderopacity="1.0"
     inkscape:pageopacity="0.0"
     inkscape:pageshadow="2"
     inkscape:zoom="1.4"
     inkscape:cx="222.88926"
     inkscape:cy="48.780073"
     inkscape:document-units="px"
     inkscape:current-layer="flowRoot3000"
     showgrid="false"
     showguides="true"
     inkscape:guide-bbox="true"
     inkscape:snap-page="true"
     inkscape:window-width="1535"
     inkscape:window-height="876"
     inkscape:window-x="65"
     inkscape:window-y="24"
     inkscape:window-maximized="1"
     fit-margin-top="0"
     fit-margin-left="0"
     fit-margin-right="0"
     fit-margin-bottom="0">
    <sodipodi:guide
       orientation="0,1"
       position="0,204.98037"
       id="guide3625" />
    <sodipodi:guide
       orientation="1,0"
       position="149.50258,185.2824"
       id="guide3627" />
    <sodipodi:guide
       orientation="1,0"
       position="300.0153,204.98037"
       id="guide3629" />
    <sodipodi:guide
       orientation="1,0"
       position="450,128.99056"
       id="guide3631" />
    <sodipodi:guide
       orientation="1,0"
       position="0,164.25841"
       id="guide2990" />
  </sodipodi:namedview>
  <metadata
     id="metadata7">
    <rdf:RDF>
      <cc:Work
         rdf:about="">
        <dc:format>image/svg+xml</dc:format>
        <dc:type
           rdf:resource="http://purl.org/dc/dcmitype/StillImage" />
        <dc:title></dc:title>
      </cc:Work>
    </rdf:RDF>
  </metadata>
  <g
     inkscape:label="Layer 1"
     inkscape:groupmode="layer"
     id="layer1"
     transform="translate(0,-902.35453)">
    <path
       style="fill:#ff2a2a;fill-opacity:1"
       d="m 45.71875,0 c 12.481938,0 23.285652,3.74267 32.25,11.09375 8.964292,7.35112 13.5,16.1705 13.5,26.40625 0,4.09428 -0.806109,7.99668 -2.28125,11.71875 11.34723,4.09425 20.64402,10.43992 27.90625,19.09375 7.26223,8.7469 11.03125,18.42471 11.03125,29.21875 0,14.51612 -6.3618,26.8893 -18.84375,37.125 C 96.6859,144.89205 81.588198,150 64,150 l 86,0 L 150,0 45.71875,0 z m -9.0625,29.96875 0,7.53125 0,7.4375 9.0625,0 c 6.127485,0 9.1875,-2.41267 9.1875,-7.4375 0,-5.02483 -3.060015,-7.53125 -9.1875,-7.53125 l -9.0625,0 z m 0,45.03125 0,22.53125 0,22.40625 27.34375,0 c 7.489186,0 13.959616,-2.1265 19.40625,-6.5 5.333218,-4.3734 8.0625,-9.67173 8.0625,-15.90625 0,-6.14145 -2.729261,-11.43975 -8.0625,-15.90625 C 77.959617,77.25154 71.489187,75 64,75 l -18.28125,0 -9.0625,0 z"
       transform="translate(0,902.35453)"
       id="rect2997-83-7-2-3-4-9"
       inkscape:connector-curvature="0" />
    <path
       style="fill:#ffcc00;fill-opacity:1"
       d="m 300,902.35453 74.98916,97.53125 75.0205,-97.53125 z m 30.81703,90 0,59.99997 88.34425,0 0,-59.99997 -44.17212,57.59377 z"
       id="rect2997-8-8-8-5-5-4-8"
       inkscape:connector-curvature="0"
       sodipodi:nodetypes="cccccccccc" />
    <path
       style="fill:#2a7fff;fill-opacity:1"
       d="m 150,0 0,150 75,-150 -75,0 z m 75,0 75,150 0,-150 -75,0 z M 225,73.21875 186.625,150 263.375,150 225,73.21875 z"
       transform="translate(0,902.35453)"
       id="rect2997-4-8-4-3-7-8-9"
       inkscape:connector-curvature="0" />
    <flowRoot
       xml:space="preserve"
       id="flowRoot2992"
       style="font-size:40px;font-style:normal;font-weight:normal;line-height:125%;letter-spacing:0px;word-spacing:0px;fill:#000000;fill-opacity:1;stroke:none;font-family:Sans"
       transform="translate(0,902.35221)"><flowRegion
         id="flowRegion2994"><rect
           id="rect2996"
           width="450.71429"
           height="52.857143"
           x="-0.71428573"
           y="167.15285" /></flowRegion><flowPara
         id="flowPara2998"></flowPara></flowRoot>    <g
       transform="matrix(1.363546,0,0,1.363546,0,838.53778)"
       style="font-size:40px;font-style:normal;font-weight:normal;line-height:125%;letter-spacing:0px;word-spacing:0px;fill:#000000;fill-opacity:1;stroke:none;font-family:Sans"
       id="flowRoot3000">
      <path
         d="m 4.7226562,175.5333 -4.7226562,0 0,3.77344 4.7226562,0 0,15.11719 3.7851563,0 0,-15.11719 4.7226565,0 0,-3.77344 -4.7226565,0 -3.7851563,0"
         style="font-size:24px;font-variant:normal;font-stretch:normal;text-align:start;writing-mode:lr-tb;text-anchor:start;font-family:'Lemon/Milk';-inkscape-font-specification:'Lemon/Milk'"
         id="path3009" />
      <path
         d="m 15.09375,175.5333 0,18.89063 3.785156,0 0,-7.5586 5.660156,0 0,7.5586 3.785157,0 0,-18.89063 -3.785157,0 0,7.55859 -5.660156,0 0,-7.55859 -3.785156,0"
         style="font-size:24px;font-variant:normal;font-stretch:normal;text-align:start;writing-mode:lr-tb;text-anchor:start;font-family:'Lemon/Milk';-inkscape-font-specification:'Lemon/Milk'"
         id="path3011" />
      <path
         d="m 30.046875,194.42393 3.785156,0 0,-18.89063 -3.785156,0 0,18.89063"
         style="font-size:24px;font-variant:normal;font-stretch:normal;text-align:start;writing-mode:lr-tb;text-anchor:start;font-family:'Lemon/Milk';-inkscape-font-specification:'Lemon/Milk'"
         id="path3013" />
      <path
         d="m 35.8125,175.5333 0,18.89063 3.785156,0 0,-10.33594 11.332031,10.33594 0,-18.89063 -3.785156,0 0,10.32422 L 35.8125,175.5333"
         style="font-size:24px;font-variant:normal;font-stretch:normal;text-align:start;writing-mode:lr-tb;text-anchor:start;font-family:'Lemon/Milk';-inkscape-font-specification:'Lemon/Milk'"
         id="path3015" />
      <path
         d="m 53.015625,175.5333 0,18.89063 3.785156,0 0,-6.9375 4.828125,6.9375 4.605469,0 -6.480469,-9.29297 5.578125,-9.59766 -4.371094,0 -4.160156,7.17188 0,-7.17188 -3.785156,0"
         style="font-size:24px;font-variant:normal;font-stretch:normal;text-align:start;writing-mode:lr-tb;text-anchor:start;font-family:'Lemon/Milk';-inkscape-font-specification:'Lemon/Milk'"
         id="path3017" />
      <path
         d="m 82.617187,181.73252 c 0.152344,-0.46875 0.234375,-0.96094 0.234375,-1.47656 l 0,0 c 0,-1.28906 -0.46875,-2.40235 -1.394531,-3.32813 -0.92578,-0.92578 -2.039064,-1.39453 -3.328125,-1.39453 l 0,0 -4.722656,0 0,4.72266 0,0 0,0.9375 0,3.78515 0,2.83594 0,0 0,6.60938 6.609375,0 0,0 c 1.816404,0 3.375001,-0.64454 4.675781,-1.9336 1.289061,-1.28906 1.945313,-2.84766 1.945313,-4.67578 l 0,0 c 0,-1.35937 -0.38672,-2.57813 -1.136719,-3.67969 -0.749999,-1.08984 -1.710939,-1.88672 -2.882813,-2.40234 m -5.425781,-0.53906 0,-0.9375 0,0 0,-0.94922 0.9375,0 0,0 c 0.632812,0 0.949219,0.31641 0.949219,0.94922 l 0,0 c 0,0.63281 -0.316407,0.9375 -0.949219,0.9375 l 0,0 -0.9375,0 m 2.824219,3.78515 0,0 c 0.773437,0 1.441407,0.28125 2.003906,0.83203 0.550781,0.5625 0.832031,1.23047 0.832031,2.00391 l 0,0 c 0,0.78516 -0.28125,1.45313 -0.832031,2.00391 -0.562499,0.55078 -1.230469,0.82031 -2.003906,0.82031 l 0,0 -2.824219,0 0,-2.82422 0,0 0,-2.83594 0.9375,0 1.886719,0"
         style="font-size:24px;font-variant:normal;font-stretch:normal;text-align:start;writing-mode:lr-tb;text-anchor:start;font-family:'Lemon/Milk';-inkscape-font-specification:'Lemon/Milk'"
         id="path3019" />
      <path
         d="m 99.410156,175.5333 0,7.55859 0,3.38672 0,0.38672 c 0,1.04297 -0.375,1.9336 -1.113281,2.67188 -0.749999,0.73828 -1.628907,1.10156 -2.660156,1.10156 l 0,0 c -1.042968,0 -1.933595,-0.36328 -2.671875,-1.10156 -0.738281,-0.73828 -1.101563,-1.62891 -1.101563,-2.67188 l 0,-0.38672 0,-3.38672 0,-7.55859 -3.785156,0 0,7.55859 0,3.77344 c 0,2.08594 0.738283,3.86719 2.214844,5.34375 1.476561,1.47656 3.257814,2.21485 5.34375,2.21485 l 0,0 c 2.074216,0 3.85547,-0.73829 5.332031,-2.21485 1.47656,-1.47656 2.22656,-3.25781 2.22656,-5.34375 l 0,-3.77344 0,-7.55859 -3.785154,0"
         style="font-size:24px;font-variant:normal;font-stretch:normal;text-align:start;writing-mode:lr-tb;text-anchor:start;font-family:'Lemon/Milk';-inkscape-font-specification:'Lemon/Milk'"
         id="path3021" />
      <path
         d="m 110.26172,186.72471 c 0.22265,0.0937 0.65625,0.24609 1.28906,0.48047 0.63281,0.23437 0.96094,0.75 0.96094,1.54687 l 0,0 c 0,0.52734 -0.1875,0.97266 -0.5625,1.33594 -0.375,0.375 -0.8086,0.55078 -1.32422,0.55078 l 0,0 c -0.52734,0 -0.97266,-0.17578 -1.33594,-0.55078 -0.375,-0.36328 -0.55078,-0.8086 -0.55078,-1.33594 l 0,0 -3.78515,0 0,0 c 0,1.57031 0.55078,2.90625 1.66406,4.00781 1.10156,1.11328 2.4375,1.66407 4.00781,1.66407 l 0,0 c 1.54687,0 2.88281,-0.55079 3.99609,-1.66407 1.10157,-1.10156 1.66407,-2.4375 1.66407,-4.00781 l 0,0 c 0,-1.05469 -0.26954,-1.91016 -0.78516,-2.58984 -0.52734,-0.67969 -1.11328,-1.21875 -1.76953,-1.61719 -0.65625,-0.39844 -1.27735,-0.67969 -1.86328,-0.85547 -0.58594,-0.16406 -0.94922,-0.28125 -1.07813,-0.32812 -0.28125,-0.0703 -0.70312,-0.28125 -1.24218,-0.63282 -0.53907,-0.35156 -0.8086,-0.85547 -0.8086,-1.53515 l 0,0 c 0,-0.51563 0.17578,-0.94922 0.55078,-1.32422 0.36328,-0.375 0.8086,-0.5625 1.33594,-0.5625 l 0,0 c 0.51562,0 0.94922,0.1875 1.32422,0.5625 0.375,0.375 0.5625,0.80859 0.5625,1.32422 l 0,0 3.77344,0 0,0 c 0,-1.54688 -0.5625,-2.88282 -1.66407,-3.9961 -1.11328,-1.10156 -2.44922,-1.66406 -3.99609,-1.66406 l 0,0 c -1.57031,0 -2.90625,0.5625 -4.00781,1.66406 -1.11328,1.11328 -1.66406,2.44922 -1.66406,3.9961 l 0,0 c 0,1.03125 0.24609,1.89844 0.76171,2.58984 0.50391,0.69141 1.07813,1.24219 1.71094,1.66406 0.63281,0.42188 1.24219,0.73828 1.80469,0.92578 0.5625,0.19922 0.91406,0.31641 1.03125,0.35157"
         style="font-size:24px;font-variant:normal;font-stretch:normal;text-align:start;writing-mode:lr-tb;text-anchor:start;font-family:'Lemon/Milk';-inkscape-font-specification:'Lemon/Milk'"
         id="path3023" />
      <path
         d="m 117.84375,194.42393 3.78516,0 0,-18.89063 -3.78516,0 0,18.89063"
         style="font-size:24px;font-variant:normal;font-stretch:normal;text-align:start;writing-mode:lr-tb;text-anchor:start;font-family:'Lemon/Milk';-inkscape-font-specification:'Lemon/Milk'"
         id="path3025" />
      <path
         d="m 123.60938,175.5333 0,18.89063 3.78515,0 0,-10.33594 11.33203,10.33594 0,-18.89063 -3.78515,0 0,10.32422 -11.33203,-10.32422"
         style="font-size:24px;font-variant:normal;font-stretch:normal;text-align:start;writing-mode:lr-tb;text-anchor:start;font-family:'Lemon/Milk';-inkscape-font-specification:'Lemon/Milk'"
         id="path3027" />
      <path
         d="m 140.8125,175.5333 0,7.55859 0,3.77344 0,7.5586 3.78516,0 7.54687,0 0,-3.78516 -7.54687,0 0,-3.77344 5.66015,0 0,-3.77344 -5.66015,0 0,-3.78515 7.54687,0 0,-3.77344 -11.33203,0"
         style="font-size:24px;font-variant:normal;font-stretch:normal;text-align:start;writing-mode:lr-tb;text-anchor:start;font-family:'Lemon/Milk';-inkscape-font-specification:'Lemon/Milk'"
         id="path3029" />
      <path
         d="m 159.15234,186.72471 c 0.22266,0.0937 0.65625,0.24609 1.28907,0.48047 0.63281,0.23437 0.96093,0.75 0.96093,1.54687 l 0,0 c 0,0.52734 -0.1875,0.97266 -0.5625,1.33594 -0.375,0.375 -0.80859,0.55078 -1.32422,0.55078 l 0,0 c -0.52734,0 -0.97265,-0.17578 -1.33593,-0.55078 -0.375,-0.36328 -0.55078,-0.8086 -0.55078,-1.33594 l 0,0 -3.78516,0 0,0 c 0,1.57031 0.55078,2.90625 1.66406,4.00781 1.10156,1.11328 2.4375,1.66407 4.00781,1.66407 l 0,0 c 1.54688,0 2.88282,-0.55079 3.9961,-1.66407 1.10156,-1.10156 1.66406,-2.4375 1.66406,-4.00781 l 0,0 c 0,-1.05469 -0.26953,-1.91016 -0.78516,-2.58984 -0.52734,-0.67969 -1.11328,-1.21875 -1.76953,-1.61719 -0.65625,-0.39844 -1.27734,-0.67969 -1.86328,-0.85547 -0.58593,-0.16406 -0.94922,-0.28125 -1.07812,-0.32812 -0.28125,-0.0703 -0.70313,-0.28125 -1.24219,-0.63282 -0.53906,-0.35156 -0.80859,-0.85547 -0.80859,-1.53515 l 0,0 c 0,-0.51563 0.17578,-0.94922 0.55078,-1.32422 0.36328,-0.375 0.80859,-0.5625 1.33593,-0.5625 l 0,0 c 0.51563,0 0.94922,0.1875 1.32422,0.5625 0.375,0.375 0.5625,0.80859 0.5625,1.32422 l 0,0 3.77344,0 0,0 c 0,-1.54688 -0.5625,-2.88282 -1.66406,-3.9961 -1.11328,-1.10156 -2.44922,-1.66406 -3.9961,-1.66406 l 0,0 c -1.57031,0 -2.90625,0.5625 -4.00781,1.66406 -1.11328,1.11328 -1.66406,2.44922 -1.66406,3.9961 l 0,0 c 0,1.03125 0.24609,1.89844 0.76172,2.58984 0.5039,0.69141 1.07812,1.24219 1.71094,1.66406 0.63281,0.42188 1.24218,0.73828 1.80468,0.92578 0.5625,0.19922 0.91407,0.31641 1.03125,0.35157"
         style="font-size:24px;font-variant:normal;font-stretch:normal;text-align:start;writing-mode:lr-tb;text-anchor:start;font-family:'Lemon/Milk';-inkscape-font-specification:'Lemon/Milk'"
         id="path3031" />
      <path
         d="m 172.04297,186.72471 c 0.22265,0.0937 0.65625,0.24609 1.28906,0.48047 0.63281,0.23437 0.96094,0.75 0.96094,1.54687 l 0,0 c 0,0.52734 -0.1875,0.97266 -0.5625,1.33594 -0.375,0.375 -0.8086,0.55078 -1.32422,0.55078 l 0,0 c -0.52734,0 -0.97266,-0.17578 -1.33594,-0.55078 -0.375,-0.36328 -0.55078,-0.8086 -0.55078,-1.33594 l 0,0 -3.78516,0 0,0 c 0,1.57031 0.55079,2.90625 1.66407,4.00781 1.10156,1.11328 2.4375,1.66407 4.00781,1.66407 l 0,0 c 1.54687,0 2.88281,-0.55079 3.99609,-1.66407 1.10157,-1.10156 1.66407,-2.4375 1.66407,-4.00781 l 0,0 c 0,-1.05469 -0.26954,-1.91016 -0.78516,-2.58984 -0.52734,-0.67969 -1.11328,-1.21875 -1.76953,-1.61719 -0.65625,-0.39844 -1.27735,-0.67969 -1.86328,-0.85547 -0.58594,-0.16406 -0.94922,-0.28125 -1.07813,-0.32812 -0.28125,-0.0703 -0.70312,-0.28125 -1.24219,-0.63282 -0.53906,-0.35156 -0.80859,-0.85547 -0.80859,-1.53515 l 0,0 c 0,-0.51563 0.17578,-0.94922 0.55078,-1.32422 0.36328,-0.375 0.8086,-0.5625 1.33594,-0.5625 l 0,0 c 0.51562,0 0.94922,0.1875 1.32422,0.5625 0.375,0.375 0.5625,0.80859 0.5625,1.32422 l 0,0 3.77344,0 0,0 c 0,-1.54688 -0.5625,-2.88282 -1.66407,-3.9961 -1.11328,-1.10156 -2.44922,-1.66406 -3.99609,-1.66406 l 0,0 c -1.57031,0 -2.90625,0.5625 -4.00781,1.66406 -1.11328,1.11328 -1.66407,2.44922 -1.66407,3.9961 l 0,0 c 0,1.03125 0.2461,1.89844 0.76172,2.58984 0.50391,0.69141 1.07813,1.24219 1.71094,1.66406 0.63281,0.42188 1.24219,0.73828 1.80469,0.92578 0.5625,0.19922 0.91406,0.31641 1.03125,0.35157"
         style="font-size:24px;font-variant:normal;font-stretch:normal;text-align:start;writing-mode:lr-tb;text-anchor:start;font-family:'Lemon/Milk';-inkscape-font-specification:'Lemon/Milk'"
         id="path3033" />
      <path
         d="m 180.09375,190.63877 0,3.78516 1.3125,0 -0.69141,2.70703 1.98047,0 1.3711,-2.70703 0,-3.78516 -3.97266,0"
         style="font-size:24px;font-variant:normal;font-stretch:normal;text-align:start;writing-mode:lr-tb;text-anchor:start;font-family:'Lemon/Milk';-inkscape-font-specification:'Lemon/Milk'"
         id="path3035" />
      <path
         d="m 192.28125,175.5333 0,18.89063 3.78516,0 0,-10.33594 11.33203,10.33594 0,-18.89063 -3.78516,0 0,10.32422 -11.33203,-10.32422"
         style="font-size:24px;font-variant:normal;font-stretch:normal;text-align:start;writing-mode:lr-tb;text-anchor:start;font-family:'Lemon/Milk';-inkscape-font-specification:'Lemon/Milk'"
         id="path3037" />
      <path
         d="m 218.92969,175.5333 c -2.60156,0 -4.82813,0.92578 -6.67969,2.77734 -1.85156,1.85157 -2.76563,4.07813 -2.76563,6.66797 l 0,0 c 0,2.60156 0.91407,4.82813 2.76563,6.67969 1.85156,1.85156 4.07813,2.76563 6.67969,2.76563 l 0,0 c 2.58984,0 4.81641,-0.91407 6.66797,-2.76563 1.85156,-1.85156 2.77734,-4.07813 2.77734,-6.67969 l 0,0 c 0,-2.58984 -0.92578,-4.8164 -2.77734,-6.66797 -1.85156,-1.85156 -4.07813,-2.77734 -6.66797,-2.77734 m 0,3.77344 0,0 c 1.54687,0 2.88281,0.5625 3.99609,1.67578 1.11328,1.11328 1.67578,2.44922 1.67578,3.99609 l 0,0 c 0,1.57031 -0.5625,2.90625 -1.67578,4.00782 -1.11328,1.10156 -2.44922,1.65234 -3.99609,1.65234 l 0,0 c -1.57031,0 -2.90625,-0.55078 -4.00782,-1.65234 -1.10156,-1.10157 -1.65234,-2.43751 -1.65234,-4.00782 l 0,0 c 0,-1.54687 0.55078,-2.88281 1.65234,-3.99609 1.10157,-1.11328 2.43751,-1.67578 4.00782,-1.67578"
         style="font-size:24px;font-variant:normal;font-stretch:normal;text-align:start;writing-mode:lr-tb;text-anchor:start;font-family:'Lemon/Milk';-inkscape-font-specification:'Lemon/Milk'"
         id="path3039" />
      <path
         d="m 234.22266,175.5333 -4.72266,0 0,3.77344 4.72266,0 0,15.11719 3.78515,0 0,-15.11719 4.72266,0 0,-3.77344 -4.72266,0 -3.78515,0"
         style="font-size:24px;font-variant:normal;font-stretch:normal;text-align:start;writing-mode:lr-tb;text-anchor:start;font-family:'Lemon/Milk';-inkscape-font-specification:'Lemon/Milk'"
         id="path3041" />
      <path
         d="m 254.23828,175.5333 -3.78516,0 0,18.89063 3.78516,0 0,0 0,0 c 2.58984,0 4.81641,-0.91407 6.66797,-2.76563 1.85156,-1.85156 2.77734,-4.07813 2.77734,-6.67969 l 0,0 c 0,-2.58984 -0.92578,-4.8164 -2.77734,-6.66797 -1.85156,-1.85156 -4.07813,-2.77734 -6.66797,-2.77734 l 0,0 m 0,15.10547 0,-11.33203 0,0 c 1.54687,0 2.88281,0.5625 3.99609,1.67578 1.10157,1.11328 1.66407,2.44922 1.66407,3.99609 l 0,0 c 0,1.57031 -0.5625,2.90625 -1.66407,4.00782 -1.11328,1.10156 -2.44922,1.65234 -3.99609,1.65234"
         style="font-size:24px;font-variant:normal;font-stretch:normal;text-align:start;writing-mode:lr-tb;text-anchor:start;font-family:'Lemon/Milk';-inkscape-font-specification:'Lemon/Milk'"
         id="path3043" />
      <path
         d="m 264.98437,175.5333 0,7.55859 0,3.77344 0,7.5586 3.78516,0 7.54688,0 0,-3.78516 -7.54688,0 0,-3.77344 5.66016,0 0,-3.77344 -5.66016,0 0,-3.78515 7.54688,0 0,-3.77344 -11.33204,0"
         style="font-size:24px;font-variant:normal;font-stretch:normal;text-align:start;writing-mode:lr-tb;text-anchor:start;font-family:'Lemon/Milk';-inkscape-font-specification:'Lemon/Milk'"
         id="path3045" />
      <path
         d="m 294.73828,175.5333 -0.79687,0 -2.44922,0 -0.15235,0 -0.64453,0 -4.47656,9.94922 -4.47656,-9.94922 -0.60938,0 -0.15234,0 -2.48438,0 -0.75,0 8.08594,18 0,0 0.39844,0.89063 8.50781,-18.89063"
         style="font-size:24px;font-variant:normal;font-stretch:normal;text-align:start;writing-mode:lr-tb;text-anchor:start;font-family:'Lemon/Milk';-inkscape-font-specification:'Lemon/Milk'"
         id="path3047" />
      <path
         d="m 295.5,194.42393 3.78516,0 0,-18.89063 -3.78516,0 0,18.89063"
         style="font-size:24px;font-variant:normal;font-stretch:normal;text-align:start;writing-mode:lr-tb;text-anchor:start;font-family:'Lemon/Milk';-inkscape-font-specification:'Lemon/Milk'"
         id="path3049" />
      <path
         d="m 310.71094,175.5333 c -2.60156,0 -4.82813,0.92578 -6.67969,2.77734 -1.85156,1.85157 -2.76563,4.07813 -2.76563,6.66797 l 0,0 c 0,2.60156 0.91407,4.82813 2.76563,6.67969 1.85156,1.85156 4.07813,2.76563 6.67969,2.76563 l 0,0 c 1.28906,0 2.50781,-0.2461 3.65625,-0.73829 1.14843,-0.49218 2.15625,-1.17187 3.02343,-2.03906 l -2.67187,-2.67187 c -1.11328,1.11328 -2.44922,1.66406 -4.00781,1.66406 l 0,0 c -1.57031,0 -2.90625,-0.55078 -4.00782,-1.65234 -1.10156,-1.10157 -1.65234,-2.43751 -1.65234,-4.00782 l 0,0 c 0,-1.54687 0.55078,-2.88281 1.65234,-3.99609 1.10157,-1.11328 2.43751,-1.67578 4.00782,-1.67578 l 0,0 c 1.54687,0 2.88281,0.5625 4.00781,1.66406 l 2.67187,-2.67187 c -0.86718,-0.84375 -1.875,-1.52344 -3.02343,-2.01563 -1.14844,-0.49219 -2.36719,-0.75 -3.65625,-0.75"
         style="font-size:24px;font-variant:normal;font-stretch:normal;text-align:start;writing-mode:lr-tb;text-anchor:start;font-family:'Lemon/Milk';-inkscape-font-specification:'Lemon/Milk'"
         id="path3051" />
      <path
         d="m 318.75,175.5333 0,7.55859 0,3.77344 0,7.5586 3.78516,0 7.54687,0 0,-3.78516 -7.54687,0 0,-3.77344 5.66015,0 0,-3.77344 -5.66015,0 0,-3.78515 7.54687,0 0,-3.77344 -11.33203,0"
         style="font-size:24px;font-variant:normal;font-stretch:normal;text-align:start;writing-mode:lr-tb;text-anchor:start;font-family:'Lemon/Milk';-inkscape-font-specification:'Lemon/Milk'"
         id="path3053" />
    </g>
  </g>
</svg>
