<?xml version="1.0" encoding="UTF-8" standalone="no"?>
<svg
   xmlns:dc="http://purl.org/dc/elements/1.1/"
   xmlns:cc="http://creativecommons.org/ns#"
   xmlns:rdf="http://www.w3.org/1999/02/22-rdf-syntax-ns#"
   xmlns:svg="http://www.w3.org/2000/svg"
   xmlns="http://www.w3.org/2000/svg"
   xmlns:sodipodi="http://sodipodi.sourceforge.net/DTD/sodipodi-0.dtd"
   xmlns:inkscape="http://www.inkscape.org/namespaces/inkscape"
   height="200"
   width="200"
   version="1.0"
   id="svg2"
   inkscape:version="0.48.4 r9939"
   sodipodi:docname="linkedin.svg">
  <metadata
     id="metadata21">
    <rdf:RDF>
      <cc:Work
         rdf:about="">
        <dc:format>image/svg+xml</dc:format>
        <dc:type
           rdf:resource="http://purl.org/dc/dcmitype/StillImage" />
      </cc:Work>
    </rdf:RDF>
  </metadata>
  <sodipodi:namedview
     pagecolor="#ffffff"
     bordercolor="#666666"
     borderopacity="1"
     objecttolerance="10"
     gridtolerance="10"
     guidetolerance="10"
     inkscape:pageopacity="0"
     inkscape:pageshadow="2"
     inkscape:window-width="1920"
     inkscape:window-height="1056"
     id="namedview19"
     showgrid="false"
     inkscape:zoom="2.36"
     inkscape:cx="138.29738"
     inkscape:cy="95.354008"
     inkscape:window-x="1920"
     inkscape:window-y="24"
     inkscape:window-maximized="1"
     inkscape:current-layer="svg2" />
  <defs
     id="defs4">
    <linearGradient
       id="linearGradient3003"
       y2="425.4"
       gradientUnits="userSpaceOnUse"
       x2="-395.85"
       gradientTransform="matrix(-0.50335197,0,0,0.50335205,-148.17928,-158.80197)"
       y1="274.71"
       x1="-344.15">
      <stop
         stop-color="#FFF"
         offset="0"
         id="stop7" />
      <stop
         stop-color="#FFF"
         stop-opacity="0"
         offset="1"
         id="stop9" />
    </linearGradient>
  </defs>
  <rect
     transform="scale(-1,1)"
     rx="30.201"
     ry="30.201"
     height="199.98"
     width="200"
     y="0.011226"
     x="-200"
     fill="#069"
     id="rect11" />
  <path
     d="m63.992,167.85,0-90.884-30.208,0,0,90.884,30.208,0zm-15.1-103.3c10.534,0,17.091-6.9789,17.091-15.7-0.19632-8.9179-6.5566-15.703-16.891-15.703-10.333,0-17.09,6.7852-17.09,15.703,0,8.7216,6.5553,15.7,16.693,15.7h0.19633z"
     fill="#FFF"
     id="path15" />
  <path
     d="m80.712,167.85,30.208,0,0-50.754c0-2.7163,0.19632-5.4298,0.99398-7.3715,2.1838-5.4271,7.1542-11.048,15.499-11.048,10.931,0,15.304,8.3343,15.304,20.552v48.621h30.206v-52.112c0-27.916-14.903-40.905-34.778-40.905-16.296,0-23.451,9.1089-27.426,15.313h0.2017v-13.181h-30.208c0.39641,8.528,0,90.884,0,90.884z"
     fill="#FFF"
     id="path17" />
</svg>
