<?xml version="1.0" encoding="UTF-8" standalone="no"?>
<!-- Created with Inkscape (http://www.inkscape.org/) -->

<svg
   xmlns:dc="http://purl.org/dc/elements/1.1/"
   xmlns:cc="http://creativecommons.org/ns#"
   xmlns:rdf="http://www.w3.org/1999/02/22-rdf-syntax-ns#"
   xmlns:svg="http://www.w3.org/2000/svg"
   xmlns="http://www.w3.org/2000/svg"
   xmlns:sodipodi="http://sodipodi.sourceforge.net/DTD/sodipodi-0.dtd"
   xmlns:inkscape="http://www.inkscape.org/namespaces/inkscape"
   width="27.011045"
   height="38.20303"
   id="svg4315"
   version="1.1"
   inkscape:version="0.48.4 r9939"
   sodipodi:docname="other.svg">
  <defs
     id="defs4317" />
  <sodipodi:namedview
     id="base"
     pagecolor="#ffffff"
     bordercolor="#666666"
     borderopacity="1.0"
     inkscape:pageopacity="0.0"
     inkscape:pageshadow="2"
     inkscape:zoom="15.839192"
     inkscape:cx="19.859391"
     inkscape:cy="16.890682"
     inkscape:document-units="px"
     inkscape:current-layer="layer1"
     showgrid="false"
     fit-margin-top="0"
     fit-margin-left="0"
     fit-margin-right="0"
     fit-margin-bottom="0"
     inkscape:window-width="1855"
     inkscape:window-height="1056"
     inkscape:window-x="65"
     inkscape:window-y="24"
     inkscape:window-maximized="1" />
  <metadata
     id="metadata4320">
    <rdf:RDF>
      <cc:Work
         rdf:about="">
        <dc:format>image/svg+xml</dc:format>
        <dc:type
           rdf:resource="http://purl.org/dc/dcmitype/StillImage" />
        <dc:title></dc:title>
      </cc:Work>
    </rdf:RDF>
  </metadata>
  <g
     inkscape:label="Layer 1"
     inkscape:groupmode="layer"
     id="layer1"
     transform="translate(-361.58451,-519.03463)">
    <g
       transform="matrix(0.55970151,0,0,0.55970151,32.737949,237.06062)"
       id="g257">
      <circle
         style="fill:#60c6e4"
         sodipodi:ry="13.4"
         sodipodi:rx="13.4"
         sodipodi:cy="538.40002"
         sodipodi:cx="605"
         d="m 618.4,538.40002 c 0,7.40062 -5.99938,13.4 -13.4,13.4 -7.40062,0 -13.4,-5.99938 -13.4,-13.4 0,-7.40061 5.99938,-13.4 13.4,-13.4 7.40062,0 13.4,5.99939 13.4,13.4 z"
         cx="605"
         cy="538.40002"
         r="13.4"
         id="circle259" />
      <g
         id="g261">
        <path
           style="fill:#ffffff"
           inkscape:connector-curvature="0"
           d="m 606.6,533 h 1.2 l -4.3,10.4 h -1.1 l 4.2,-10.4 z"
           id="path263" />
      </g>
    </g>
    <g
       transform="matrix(0.55970151,0,0,0.55970151,80.782278,225.19132)"
       id="g122">
      <circle
         style="fill:#78c8a5"
         sodipodi:ry="13.4"
         sodipodi:rx="13.4"
         sodipodi:cy="538.40002"
         sodipodi:cx="515.09998"
         d="m 528.49998,538.40002 c 0,7.40062 -5.99939,13.4 -13.4,13.4 -7.40062,0 -13.4,-5.99938 -13.4,-13.4 0,-7.40061 5.99938,-13.4 13.4,-13.4 7.40061,0 13.4,5.99939 13.4,13.4 z"
         cx="515.09998"
         cy="538.40002"
         r="13.4"
         id="circle124" />
      <g
         id="g126">
        <path
           style="fill:#ffffff"
           inkscape:connector-curvature="0"
           d="m 512.4,535.2 c 0,-0.5 -0.3,-1.2 -1.6,-1.2 -0.5,0 -2,0 -2,0 l -0.6,2.6 c 0,0 1.1,0 2.1,0 1.6,0.1 2.1,-0.7 2.1,-1.4 l 0,0 z"
           id="path128" />
        <path
           style="fill:#ffffff"
           inkscape:connector-curvature="0"
           d="m 517.8,535.2 c 0,-0.5 -0.3,-1.2 -1.6,-1.2 -0.5,0 -2,0 -2,0 l -0.6,2.6 c 0,0 1.1,0 2.1,0 1.7,0.1 2.1,-0.7 2.1,-1.4 l 0,0 z"
           id="path130" />
        <path
           style="fill:#ffffff"
           inkscape:connector-curvature="0"
           d="m 511.7,539.2 c 0,-0.5 -0.3,-1.1 -1.6,-1.1 -0.5,0 -2,0 -2,0 l -0.6,2.6 c 0,0 1.1,0 2.1,0 1.6,0 2.1,-0.8 2.1,-1.5 l 0,0 z"
           id="path132" />
        <path
           style="fill:#ffffff"
           inkscape:connector-curvature="0"
           d="m 517.1,539.2 c 0,-0.5 -0.3,-1.1 -1.6,-1.1 -0.5,0 -2,0 -2,0 l -0.6,2.6 c 0,0 1.1,0 2.1,0 1.6,0 2.1,-0.8 2.1,-1.5 l 0,0 z"
           id="path134" />
        <path
           style="fill:#ffffff"
           inkscape:connector-curvature="0"
           d="m 522.8,537.6 c 0,-0.5 -0.3,-1.2 -1.6,-1.2 -0.5,0 -2,0 -2,0 l -0.6,2.6 c 0,0 1.1,0 2.1,0 1.6,0.1 2.1,-0.7 2.1,-1.4 l 0,0 z"
           id="path136" />
        <path
           style="fill:#ffffff"
           inkscape:connector-curvature="0"
           d="m 522,541.7 c 0,-0.5 -0.3,-1.2 -1.6,-1.2 -0.5,0 -2,0 -2,0 l -0.6,2.6 c 0,0 1.1,0 2.1,0 1.6,0.1 2.1,-0.7 2.1,-1.4 l 0,0 z"
           id="path138" />
        <path
           style="fill:#ffffff"
           inkscape:connector-curvature="0"
           d="m 516.3,543.3 c 0,-0.5 -0.3,-1.2 -1.6,-1.2 -0.5,0 -2,0 -2,0 l -0.6,2.6 c 0,0 1.1,0 2.1,0 1.7,0.1 2.1,-0.6 2.1,-1.4 l 0,0 z"
           id="path140" />
      </g>
    </g>
    <g
       transform="matrix(0.55970151,0,0,0.55970151,147.47615,230.35289)"
       id="g142">
      <circle
         style="fill:#f8ca2c"
         sodipodi:ry="13.4"
         sodipodi:rx="13.4"
         sodipodi:cy="538.40002"
         sodipodi:cx="417.39999"
         d="m 430.79999,538.40002 c 0,7.40062 -5.99938,13.4 -13.4,13.4 -7.40061,0 -13.4,-5.99938 -13.4,-13.4 0,-7.40061 5.99939,-13.4 13.4,-13.4 7.40062,0 13.4,5.99939 13.4,13.4 z"
         cx="417.39999"
         cy="538.40002"
         r="13.4"
         id="circle144" />
      <g
         id="g146">
        <polygon
           style="fill:#ffffff"
           points="422.6,538.5 422.6,532.7 415.9,533.7 415.9,538.5 "
           id="polygon148" />
        <polygon
           style="fill:#ffffff"
           points="415.5,533.7 410.6,534.4 410.6,538.5 415.5,538.5 "
           id="polygon150" />
        <polygon
           style="fill:#ffffff"
           points="410.6,538.9 410.6,543.1 415.5,543.8 415.5,538.9 "
           id="polygon152" />
        <polygon
           style="fill:#ffffff"
           points="415.9,543.8 422.6,544.8 422.6,538.9 415.9,538.9 "
           id="polygon154" />
      </g>
    </g>
    <g
       transform="translate(-229.95,-6.1623419)"
       id="g197">
      <path
         style="fill:#808080"
         inkscape:connector-curvature="0"
         d="m 595,559.3 h 0.9 l 1.5,4 h -0.9 l -0.3,-0.9 h -1.5 l -0.3,0.9 h -0.9 l 1.5,-4 z m -0.1,2.5 h 1 l -0.5,-1.3 -0.5,1.3 z"
         id="path199" />
      <path
         style="fill:#808080"
         inkscape:connector-curvature="0"
         d="m 598.9,559.3 v 2.5 c 0,0.5 0.2,0.9 0.9,0.9 0.7,0 0.9,-0.4 0.9,-0.9 v -2.5 h 0.8 v 2.5 c 0,0.8 -0.3,1.6 -1.7,1.6 -1.3,0 -1.7,-0.7 -1.7,-1.6 v -2.5 h 0.8 z"
         id="path201" />
      <path
         style="fill:#808080"
         inkscape:connector-curvature="0"
         d="m 605.4,560 h -1.1 v 3.3 h -0.8 V 560 h -1.1 v -0.7 h 3.1 v 0.7 z"
         id="path203" />
      <path
         style="fill:#808080"
         inkscape:connector-curvature="0"
         d="m 608.5,563.3 -0.8,-1.4 h -0.1 -0.5 v 1.4 h -0.8 v -4 h 1.2 c 1.1,0 1.7,0.5 1.7,1.2 0,0.5 -0.2,0.9 -0.6,1.1 l 0.9,1.6 h -1 z m -1.3,-3.3 v 1.2 h 0.4 c 0.4,0 0.7,-0.2 0.7,-0.6 0,-0.4 -0.2,-0.6 -0.7,-0.6 h -0.4 z"
         id="path205" />
      <path
         style="fill:#808080"
         inkscape:connector-curvature="0"
         d="m 612.8,560 h -1.7 v 0.9 h 1.3 v 0.7 h -1.3 v 1.1 h 1.8 v 0.7 h -2.6 v -4 h 2.5 v 0.6 z"
         id="path207" />
      <path
         style="fill:#808080"
         inkscape:connector-curvature="0"
         d="m 613.9,562.4 c 0.4,0.2 0.8,0.3 1.1,0.3 0.3,0 0.5,-0.1 0.5,-0.4 0,-0.8 -1.8,-0.6 -1.8,-2 0,-0.4 0.3,-1.1 1.3,-1.1 0.4,0 0.8,0.1 1.2,0.3 l -0.2,0.6 c -0.4,-0.2 -0.7,-0.2 -1,-0.2 -0.5,0 -0.5,0.3 -0.5,0.4 0,0.7 1.9,0.7 1.9,2 0,0.8 -0.7,1.1 -1.5,1.1 -0.6,0 -0.9,-0.2 -1.4,-0.4 l 0.4,-0.6 z"
         id="path209" />
    </g>
  </g>
</svg>
