<?xml version="1.0" encoding="UTF-8" standalone="no"?>
<!-- Created with Inkscape (http://www.inkscape.org/) -->

<svg
   xmlns:dc="http://purl.org/dc/elements/1.1/"
   xmlns:cc="http://creativecommons.org/ns#"
   xmlns:rdf="http://www.w3.org/1999/02/22-rdf-syntax-ns#"
   xmlns:svg="http://www.w3.org/2000/svg"
   xmlns="http://www.w3.org/2000/svg"
   xmlns:sodipodi="http://sodipodi.sourceforge.net/DTD/sodipodi-0.dtd"
   xmlns:inkscape="http://www.inkscape.org/namespaces/inkscape"
   id="svg2"
   version="1.1"
   inkscape:version="0.48.4 r9939"
   width="1091.4213"
   height="751.78162"
   xml:space="preserve"
   sodipodi:docname="shutterstock_205888393.eps"><metadata
     id="metadata8"><rdf:RDF><cc:Work
         rdf:about=""><dc:format>image/svg+xml</dc:format><dc:type
           rdf:resource="http://purl.org/dc/dcmitype/StillImage" /><dc:title></dc:title></cc:Work></rdf:RDF></metadata><defs
     id="defs6" /><sodipodi:namedview
     pagecolor="#ffffff"
     bordercolor="#666666"
     borderopacity="1"
     objecttolerance="10"
     gridtolerance="10"
     guidetolerance="10"
     inkscape:pageopacity="0"
     inkscape:pageshadow="2"
     inkscape:window-width="1855"
     inkscape:window-height="1056"
     id="namedview4"
     showgrid="false"
     fit-margin-top="0"
     fit-margin-left="0"
     fit-margin-right="0"
     fit-margin-bottom="0"
     inkscape:zoom="0.55361093"
     inkscape:cx="-142.51411"
     inkscape:cy="180.6116"
     inkscape:window-x="65"
     inkscape:window-y="24"
     inkscape:window-maximized="1"
     inkscape:current-layer="g10" /><g
     id="g10"
     inkscape:groupmode="layer"
     inkscape:label="ink_ext_XXXXXX"
     transform="matrix(1.25,0,0,-1.25,0,1091.4213)"><path
       inkscape:connector-curvature="0"
       id="path14"
       style="fill:#2c6b98;fill-opacity:1;fill-rule:evenodd;stroke:none"
       d="m 0,271.93133 873.137,0 0,601.20567 -873.137,0 0,-601.20567" /><path
       inkscape:connector-curvature="0"
       id="path16"
       style="fill:#fbca8e;fill-opacity:1;fill-rule:evenodd;stroke:none"
       d="m 235.185,515.724 0,-130.081 c 0,-8.168 -6.89,-8.379 -6.89,-20.348 l -10e-4,-73.105 -69.426,0 -0.001,66.833 c 0,9.817 -6.208,14.083 -11.944,19.328 l -36.087,32.993 -0.001,46.275 c 14.442,0.016 22.762,-8.033 22.762,-21.73 l -0.001,-10.704 8.838,-5.621 -0.001,96.021 92.752,0.139 0,0" /><path
       inkscape:connector-curvature="0"
       id="path18"
       style="fill:#eebb75;fill-opacity:1;fill-rule:evenodd;stroke:none"
       d="m 110.834,457.507 10e-4,0.112 c 14.442,0.016 22.762,-8.033 22.762,-21.73 l -0.001,-10.704 8.829,-5.617 10e-4,-0.209 0,-4.926 -15.688,9.224 0,17.301 c -0.03,9.663 -7.93,14.921 -15.904,16.549 l 0,0" /><path
       inkscape:connector-curvature="0"
       id="path20"
       style="fill:#fcd7aa;fill-opacity:1;fill-rule:evenodd;stroke:none"
       d="m 110.834,437.22 0.002,17.482 c 4.968,-1.63 7.728,-5.742 7.728,-11.729 l 0,-5.753 -7.73,0 0,0" /><path
       inkscape:connector-curvature="0"
       id="path22"
       style="fill:#fddcb8;fill-opacity:1;fill-rule:evenodd;stroke:none"
       d="m 110.834,437.22 0.002,17.482 c 0.047,-0.016 0.095,-0.032 0.142,-0.048 2.566,-2.558 3.94,-6.261 3.94,-10.914 l 0,-6.52 -4.084,0 0,0" /><path
       inkscape:connector-curvature="0"
       id="path24"
       style="fill:#eebb75;fill-opacity:1;fill-rule:evenodd;stroke:none"
       d="m 235.185,431.294 0,-45.651 c -0.001,-7.862 -6.379,-8.353 -6.86,-19.045 l 0,0.026 c -0.019,-0.426 -0.03,-0.869 -0.03,-1.329 l -10e-4,-60.508 c -3.564,-0.794 -6.114,-1.743 -6.812,-2.939 l 0,69.828 c 0.06,9.146 6.716,10.397 6.843,17.653 l 0,44.7 6.86,-2.735 0,0" /><path
       inkscape:connector-curvature="0"
       id="path26"
       style="fill:#ffffff;fill-opacity:1;fill-rule:evenodd;stroke:none"
       d="m 237.407,341.98 -87.675,0 0,-45.739 87.675,0 0,45.739 0,0" /><path
       inkscape:connector-curvature="0"
       id="path28"
       style="fill:#e9e9e9;fill-opacity:1;fill-rule:evenodd;stroke:none"
       d="m 237.407,341.98 -15.925,0 0,-45.739 15.925,0 0,45.739 0,0" /><path
       inkscape:connector-curvature="0"
       id="path30"
       style="fill:#d1d313;fill-opacity:1;fill-rule:evenodd;stroke:none"
       d="m 246.361,313.352 -105.581,0 0,-41.64029 105.581,0 0,41.64029" /><path
       inkscape:connector-curvature="0"
       id="path32"
       style="fill:#adb313;fill-opacity:1;fill-rule:evenodd;stroke:none"
       d="m 246.361,313.352 -24.87,0 0,-41.47678 24.87,0 0,41.47678" /><path
       inkscape:connector-curvature="0"
       id="path34"
       style="fill:#d3d2d2;fill-opacity:1;fill-rule:evenodd;stroke:none"
       d="m 229.269,332.438 c -2.6,0 -4.722,-2.124 -4.722,-4.722 0,-2.6 2.122,-4.721 4.722,-4.721 2.598,0 4.721,2.122 4.721,4.722 0,2.597 -2.123,4.72 -4.721,4.721 l 0,0" /><path
       inkscape:connector-curvature="0"
       id="path36"
       style="fill:#59a9cc;fill-opacity:1;fill-rule:evenodd;stroke:none"
       d="m 260.627,419.534 -155.925,0 c -3.469,0 -6.309,2.84 -6.3082,6.309 l -8e-4,88.695 c 0,3.47 2.839,6.31 6.309,6.31 l 155.925,0 c 3.469,0 6.309,-2.84 6.309,-6.31 l 0,-88.695 c 0,-3.469 -2.84,-6.309 -6.309,-6.309 l 0,0" /><path
       inkscape:connector-curvature="0"
       id="path38"
       style="fill:#ffffff;fill-opacity:1;fill-rule:evenodd;stroke:none"
       d="m 241.423,428.323 -126.437,0 0,83.735 126.438,10e-4 -0.001,-83.736 0,0" /><path
       inkscape:connector-curvature="0"
       id="path40"
       style="fill:#488fb1;fill-opacity:1;fill-rule:evenodd;stroke:none"
       d="m 248.294,460.038 0,20.305 11.697,0 0,-20.305 -11.697,0 0,0" /><path
       inkscape:connector-curvature="0"
       id="path42"
       style="fill:#fbca8e;fill-opacity:1;fill-rule:evenodd;stroke:none"
       d="m 235.193,527.221 0,-8.387 c -0.002,-5.167 -4.23,-9.396 -9.398,-9.397 l 0,0 c -5.17,0 -9.399,4.23 -9.399,9.395 l 0,2.574 -10e-4,5.816 c 10e-4,5.166 4.23,9.396 9.4,9.396 l 0,0 c 5.166,-0.002 9.398,-4.231 9.398,-9.397 l 0,0 z m -92.752,-10.422 c 0,-5.168 4.227,-9.395 9.397,-9.395 l 0,0 c 5.168,0 9.397,4.227 9.396,9.397 l 0.002,10.681 0,4.606 c 0,5.17 -4.23,9.397 -9.398,9.397 l 0,0 c -5.17,0 -9.397,-4.228 -9.397,-9.396 l 0,-15.29 z m 24.651,-5.294 c 0,-5.169 4.231,-9.398 9.399,-9.397 l 0,0 c 5.168,-10e-4 9.397,4.228 9.397,9.397 l 0,25.879 c 0,5.168 -4.229,9.397 -9.398,9.398 l 0,0 c -5.168,-0.001 -9.398,-4.229 -9.398,-9.399 l 0,-25.878 z m 24.652,2.049 c 0,-5.169 4.229,-9.397 9.398,-9.398 l 0,0 c 5.171,0.002 9.397,4.232 9.397,9.397 l 0,11.095 0,0 0,7.853 c 0,5.167 -4.227,9.396 -9.397,9.397 l 0,0 c -5.169,-10e-4 -9.398,-4.229 -9.398,-9.398 l 0,-18.946" /><path
       inkscape:connector-curvature="0"
       id="path44"
       style="fill:#eebb75;fill-opacity:1;fill-rule:evenodd;stroke:none"
       d="m 235.193,527.221 0,-8.387 c -0.002,-4.289 -2.914,-7.932 -6.861,-9.045 l 0,26.477 c 3.947,-1.115 6.859,-4.757 6.861,-9.045 l 0,0 z m -31.515,-22.713 c 3.947,1.113 6.861,4.755 6.861,9.045 l 0,11.095 0,0 0,7.853 c -10e-4,4.29 -2.913,7.932 -6.862,9.046 l 0.001,-37.039 0,0 z m -24.635,-2.045 c 0.006,10e-4 0.011,0.002 0.016,0.003 3.93,1.125 6.829,4.76 6.829,9.039 l 0,25.879 c 0,4.279 -2.899,7.914 -6.829,9.039 -0.005,10e-4 -0.011,0.002 -0.014,0.003 l 0,-21.778 -10e-4,0 -0.001,-22.185 0,0 z m -24.673,38.674 c 3.949,-1.112 6.866,-4.757 6.866,-9.049 l 0,-4.606 -0.002,-10.681 c 0.002,-4.293 -2.916,-7.937 -6.864,-9.049 l 0,33.385 0,0" /><path
       inkscape:connector-curvature="0"
       id="path46"
       style="fill:#fcd7aa;fill-opacity:1;fill-rule:evenodd;stroke:none"
       d="m 201.166,506.124 0,0 c -4.006,0 -7.793,3.311 -7.284,7.284 l 0.563,4.389 c 1.227,9.573 12.216,9.574 13.443,10e-4 l 0.563,-4.389 c 0.51,-3.975 -3.278,-7.286 -7.285,-7.285 l 0,0" /><path
       inkscape:connector-curvature="0"
       id="path48"
       style="fill:#fddcb8;fill-opacity:1;fill-rule:evenodd;stroke:none"
       d="m 200.707,506.138 c -3.832,0.241 -7.315,3.448 -6.826,7.271 l 0.564,4.389 c 0.297,2.317 1.168,4.07 2.332,5.266 2.674,-0.486 5.129,-2.846 5.673,-7.084 l 0.563,-4.388 c 0.276,-2.153 -0.708,-4.111 -2.306,-5.454 l 0,0" /><path
       inkscape:connector-curvature="0"
       id="path50"
       style="fill:#fcd7aa;fill-opacity:1;fill-rule:evenodd;stroke:none"
       d="m 176.475,503.881 0,0 c -4.008,0 -7.794,3.31 -7.285,7.285 l 0.562,4.388 c 1.228,9.573 12.217,9.574 13.445,0 l 0.562,-4.388 c 0.51,-3.974 -3.278,-7.285 -7.284,-7.285 l 0,0" /><path
       inkscape:connector-curvature="0"
       id="path52"
       style="fill:#fddcb8;fill-opacity:1;fill-rule:evenodd;stroke:none"
       d="m 176.016,503.896 c -3.833,0.24 -7.316,3.447 -6.827,7.27 l 0.565,4.389 c 0.296,2.316 1.166,4.07 2.33,5.265 2.675,-0.486 5.131,-2.844 5.675,-7.082 l 0.562,-4.389 c 0.276,-2.153 -0.708,-4.111 -2.305,-5.453 l 0,0" /><path
       inkscape:connector-curvature="0"
       id="path54"
       style="fill:#fcd7aa;fill-opacity:1;fill-rule:evenodd;stroke:none"
       d="m 151.843,509.461 0,0 c -4.006,0 -7.793,3.311 -7.284,7.285 l 0.562,4.389 c 1.227,9.572 12.217,9.574 13.444,0 l 0.564,-4.389 c 0.508,-3.974 -3.279,-7.285 -7.286,-7.285 l 0,0" /><path
       inkscape:connector-curvature="0"
       id="path56"
       style="fill:#fddcb8;fill-opacity:1;fill-rule:evenodd;stroke:none"
       d="m 151.385,509.476 c -3.833,0.24 -7.316,3.448 -6.826,7.27 l 0.562,4.389 c 0.299,2.317 1.168,4.07 2.332,5.266 2.674,-0.485 5.131,-2.845 5.674,-7.083 l 0.563,-4.388 c 0.276,-2.154 -0.708,-4.112 -2.305,-5.454 l 0,0" /><path
       inkscape:connector-curvature="0"
       id="path58"
       style="fill:#fcd7aa;fill-opacity:1;fill-rule:evenodd;stroke:none"
       d="m 225.798,511.215 0,0 c -4.006,0 -7.794,3.311 -7.284,7.285 l 0.563,4.389 c 1.228,9.573 12.216,9.574 13.444,0 l 0.563,-4.389 c 0.509,-3.973 -3.279,-7.284 -7.286,-7.285 l 0,0" /><path
       inkscape:connector-curvature="0"
       id="path60"
       style="fill:#fddcb8;fill-opacity:1;fill-rule:evenodd;stroke:none"
       d="m 225.34,511.23 c -3.833,0.24 -7.315,3.448 -6.827,7.27 l 0.564,4.389 c 0.297,2.318 1.167,4.071 2.332,5.266 2.674,-0.485 5.13,-2.845 5.673,-7.083 l 0.564,-4.388 c 0.275,-2.154 -0.708,-4.111 -2.306,-5.454 l 0,0" /><path
       inkscape:connector-curvature="0"
       id="path62"
       style="fill:#fbca8e;fill-opacity:1;fill-rule:evenodd;stroke:none"
       d="m 143.297,381.666 -32.461,29.678 -0.001,46.275 c 14.442,0.016 22.762,-8.033 22.762,-21.73 l -0.001,-10.704 8.838,-5.621 10.396,-5.175 0.051,-9.927 -9.584,-22.796 0,0" /><path
       inkscape:connector-curvature="0"
       id="path64"
       style="fill:#eebb75;fill-opacity:1;fill-rule:evenodd;stroke:none"
       d="m 110.835,457.507 0,0.112 c 14.442,0.016 22.762,-8.033 22.762,-21.73 l -0.001,-10.704 8.83,-5.616 0,-5.136 -15.688,9.224 0,17.301 c -0.03,9.663 -7.93,14.921 -15.903,16.549 l 0,0" /><path
       inkscape:connector-curvature="0"
       id="path66"
       style="fill:#fcd7aa;fill-opacity:1;fill-rule:evenodd;stroke:none"
       d="m 110.834,437.22 10e-4,17.483 c 4.969,-1.631 7.729,-5.743 7.729,-11.73 l 0,-5.753 -7.73,0 0,0" /><path
       inkscape:connector-curvature="0"
       id="path68"
       style="fill:#fddcb8;fill-opacity:1;fill-rule:evenodd;stroke:none"
       d="m 110.834,437.22 10e-4,17.483 c 0.048,-0.017 0.096,-0.033 0.143,-0.049 2.566,-2.558 3.94,-6.261 3.94,-10.914 l 0,-6.52 -4.084,0 0,0" /><path
       inkscape:connector-curvature="0"
       id="path70"
       style="fill:#eebb75;fill-opacity:1;fill-rule:evenodd;stroke:none"
       d="m 142.424,414.434 c 32.093,2.629 51.706,-6.052 58.346,-27.216 -4.504,23.465 -21.197,36.553 -58.348,32.35 l 0.002,-5.134 0,0" /><path
       inkscape:connector-curvature="0"
       id="path72"
       style="fill:#488fb1;fill-opacity:1;fill-rule:evenodd;stroke:none"
       d="m 106.583,466.486 c -2.04,0 -3.704,1.664 -3.704,3.705 0,2.04 1.664,3.705 3.705,3.704 2.039,0 3.704,-1.663 3.704,-3.704 0,-2.041 -1.665,-3.705 -3.705,-3.705 l 0,0" /><path
       inkscape:connector-curvature="0"
       id="path74"
       style="fill:#2c6b98;fill-opacity:1;fill-rule:evenodd;stroke:none"
       d="m 106.584,467.922 c -1.25,0 -2.269,1.019 -2.269,2.269 0,1.249 1.019,2.268 2.269,2.269 1.249,-10e-4 2.268,-1.019 2.268,-2.269 0,-1.25 -1.019,-2.269 -2.268,-2.269 l 0,0" /><path
       inkscape:connector-curvature="0"
       id="path136"
       style="fill:#fbca8e;fill-opacity:1;fill-rule:evenodd;stroke:none"
       d="m 390.695,384.048 130.08,0 c 8.17,0 8.379,6.891 20.348,6.891 l 73.106,0 0,69.427 -66.833,0 c -9.816,0 -14.083,6.208 -19.328,11.944 l -32.992,36.087 -46.275,0 c -0.016,-14.442 8.031,-22.761 21.728,-22.761 l 10.705,0 5.621,-8.837 -96.021,0 -0.139,-92.751 0,0" /><path
       inkscape:connector-curvature="0"
       id="path138"
       style="fill:#eebb75;fill-opacity:1;fill-rule:evenodd;stroke:none"
       d="m 448.912,508.398 -0.111,-0.001 c -0.016,-14.442 8.031,-22.761 21.728,-22.761 l 10.705,0 5.618,-8.829 0.207,0 4.927,0 -9.224,15.688 -17.301,0 c -9.662,0.03 -14.92,7.93 -16.549,15.903 l 0,0" /><path
       inkscape:connector-curvature="0"
       id="path140"
       style="fill:#fcd7aa;fill-opacity:1;fill-rule:evenodd;stroke:none"
       d="m 469.199,508.397 -17.482,0 c 1.629,-4.968 5.742,-7.729 11.728,-7.729 l 5.754,10e-4 0,7.728" /><path
       inkscape:connector-curvature="0"
       id="path142"
       style="fill:#fddcb8;fill-opacity:1;fill-rule:evenodd;stroke:none"
       d="m 469.199,508.397 -17.482,0 c 0.015,-0.047 0.033,-0.095 0.049,-0.142 2.556,-2.566 6.259,-3.939 10.914,-3.939 l 6.519,0 0,4.081" /><path
       inkscape:connector-curvature="0"
       id="path144"
       style="fill:#eebb75;fill-opacity:1;fill-rule:evenodd;stroke:none"
       d="m 475.125,384.048 45.65,0 c 7.862,10e-4 8.354,6.379 19.045,6.859 l -0.025,0 c 0.426,0.02 0.869,0.032 1.328,0.032 l 60.51,0 c 0.793,3.564 1.742,6.114 2.937,6.811 l -69.826,0 c -9.146,-0.059 -10.398,-6.715 -17.654,-6.843 l -44.699,0 2.734,-6.859 0,0" /><path
       inkscape:connector-curvature="0"
       id="path146"
       style="fill:#ffffff;fill-opacity:1;fill-rule:evenodd;stroke:none"
       d="m 564.439,381.826 0,87.674 45.739,0 0,-87.675 -45.739,0.001 0,0" /><path
       inkscape:connector-curvature="0"
       id="path148"
       style="fill:#e9e9e9;fill-opacity:1;fill-rule:evenodd;stroke:none"
       d="m 564.439,381.826 0,15.924 45.739,10e-4 0,-15.926 -45.739,0.001 0,0" /><path
       inkscape:connector-curvature="0"
       id="path150"
       style="fill:#ee2830;fill-opacity:1;fill-rule:evenodd;stroke:none"
       d="m 593.066,372.872 0,105.58 280.071,0 0,-105.58 -280.071,0 0,0" /><path
       inkscape:connector-curvature="0"
       id="path152"
       style="fill:#e3182a;fill-opacity:1;fill-rule:evenodd;stroke:none"
       d="m 593.066,372.872 0,24.869 280.071,0 0,-24.869 -280.071,0 0,0" /><path
       inkscape:connector-curvature="0"
       id="path154"
       style="fill:#d3d2d2;fill-opacity:1;fill-rule:evenodd;stroke:none"
       d="m 573.982,389.964 c 0,2.599 2.122,4.722 4.721,4.722 2.6,0 4.721,-2.122 4.721,-4.722 0,-2.599 -2.121,-4.721 -4.721,-4.721 -2.599,0 -4.721,2.122 -4.721,4.721 l 0,0" /><path
       inkscape:connector-curvature="0"
       id="path156"
       style="fill:#59a9cc;fill-opacity:1;fill-rule:evenodd;stroke:none"
       d="m 486.885,358.606 0,155.924 c 0,3.47 -2.84,6.309 -6.309,6.309 l -88.695,0 c -3.47,0 -6.309,-2.839 -6.309,-6.309 l 0,-155.924 c 0,-3.469 2.839,-6.309 6.309,-6.309 l 88.695,0 c 3.469,0 6.309,2.839 6.309,6.309 l 0,0" /><path
       inkscape:connector-curvature="0"
       id="path158"
       style="fill:#ffffff;fill-opacity:1;fill-rule:evenodd;stroke:none"
       d="m 478.096,377.809 0,126.437 -83.735,0 0,-126.437 83.735,0 0,0" /><path
       inkscape:connector-curvature="0"
       id="path160"
       style="fill:#488fb1;fill-opacity:1;fill-rule:evenodd;stroke:none"
       d="m 446.381,370.939 -20.305,0 0,-11.697 20.305,0 0,11.697" /><path
       inkscape:connector-curvature="0"
       id="path162"
       style="fill:#fbca8e;fill-opacity:1;fill-rule:evenodd;stroke:none"
       d="m 379.198,384.04 2.573,0 5.815,0 c 5.166,10e-4 9.395,4.231 9.397,9.398 l 0,0 c -10e-4,5.169 -4.231,9.399 -9.397,9.399 l -2.573,0 -5.815,0 c -5.166,0 -9.397,-4.23 -9.397,-9.399 l 0,0 c 0.002,-5.167 4.231,-9.398 9.397,-9.398 l 0,0 z m 10.421,92.751 c 5.169,0 9.396,-4.226 9.396,-9.396 l 0,0 c 0.001,-5.168 -4.227,-9.397 -9.397,-9.397 l -10.682,-10e-4 -4.605,0 c -5.17,0 -9.397,4.23 -9.397,9.398 l 0,0 c 0,5.17 4.228,9.396 9.396,9.396 l 15.289,0 0,0 z m 5.295,-24.651 c 5.168,0 9.397,-4.23 9.397,-9.398 l 0,0 c 0,-5.168 -4.228,-9.397 -9.397,-9.397 l -25.879,0 c -5.168,0 -9.397,4.229 -9.398,9.397 l 0,0 c 10e-4,5.168 4.229,9.398 9.399,9.398 l 25.878,0 0,0 z m -2.049,-24.651 c 5.168,0 9.397,-4.229 9.398,-9.398 l 0,0 c -10e-4,-5.171 -4.231,-9.398 -9.397,-9.398 l -11.095,0 -7.853,0 c -5.167,0 -9.396,4.228 -9.397,9.398 l 0,0 c 10e-4,5.169 4.229,9.398 9.398,9.398 l 18.946,0 0,0" /><path
       inkscape:connector-curvature="0"
       id="path164"
       style="fill:#eebb75;fill-opacity:1;fill-rule:evenodd;stroke:none"
       d="m 379.198,384.04 2.573,0 5.815,0 c 4.288,10e-4 7.931,2.914 9.044,6.86 l -26.477,0 c 1.115,-3.946 4.757,-6.858 9.045,-6.86 l 0,0 z m 22.714,31.515 c -1.114,-3.949 -4.756,-6.862 -9.046,-6.862 l -11.095,0 -7.853,0 c -4.29,0.001 -7.932,2.913 -9.046,6.862 l 37.04,0 0,0 z m 2.045,24.634 c -0.002,-0.005 -0.003,-0.011 -0.004,-0.015 -1.124,-3.931 -4.76,-6.829 -9.039,-6.829 l -25.879,0 c -4.279,0 -7.914,2.898 -9.039,6.829 -10e-4,0.005 -0.002,0.01 -0.003,0.015 l 21.778,0 0,0 22.186,0 0,0 z m -38.675,24.674 c 1.113,-3.949 4.756,-6.866 9.049,-6.866 l 4.605,0 0,0 10.682,10e-4 c 4.293,-10e-4 7.936,2.916 9.049,6.865 l -33.385,0 0,0" /><path
       inkscape:connector-curvature="0"
       id="path166"
       style="fill:#fcd7aa;fill-opacity:1;fill-rule:evenodd;stroke:none"
       d="m 400.295,418.066 0,0 c 0,4.007 -3.311,7.794 -7.284,7.285 l -4.39,-0.564 c -9.573,-1.226 -9.574,-12.216 0,-13.442 l 4.389,-0.564 c 3.975,-0.509 7.285,3.279 7.285,7.285 l 0,0" /><path
       inkscape:connector-curvature="0"
       id="path168"
       style="fill:#fddcb8;fill-opacity:1;fill-rule:evenodd;stroke:none"
       d="m 400.281,418.525 c -0.24,3.832 -3.448,7.316 -7.271,6.827 l -4.389,-0.564 c -2.317,-0.298 -4.07,-1.168 -5.266,-2.332 0.486,-2.675 2.846,-5.13 7.084,-5.674 l 4.388,-0.562 c 2.153,-0.277 4.112,0.708 5.454,2.305 l 0,0" /><path
       inkscape:connector-curvature="0"
       id="path170"
       style="fill:#fcd7aa;fill-opacity:1;fill-rule:evenodd;stroke:none"
       d="m 402.538,442.758 0,0 c 0,4.008 -3.311,7.794 -7.284,7.285 l -4.389,-0.563 c -9.573,-1.226 -9.574,-12.217 0,-13.444 l 4.389,-0.562 c 3.973,-0.51 7.284,3.277 7.284,7.284 l 0,0" /><path
       inkscape:connector-curvature="0"
       id="path172"
       style="fill:#fddcb8;fill-opacity:1;fill-rule:evenodd;stroke:none"
       d="m 402.524,443.217 c -0.24,3.833 -3.448,7.315 -7.27,6.826 l -4.39,-0.563 c -2.317,-0.297 -4.069,-1.167 -5.266,-2.332 0.486,-2.674 2.846,-5.13 7.084,-5.674 l 4.388,-0.563 c 2.153,-0.276 4.112,0.709 5.454,2.306 l 0,0" /><path
       inkscape:connector-curvature="0"
       id="path174"
       style="fill:#fcd7aa;fill-opacity:1;fill-rule:evenodd;stroke:none"
       d="m 396.957,467.389 0,0 c 0,4.007 -3.311,7.794 -7.284,7.285 l -4.389,-0.563 c -9.573,-1.227 -9.575,-12.216 0,-13.443 l 4.389,-0.563 c 3.974,-0.509 7.284,3.277 7.284,7.284 l 0,0" /><path
       inkscape:connector-curvature="0"
       id="path176"
       style="fill:#fddcb8;fill-opacity:1;fill-rule:evenodd;stroke:none"
       d="m 396.943,467.848 c -0.24,3.832 -3.448,7.316 -7.271,6.826 l -4.388,-0.563 c -2.317,-0.297 -4.071,-1.168 -5.266,-2.331 0.486,-2.675 2.845,-5.131 7.083,-5.675 l 4.388,-0.563 c 2.154,-0.275 4.112,0.709 5.454,2.306 l 0,0" /><path
       inkscape:connector-curvature="0"
       id="path178"
       style="fill:#fcd7aa;fill-opacity:1;fill-rule:evenodd;stroke:none"
       d="m 395.204,393.435 0,0 c 0,4.006 -3.311,7.794 -7.285,7.284 l -4.39,-0.564 c -9.572,-1.227 -9.572,-12.216 10e-4,-13.443 l 4.389,-0.562 c 3.973,-0.511 7.284,3.277 7.285,7.285 l 0,0" /><path
       inkscape:connector-curvature="0"
       id="path180"
       style="fill:#fddcb8;fill-opacity:1;fill-rule:evenodd;stroke:none"
       d="m 395.189,393.893 c -0.24,3.833 -3.448,7.315 -7.27,6.827 l -4.39,-0.565 c -2.316,-0.296 -4.07,-1.167 -5.265,-2.331 0.486,-2.674 2.845,-5.131 7.083,-5.674 l 4.389,-0.563 c 2.152,-0.275 4.11,0.708 5.453,2.306 l 0,0" /><path
       inkscape:connector-curvature="0"
       id="path182"
       style="fill:#fbca8e;fill-opacity:1;fill-rule:evenodd;stroke:none"
       d="m 524.754,475.936 -29.678,32.461 -46.275,0 c -0.016,-14.442 8.031,-22.761 21.728,-22.761 l 10.705,0 5.621,-8.837 5.176,-10.395 9.926,-0.052 22.797,9.584 0,0" /><path
       inkscape:connector-curvature="0"
       id="path184"
       style="fill:#eebb75;fill-opacity:1;fill-rule:evenodd;stroke:none"
       d="m 448.912,508.397 -0.111,0 c -0.016,-14.442 8.031,-22.761 21.728,-22.761 l 10.705,0 5.616,-8.829 5.136,0 -9.224,15.688 -17.301,0 c -9.662,0.03 -14.92,7.93 -16.549,15.902 l 0,0" /><path
       inkscape:connector-curvature="0"
       id="path186"
       style="fill:#fcd7aa;fill-opacity:1;fill-rule:evenodd;stroke:none"
       d="m 469.199,508.397 -17.482,0 c 1.629,-4.968 5.742,-7.729 11.728,-7.729 l 5.754,0 0,7.729" /><path
       inkscape:connector-curvature="0"
       id="path188"
       style="fill:#fddcb8;fill-opacity:1;fill-rule:evenodd;stroke:none"
       d="m 469.199,508.397 -17.482,0 c 0.015,-0.047 0.033,-0.095 0.049,-0.142 2.556,-2.566 6.259,-3.939 10.914,-3.939 l 6.519,0 0,4.081" /><path
       inkscape:connector-curvature="0"
       id="path190"
       style="fill:#eebb75;fill-opacity:1;fill-rule:evenodd;stroke:none"
       d="m 491.984,476.808 c -2.627,-32.093 6.053,-51.706 27.219,-58.345 -23.467,4.503 -36.555,21.197 -32.351,58.348 l 5.132,-0.003 0,0" /><path
       inkscape:connector-curvature="0"
       id="path192"
       style="fill:#488fb1;fill-opacity:1;fill-rule:evenodd;stroke:none"
       d="m 439.934,512.649 c 0,2.04 -1.664,3.705 -3.706,3.705 -2.04,0 -3.705,-1.665 -3.705,-3.705 0,-2.04 1.665,-3.705 3.705,-3.705 2.042,0 3.706,1.665 3.706,3.705 l 0,0" /><path
       inkscape:connector-curvature="0"
       id="path194"
       style="fill:#2c6b98;fill-opacity:1;fill-rule:evenodd;stroke:none"
       d="m 438.496,512.649 c 0,1.25 -1.019,2.269 -2.268,2.269 -1.249,0 -2.269,-1.019 -2.269,-2.269 0,-1.249 1.02,-2.269 2.269,-2.269 1.249,0 2.268,1.02 2.268,2.269 l 0,0" /><path
       inkscape:connector-curvature="0"
       id="path196"
       style="fill:#fbca8e;fill-opacity:1;fill-rule:evenodd;stroke:none"
       d="m 482.441,653.237 -130.08,0 c -8.168,0 -8.379,6.89 -20.347,6.89 l -73.106,0 0,69.428 66.833,0 c 9.817,0 14.084,6.207 19.328,11.943 l 32.992,36.088 46.276,0 c 0.016,-14.441 -8.032,-22.761 -21.729,-22.761 l -10.705,0 -5.622,-8.837 96.022,0 0.138,-92.751 0,0" /><path
       inkscape:connector-curvature="0"
       id="path198"
       style="fill:#eebb75;fill-opacity:1;fill-rule:evenodd;stroke:none"
       d="m 424.226,777.587 0.111,-10e-4 c 0.016,-14.441 -8.032,-22.761 -21.729,-22.761 l -10.705,0 -5.616,-8.829 -0.209,0 -4.927,0 9.225,15.688 17.3,0 c 9.663,0.029 14.921,7.93 16.55,15.903 l 0,0" /><path
       inkscape:connector-curvature="0"
       id="path200"
       style="fill:#fcd7aa;fill-opacity:1;fill-rule:evenodd;stroke:none"
       d="m 403.938,777.586 17.482,0 c -1.629,-4.968 -5.742,-7.729 -11.729,-7.729 l -5.753,0 0,7.729" /><path
       inkscape:connector-curvature="0"
       id="path202"
       style="fill:#fddcb8;fill-opacity:1;fill-rule:evenodd;stroke:none"
       d="m 403.938,777.586 17.482,0 c -0.016,-0.047 -0.032,-0.095 -0.049,-0.143 -2.557,-2.566 -6.26,-3.939 -10.913,-3.939 l -6.52,0 0,4.082" /><path
       inkscape:connector-curvature="0"
       id="path204"
       style="fill:#eebb75;fill-opacity:1;fill-rule:evenodd;stroke:none"
       d="m 398.013,653.237 -45.652,0 c -7.861,0.001 -8.353,6.379 -19.044,6.86 l 0.026,0 c -0.427,0.018 -0.87,0.03 -1.329,0.03 l -60.509,0 c -0.794,3.564 -1.743,6.114 -2.939,6.812 l 69.828,0 c 9.146,-0.06 10.397,-6.715 17.653,-6.843 l 44.7,0 -2.734,-6.859 0,0" /><path
       inkscape:connector-curvature="0"
       id="path206"
       style="fill:#ffffff;fill-opacity:1;fill-rule:evenodd;stroke:none"
       d="m 308.697,651.014 0,87.675 -45.738,0 0,-87.675 45.738,0 0,0" /><path
       inkscape:connector-curvature="0"
       id="path208"
       style="fill:#e9e9e9;fill-opacity:1;fill-rule:evenodd;stroke:none"
       d="m 308.697,651.014 0,15.925 -45.738,0 0,-15.925 45.738,0 0,0" /><path
       inkscape:connector-curvature="0"
       id="path210"
       style="fill:#fab60a;fill-opacity:1;fill-rule:evenodd;stroke:none"
       d="m 280.071,642.061 0,105.58 -280.071,0 0,-105.581 280.071,0.001 0,0" /><path
       inkscape:connector-curvature="0"
       id="path212"
       style="fill:#f68b11;fill-opacity:1;fill-rule:evenodd;stroke:none"
       d="m 280.071,642.061 0,24.869 -280.071,0 0,-24.87 280.071,0.001 0,0" /><path
       inkscape:connector-curvature="0"
       id="path214"
       style="fill:#d3d2d2;fill-opacity:1;fill-rule:evenodd;stroke:none"
       d="m 299.155,659.152 c 0,2.6 -2.122,4.722 -4.721,4.722 -2.599,0 -4.721,-2.121 -4.721,-4.722 0,-2.598 2.122,-4.72 4.722,-4.72 2.598,0 4.72,2.122 4.72,4.72 l 0,0" /><path
       inkscape:connector-curvature="0"
       id="path216"
       style="fill:#59a9cc;fill-opacity:1;fill-rule:evenodd;stroke:none"
       d="m 386.252,627.795 0,155.924 c 0,3.47 2.839,6.31 6.309,6.31 l 88.695,0 c 3.471,0 6.31,-2.84 6.31,-6.31 l 0,-155.924 c 0,-3.47 -2.839,-6.309 -6.31,-6.309 l -88.695,0 c -3.469,0 -6.309,2.839 -6.309,6.309 l 0,0" /><path
       inkscape:connector-curvature="0"
       id="path218"
       style="fill:#ffffff;fill-opacity:1;fill-rule:evenodd;stroke:none"
       d="m 395.041,646.998 0,126.438 83.736,0 0,-126.438 -83.736,0 0,0" /><path
       inkscape:connector-curvature="0"
       id="path220"
       style="fill:#488fb1;fill-opacity:1;fill-rule:evenodd;stroke:none"
       d="m 426.756,640.127 20.305,0 0,-11.697 -20.305,0 0,11.697" /><path
       inkscape:connector-curvature="0"
       id="path222"
       style="fill:#fbca8e;fill-opacity:1;fill-rule:evenodd;stroke:none"
       d="m 493.939,653.229 -2.574,0 0,0 -5.814,0 c -5.166,10e-4 -9.395,4.23 -9.397,9.397 l 0,0 c 0,5.17 4.231,9.399 9.397,9.399 l 2.574,0 0,0 5.814,10e-4 c 5.166,-10e-4 9.397,-4.23 9.397,-9.4 l 0,0 c -0.002,-5.167 -4.231,-9.397 -9.397,-9.397 l 0,0 z m -10.421,92.751 c -5.168,0 -9.395,-4.226 -9.397,-9.396 l 0,0 c 0,-5.168 4.229,-9.397 9.399,-9.397 l 10.681,-10e-4 0,0 4.606,0 c 5.17,0 9.396,4.229 9.396,9.398 l 0,0 c 0,5.17 -4.226,9.396 -9.396,9.396 l -15.289,0 0,0 z m -5.293,-24.651 c -5.17,0 -9.399,-4.23 -9.399,-9.399 l 0,0 c 0,-5.167 4.229,-9.396 9.397,-9.396 l 25.879,-10e-4 c 5.168,10e-4 9.398,4.23 9.398,9.398 l 0,0 c 0,5.168 -4.229,9.398 -9.398,9.398 l -25.877,0 0,0 z m 2.046,-24.651 c -5.167,0 -9.396,-4.23 -9.396,-9.398 l 0,0 c 0,-5.171 4.23,-9.398 9.396,-9.398 l 11.096,0 0,0 7.852,0 c 5.168,0 9.396,4.227 9.396,9.398 l 0,0 c 0,5.168 -4.228,9.398 -9.396,9.398 l -18.948,0 0,0" /><path
       inkscape:connector-curvature="0"
       id="path224"
       style="fill:#eebb75;fill-opacity:1;fill-rule:evenodd;stroke:none"
       d="m 493.939,653.229 -2.574,0 0,0 -5.814,0 c -4.287,10e-4 -7.93,2.914 -9.045,6.86 l 26.478,0 c -1.115,-3.946 -4.757,-6.859 -9.045,-6.86 l 0,0 z m -22.712,31.515 c 1.113,-3.948 4.755,-6.862 9.044,-6.862 l 11.096,0 0,0 7.852,0 c 4.291,0.001 7.933,2.913 9.047,6.862 l -37.039,0 0,0 z m -2.045,24.634 c 0,-0.006 0.002,-0.011 0.002,-0.015 1.125,-3.931 4.759,-6.829 9.039,-6.829 l 25.879,-10e-4 c 4.279,10e-4 7.914,2.899 9.039,6.83 0.002,0.005 0.002,0.01 0.004,0.014 l -21.778,0 0,0 -22.185,0.001 0,0 z m 38.673,24.673 c -1.113,-3.948 -4.755,-6.865 -9.048,-6.865 l -4.606,0 0,0 -10.681,10e-4 c -4.293,-10e-4 -7.938,2.916 -9.049,6.864 l 33.384,0 0,0" /><path
       inkscape:connector-curvature="0"
       id="path226"
       style="fill:#fcd7aa;fill-opacity:1;fill-rule:evenodd;stroke:none"
       d="m 472.842,687.255 0,0 c 0,4.006 3.31,7.794 7.285,7.284 l 4.389,-0.563 c 9.572,-1.226 9.574,-12.216 0,-13.443 l -4.389,-0.563 c -3.975,-0.509 -7.285,3.278 -7.285,7.285 l 0,0" /><path
       inkscape:connector-curvature="0"
       id="path228"
       style="fill:#fddcb8;fill-opacity:1;fill-rule:evenodd;stroke:none"
       d="m 472.857,687.713 c 0.239,3.833 3.448,7.316 7.27,6.827 l 4.389,-0.563 c 2.316,-0.298 4.07,-1.168 5.265,-2.332 -0.486,-2.675 -2.845,-5.13 -7.082,-5.674 l -4.388,-0.563 c -2.155,-0.276 -4.112,0.708 -5.454,2.305 l 0,0" /><path
       inkscape:connector-curvature="0"
       id="path230"
       style="fill:#fcd7aa;fill-opacity:1;fill-rule:evenodd;stroke:none"
       d="m 470.6,711.947 0,0 c 0,4.007 3.31,7.794 7.285,7.284 l 4.388,-0.562 c 9.573,-1.227 9.573,-12.217 0,-13.444 l -4.39,-0.563 c -3.973,-0.509 -7.283,3.278 -7.283,7.285 l 0,0" /><path
       inkscape:connector-curvature="0"
       id="path232"
       style="fill:#fddcb8;fill-opacity:1;fill-rule:evenodd;stroke:none"
       d="m 470.613,712.406 c 0.241,3.832 3.448,7.315 7.272,6.826 l 4.388,-0.564 c 2.317,-0.297 4.071,-1.166 5.266,-2.331 -0.486,-2.675 -2.846,-5.13 -7.084,-5.674 l -4.389,-0.563 c -2.152,-0.276 -4.111,0.709 -5.453,2.306 l 0,0" /><path
       inkscape:connector-curvature="0"
       id="path234"
       style="fill:#fcd7aa;fill-opacity:1;fill-rule:evenodd;stroke:none"
       d="m 476.18,736.578 0,0 c 0,4.006 3.31,7.793 7.285,7.285 l 4.389,-0.563 c 9.572,-1.227 9.574,-12.217 0,-13.444 l -4.389,-0.563 c -3.975,-0.509 -7.285,3.278 -7.285,7.285 l 0,0" /><path
       inkscape:connector-curvature="0"
       id="path236"
       style="fill:#fddcb8;fill-opacity:1;fill-rule:evenodd;stroke:none"
       d="m 476.195,737.037 c 0.239,3.833 3.448,7.315 7.27,6.826 l 4.389,-0.563 c 2.316,-0.298 4.07,-1.168 5.265,-2.332 -0.484,-2.674 -2.846,-5.13 -7.082,-5.674 l -4.389,-0.563 c -2.154,-0.276 -4.111,0.708 -5.453,2.306 l 0,0" /><path
       inkscape:connector-curvature="0"
       id="path238"
       style="fill:#fcd7aa;fill-opacity:1;fill-rule:evenodd;stroke:none"
       d="m 477.934,662.623 0,0 c 0,4.006 3.31,7.794 7.285,7.284 l 4.388,-0.563 c 9.573,-1.228 9.573,-12.217 0,-13.444 l -4.388,-0.562 c -3.973,-0.509 -7.285,3.278 -7.285,7.285 l 0,0" /><path
       inkscape:connector-curvature="0"
       id="path240"
       style="fill:#fddcb8;fill-opacity:1;fill-rule:evenodd;stroke:none"
       d="m 477.949,663.082 c 0.239,3.832 3.447,7.315 7.27,6.826 l 4.388,-0.564 c 2.317,-0.297 4.071,-1.167 5.266,-2.331 -0.486,-2.675 -2.844,-5.131 -7.082,-5.674 l -4.389,-0.564 c -2.154,-0.275 -4.111,0.709 -5.453,2.307 l 0,0" /><path
       inkscape:connector-curvature="0"
       id="path242"
       style="fill:#fbca8e;fill-opacity:1;fill-rule:evenodd;stroke:none"
       d="m 348.384,745.125 29.677,32.461 46.276,0 c 0.016,-14.441 -8.032,-22.761 -21.729,-22.761 l -10.705,0 -5.622,-8.837 -5.174,-10.396 -9.927,-0.052 -22.796,9.585 0,0" /><path
       inkscape:connector-curvature="0"
       id="path244"
       style="fill:#eebb75;fill-opacity:1;fill-rule:evenodd;stroke:none"
       d="m 424.226,777.586 0.111,0 c 0.016,-14.441 -8.032,-22.761 -21.729,-22.761 l -10.705,0 -5.616,-8.829 -5.136,0 9.225,15.688 17.3,0 c 9.663,0.029 14.921,7.93 16.55,15.902 l 0,0" /><path
       inkscape:connector-curvature="0"
       id="path246"
       style="fill:#fcd7aa;fill-opacity:1;fill-rule:evenodd;stroke:none"
       d="m 403.938,777.586 17.483,0 c -1.63,-4.968 -5.743,-7.729 -11.73,-7.729 l -5.753,0 0,7.729" /><path
       inkscape:connector-curvature="0"
       id="path248"
       style="fill:#fddcb8;fill-opacity:1;fill-rule:evenodd;stroke:none"
       d="m 403.938,777.586 17.483,0 c -0.017,-0.047 -0.033,-0.095 -0.05,-0.143 -2.557,-2.566 -6.26,-3.939 -10.913,-3.939 l -6.52,0 0,4.082" /><path
       inkscape:connector-curvature="0"
       id="path250"
       style="fill:#eebb75;fill-opacity:1;fill-rule:evenodd;stroke:none"
       d="m 381.152,745.996 c 2.628,-32.092 -6.052,-51.705 -27.217,-58.345 23.466,4.504 36.554,21.198 32.351,58.349 l -5.134,-0.004 0,0" /><path
       inkscape:connector-curvature="0"
       id="path312"
       style="fill:#59a9cc;fill-opacity:1;fill-rule:evenodd;stroke:none"
       d="m 443.297,601.954 c 0,-3.493 -2.85,-6.341 -6.342,-6.341 -3.493,0 -6.342,2.848 -6.342,6.341 0,3.493 2.849,6.342 6.342,6.342 3.492,0 6.342,-2.849 6.342,-6.342 l 0,0 z m 0,-30.816 c 0,-3.492 -2.85,-6.342 -6.342,-6.342 -3.493,0 -6.342,2.85 -6.342,6.342 0,3.493 2.849,6.342 6.342,6.342 3.492,0 6.342,-2.849 6.342,-6.342 l 0,0 z m 0,-30.816 c 0,-3.492 -2.85,-6.341 -6.342,-6.341 -3.493,0 -6.342,2.849 -6.342,6.341 0,3.494 2.849,6.342 6.342,6.342 3.492,0 6.342,-2.848 6.342,-6.342 l 0,0" /><path
       inkscape:connector-curvature="0"
       id="path318"
       style="fill:#59a9cc;fill-opacity:1;fill-rule:evenodd;stroke:none"
       d="m 128.798,577.477 c 3.493,0 6.342,-2.848 6.342,-6.341 0,-3.493 -2.849,-6.341 -6.342,-6.341 -3.492,0 -6.341,2.848 -6.341,6.341 0,3.493 2.849,6.341 6.341,6.341 l 0,0 z m 30.816,0 c 3.493,0 6.341,-2.848 6.341,-6.341 0,-3.493 -2.848,-6.341 -6.341,-6.341 -3.493,0 -6.341,2.848 -6.341,6.341 0,3.493 2.848,6.341 6.341,6.341 l 0,0 z m 30.816,0 c 3.492,0 6.341,-2.848 6.341,-6.341 0,-3.493 -2.849,-6.341 -6.341,-6.341 -3.493,0 -6.342,2.848 -6.342,6.341 0,3.493 2.849,6.341 6.342,6.341 l 0,0 z m 30.815,0 c 3.493,0 6.342,-2.848 6.342,-6.341 0,-3.493 -2.849,-6.341 -6.342,-6.341 -3.493,0 -6.341,2.848 -6.341,6.341 0,3.493 2.848,6.341 6.341,6.341 l 0,0 z m 30.816,0 c 3.493,0 6.342,-2.848 6.342,-6.341 0,-3.493 -2.849,-6.341 -6.342,-6.341 -3.493,0 -6.342,2.848 -6.342,6.341 0,3.493 2.849,6.341 6.342,6.341 l 0,0 z m 30.816,0 c 3.493,0 6.341,-2.848 6.341,-6.341 0,-3.493 -2.848,-6.341 -6.341,-6.341 -3.493,0 -6.342,2.848 -6.342,6.341 0,3.493 2.849,6.341 6.342,6.341 l 0,0 z m 30.816,0 c 3.492,0 6.341,-2.848 6.341,-6.341 0,-3.493 -2.849,-6.341 -6.341,-6.341 -3.493,0 -6.342,2.848 -6.342,6.341 0,3.493 2.849,6.341 6.342,6.341 l 0,0 z m 30.815,0 c 3.493,0 6.342,-2.848 6.342,-6.341 0,-3.493 -2.849,-6.341 -6.342,-6.341 -3.493,0 -6.342,2.848 -6.342,6.341 0,3.493 2.849,6.341 6.342,6.341 l 0,0 z m 30.816,0 c 3.492,0 6.341,-2.848 6.341,-6.341 0,-3.493 -2.849,-6.341 -6.341,-6.341 -3.493,0 -6.342,2.848 -6.342,6.341 0,3.493 2.849,6.341 6.342,6.341 l 0,0 z m 30.815,0 c 3.493,0 6.342,-2.848 6.342,-6.341 0,-3.493 -2.849,-6.341 -6.342,-6.341 -3.493,0 -6.341,2.848 -6.341,6.341 0,3.493 2.848,6.341 6.341,6.341 l 0,0" /><path
       inkscape:connector-curvature="0"
       id="path320"
       style="fill:#59a9cc;fill-opacity:1;fill-rule:evenodd;stroke:none"
       d="m 135.14,540.32 c 0,-3.493 -2.849,-6.341 -6.342,-6.341 -3.492,0 -6.341,2.848 -6.341,6.341 0,3.493 2.849,6.342 6.341,6.342 3.493,0 6.342,-2.849 6.342,-6.342 l 0,0" /><path
       inkscape:connector-curvature="0"
       id="path322"
       style="fill:#59a9cc;fill-opacity:1;fill-rule:evenodd;stroke:none"
       d="m 467.781,577.477 c 3.494,0 6.342,-2.848 6.342,-6.341 0,-3.493 -2.848,-6.341 -6.342,-6.341 -3.492,0 -6.342,2.848 -6.342,6.341 0,3.493 2.85,6.341 6.342,6.341 l 0,0 z m 30.817,0 c 3.492,0 6.341,-2.848 6.341,-6.341 0,-3.493 -2.849,-6.341 -6.341,-6.341 -3.493,0 -6.342,2.848 -6.342,6.341 0,3.493 2.849,6.341 6.342,6.341 l 0,0 z m 30.816,0 c 3.492,0 6.34,-2.848 6.34,-6.341 0,-3.493 -2.848,-6.341 -6.34,-6.341 -3.494,0 -6.342,2.848 -6.342,6.341 0,3.493 2.848,6.341 6.342,6.341 l 0,0" /><path
       inkscape:connector-curvature="0"
       id="path324"
       style="fill:#59a9cc;fill-opacity:1;fill-rule:evenodd;stroke:none"
       d="m 560.229,639.109 c 3.492,0 6.341,-2.849 6.341,-6.341 0,-3.493 -2.849,-6.342 -6.341,-6.342 -3.493,0 -6.342,2.849 -6.342,6.342 0,3.492 2.849,6.341 6.342,6.341 l 0,0 z m 30.816,0 c 3.492,0 6.34,-2.849 6.34,-6.341 0,-3.493 -2.848,-6.342 -6.34,-6.342 -3.494,0 -6.342,2.849 -6.342,6.342 0,3.492 2.848,6.341 6.342,6.341 l 0,0" /><path
       inkscape:connector-curvature="0"
       id="path326"
       style="fill:#59a9cc;fill-opacity:1;fill-rule:evenodd;stroke:none"
       d="m 523.07,601.952 c 0,3.492 2.85,6.341 6.342,6.341 3.494,0 6.342,-2.849 6.342,-6.341 0,-3.493 -2.848,-6.342 -6.342,-6.342 -3.492,0 -6.342,2.849 -6.342,6.342 l 0,0 z m 0,30.816 c 0,3.492 2.85,6.341 6.342,6.341 3.494,0 6.342,-2.849 6.342,-6.341 0,-3.493 -2.848,-6.342 -6.342,-6.342 -3.492,0 -6.342,2.849 -6.342,6.342 l 0,0" /><path
       inkscape:connector-curvature="0"
       id="path328"
       style="fill:#fbca8e;fill-opacity:1;fill-rule:evenodd;stroke:none"
       d="m 644.57,587.049 0,130.081 c 0,8.168 6.891,8.379 6.891,20.348 l 0,73.104 69.426,0 0,-66.832 c 0,-9.817 6.209,-14.084 11.945,-19.328 l 36.086,-32.992 0.002,-46.276 c -14.443,-0.015 -22.762,8.033 -22.762,21.729 l 0,10.705 -8.838,5.622 0,-96.022 -92.75,-0.139 0,0" /><path
       inkscape:connector-curvature="0"
       id="path330"
       style="fill:#eebb75;fill-opacity:1;fill-rule:evenodd;stroke:none"
       d="m 768.92,645.266 0,-0.112 c -14.443,-0.015 -22.762,8.033 -22.762,21.729 l 0,10.705 -8.83,5.617 0,5.135 15.688,-9.224 0,-17.302 c 0.031,-9.662 7.929,-14.919 15.904,-16.548 l 0,0" /><path
       inkscape:connector-curvature="0"
       id="path332"
       style="fill:#fcd7aa;fill-opacity:1;fill-rule:evenodd;stroke:none"
       d="m 768.92,665.553 -0.002,-17.483 c -4.967,1.63 -7.729,5.743 -7.729,11.73 l 0.002,5.753 7.729,0 0,0" /><path
       inkscape:connector-curvature="0"
       id="path334"
       style="fill:#fddcb8;fill-opacity:1;fill-rule:evenodd;stroke:none"
       d="m 768.92,665.553 -0.002,-17.483 c -0.047,0.017 -0.096,0.033 -0.143,0.05 -2.564,2.556 -3.939,6.259 -3.939,10.913 l 0,6.52 4.084,0 0,0" /><path
       inkscape:connector-curvature="0"
       id="path336"
       style="fill:#eebb75;fill-opacity:1;fill-rule:evenodd;stroke:none"
       d="m 644.568,671.479 0.002,45.651 c 0,7.861 6.379,8.353 6.86,19.044 l 0,-0.026 c 0.019,0.427 0.031,0.87 0.031,1.33 l 0,60.508 c 3.562,0.794 6.113,1.744 6.81,2.938 l 0,-69.827 c -0.058,-9.146 -6.714,-10.397 -6.841,-17.653 l 0,-44.7 -6.862,2.735 0,0" /><path
       inkscape:connector-curvature="0"
       id="path338"
       style="fill:#ffffff;fill-opacity:1;fill-rule:evenodd;stroke:none"
       d="m 642.348,760.794 87.673,0 0,45.737 -87.673,0.001 0,-45.738" /><path
       inkscape:connector-curvature="0"
       id="path340"
       style="fill:#e9e9e9;fill-opacity:1;fill-rule:evenodd;stroke:none"
       d="m 642.348,760.794 15.923,0 0,45.737 -15.923,0.001 0,-45.738" /><path
       inkscape:connector-curvature="0"
       id="path342"
       style="fill:#9d65b9;fill-opacity:1;fill-rule:evenodd;stroke:none"
       d="m 633.393,789.421 105.582,-0.001 0,83.717 -105.58,0 -0.002,-83.716 0,0" /><path
       inkscape:connector-curvature="0"
       id="path344"
       style="fill:#8842a0;fill-opacity:1;fill-rule:evenodd;stroke:none"
       d="m 633.393,789.421 24.871,0 0,83.716 -24.869,0 -0.002,-83.716 0,0" /><path
       inkscape:connector-curvature="0"
       id="path346"
       style="fill:#d3d2d2;fill-opacity:1;fill-rule:evenodd;stroke:none"
       d="m 650.486,770.336 c 2.6,0 4.721,2.123 4.721,4.721 0,2.599 -2.121,4.721 -4.723,4.721 -2.597,0 -4.72,-2.122 -4.72,-4.722 0,-2.598 2.123,-4.72 4.722,-4.72 l 0,0" /><path
       inkscape:connector-curvature="0"
       id="path348"
       style="fill:#59a9cc;fill-opacity:1;fill-rule:evenodd;stroke:none"
       d="m 619.127,683.239 155.926,0 c 3.468,0 6.308,-2.84 6.308,-6.309 l 0,-88.696 c 0,-3.47 -2.84,-6.308 -6.308,-6.308 l -155.926,0 c -3.469,0 -6.309,2.84 -6.309,6.308 l 0,88.696 c 0,3.469 2.84,6.309 6.309,6.309 l 0,0" /><path
       inkscape:connector-curvature="0"
       id="path350"
       style="fill:#ffffff;fill-opacity:1;fill-rule:evenodd;stroke:none"
       d="m 638.33,674.449 126.438,0.001 0.002,-83.735 -126.44,-10e-4 0,83.735" /><path
       inkscape:connector-curvature="0"
       id="path352"
       style="fill:#488fb1;fill-opacity:1;fill-rule:evenodd;stroke:none"
       d="m 631.461,642.734 0,-20.304 -11.697,-10e-4 0,20.305 11.697,0 0,0" /><path
       inkscape:connector-curvature="0"
       id="path354"
       style="fill:#fbca8e;fill-opacity:1;fill-rule:evenodd;stroke:none"
       d="m 644.563,575.552 0,8.387 c 0,5.167 4.228,9.396 9.396,9.398 l 0,0 c 5.17,-10e-4 9.4,-4.231 9.398,-9.398 l 0,-2.572 0.002,-5.816 c 0,-5.166 -4.23,-9.395 -9.4,-9.396 l 0,0 c -5.166,0.002 -9.396,4.231 -9.396,9.397 l 0,0 z m 92.75,10.422 c 0,5.168 -4.227,9.395 -9.397,9.395 l 0,0 c -5.168,0 -9.396,-4.227 -9.396,-9.397 l 0,-15.287 c 0,-5.171 4.228,-9.398 9.396,-9.397 l 0,0 c 5.17,0 9.397,4.228 9.397,9.396 l 0,15.29 z m -24.651,5.294 c 0,5.168 -4.23,9.398 -9.398,9.397 l 0,0 c -5.168,0.001 -9.397,-4.228 -9.397,-9.397 l 0,-25.879 c 0,-5.168 4.229,-9.397 9.397,-9.398 l 0,0 c 5.168,10e-4 9.398,4.229 9.398,9.398 l 0,25.879 z m -24.65,-2.048 c 0,5.168 -4.231,9.396 -9.399,9.397 l 0,0 c -5.172,-0.002 -9.398,-4.231 -9.398,-9.397 l 0,-11.095 0,0 0,-7.854 c 0,-5.166 4.226,-9.396 9.398,-9.396 l 0,0 c 5.168,10e-4 9.397,4.229 9.397,9.397 l 0.002,18.948 0,0" /><path
       inkscape:connector-curvature="0"
       id="path356"
       style="fill:#eebb75;fill-opacity:1;fill-rule:evenodd;stroke:none"
       d="m 644.563,575.552 0,8.387 c 0,4.29 2.912,7.931 6.859,9.045 l 0,-26.477 c -3.947,1.115 -6.859,4.757 -6.859,9.045 l 0,0 z m 31.513,22.713 c -3.947,-1.113 -6.861,-4.756 -6.861,-9.045 l 0,-11.095 0,0 0,-7.854 c 0.002,-4.289 2.914,-7.932 6.861,-9.045 l 0,37.039 z m 24.635,2.045 c -0.006,-10e-4 -0.012,-0.002 -0.016,-0.003 -3.929,-1.125 -6.828,-4.76 -6.828,-9.039 l 0,-25.879 c 0,-4.28 2.899,-7.914 6.828,-9.039 0.006,-0.002 0.01,-0.002 0.014,-0.003 l 0,21.777 0.002,10e-4 0,22.185 z m 24.674,-38.674 c -3.949,1.112 -6.865,4.757 -6.865,9.049 l 0,15.287 c -0.002,4.292 2.916,7.936 6.865,9.049 l 0,-33.385" /><path
       inkscape:connector-curvature="0"
       id="path358"
       style="fill:#fcd7aa;fill-opacity:1;fill-rule:evenodd;stroke:none"
       d="m 678.588,596.649 0,0 c 4.006,0 7.793,-3.311 7.285,-7.285 l -0.564,-4.388 c -1.227,-9.573 -12.215,-9.575 -13.444,0 l -0.562,4.388 c -0.51,3.975 3.277,7.286 7.285,7.285 l 0,0" /><path
       inkscape:connector-curvature="0"
       id="path360"
       style="fill:#fddcb8;fill-opacity:1;fill-rule:evenodd;stroke:none"
       d="m 679.047,596.635 c 3.832,-0.24 7.314,-3.448 6.826,-7.271 l -0.564,-4.389 c -0.297,-2.317 -1.166,-4.07 -2.33,-5.266 -2.676,0.486 -5.131,2.846 -5.676,7.084 l -0.563,4.388 c -0.275,2.153 0.709,4.111 2.307,5.454 l 0,0" /><path
       inkscape:connector-curvature="0"
       id="path362"
       style="fill:#fcd7aa;fill-opacity:1;fill-rule:evenodd;stroke:none"
       d="m 703.279,598.892 0,0 c 4.008,0 7.795,-3.31 7.285,-7.285 l -0.562,-4.388 c -1.227,-9.573 -12.217,-9.573 -13.445,0 l -0.563,4.388 c -0.508,3.974 3.279,7.285 7.285,7.285 l 0,0" /><path
       inkscape:connector-curvature="0"
       id="path364"
       style="fill:#fddcb8;fill-opacity:1;fill-rule:evenodd;stroke:none"
       d="m 703.738,598.877 c 3.832,-0.24 7.317,-3.447 6.826,-7.27 L 710,587.218 c -0.295,-2.317 -1.166,-4.07 -2.33,-5.266 -2.676,0.487 -5.131,2.845 -5.676,7.083 l -0.562,4.389 c -0.274,2.153 0.709,4.112 2.306,5.453 l 0,0" /><path
       inkscape:connector-curvature="0"
       id="path366"
       style="fill:#fcd7aa;fill-opacity:1;fill-rule:evenodd;stroke:none"
       d="m 727.91,593.312 0,0 c 4.008,10e-4 7.795,-3.312 7.285,-7.285 l -0.562,-4.389 c -1.227,-9.572 -12.217,-9.574 -13.444,0 l -0.564,4.389 c -0.508,3.973 3.279,7.285 7.285,7.285 l 0,0" /><path
       inkscape:connector-curvature="0"
       id="path368"
       style="fill:#fddcb8;fill-opacity:1;fill-rule:evenodd;stroke:none"
       d="m 728.369,593.297 c 3.834,-0.24 7.317,-3.448 6.826,-7.271 l -0.562,-4.388 c -0.299,-2.317 -1.168,-4.07 -2.332,-5.267 -2.674,0.486 -5.131,2.846 -5.674,7.084 l -0.563,4.388 c -0.277,2.154 0.707,4.112 2.305,5.454 l 0,0" /><path
       inkscape:connector-curvature="0"
       id="path370"
       style="fill:#fcd7aa;fill-opacity:1;fill-rule:evenodd;stroke:none"
       d="m 653.955,591.558 0,0 c 4.008,0 7.795,-3.312 7.285,-7.286 l -0.562,-4.389 c -1.229,-9.572 -12.217,-9.572 -13.446,10e-4 l -0.562,4.388 c -0.508,3.974 3.279,7.285 7.285,7.286 l 0,0" /><path
       inkscape:connector-curvature="0"
       id="path372"
       style="fill:#fddcb8;fill-opacity:1;fill-rule:evenodd;stroke:none"
       d="m 654.414,591.543 c 3.832,-0.24 7.315,-3.447 6.826,-7.271 l -0.562,-4.389 c -0.297,-2.317 -1.168,-4.07 -2.332,-5.265 -2.674,0.486 -5.131,2.845 -5.674,7.082 l -0.565,4.389 c -0.275,2.154 0.709,4.111 2.307,5.454 l 0,0" /><path
       inkscape:connector-curvature="0"
       id="path374"
       style="fill:#fbca8e;fill-opacity:1;fill-rule:evenodd;stroke:none"
       d="m 736.457,721.107 32.461,-29.677 0.002,-46.276 c -14.443,-0.015 -22.762,8.033 -22.762,21.729 l 0,10.705 -8.838,5.622 -10.396,5.174 -0.051,9.927 9.584,22.796 0,0" /><path
       inkscape:connector-curvature="0"
       id="path376"
       style="fill:#eebb75;fill-opacity:1;fill-rule:evenodd;stroke:none"
       d="m 768.92,645.266 0,-0.112 c -14.443,-0.015 -22.762,8.033 -22.762,21.729 l 0,10.705 -8.83,5.616 0,5.136 15.688,-9.225 0,-17.301 c 0.031,-9.662 7.929,-14.919 15.904,-16.548 l 0,0" /><path
       inkscape:connector-curvature="0"
       id="path378"
       style="fill:#fcd7aa;fill-opacity:1;fill-rule:evenodd;stroke:none"
       d="m 768.92,665.553 0,-17.483 c -4.969,1.63 -7.731,5.743 -7.731,11.73 l 0,5.753 7.731,0 0,0" /><path
       inkscape:connector-curvature="0"
       id="path380"
       style="fill:#fddcb8;fill-opacity:1;fill-rule:evenodd;stroke:none"
       d="m 768.92,665.553 0,-17.483 c -0.049,0.017 -0.098,0.033 -0.145,0.049 -2.564,2.557 -3.939,6.261 -3.939,10.914 l 0,6.52 4.084,0 0,0" /><path
       inkscape:connector-curvature="0"
       id="path382"
       style="fill:#eebb75;fill-opacity:1;fill-rule:evenodd;stroke:none"
       d="m 737.33,688.339 c -32.094,-2.629 -51.705,6.052 -58.346,27.216 4.504,-23.464 21.198,-36.553 58.348,-32.35 l -0.002,5.134 0,0" /><path
       inkscape:connector-curvature="0"
       id="path384"
       style="fill:#488fb1;fill-opacity:1;fill-rule:evenodd;stroke:none"
       d="m 773.172,636.287 c 2.039,0 3.703,-1.664 3.703,-3.705 0,-2.041 -1.664,-3.705 -3.705,-3.705 -2.039,0 -3.703,1.664 -3.703,3.705 0,2.041 1.664,3.705 3.705,3.705 l 0,0" /><path
       inkscape:connector-curvature="0"
       id="path386"
       style="fill:#2c6b98;fill-opacity:1;fill-rule:evenodd;stroke:none"
       d="m 773.172,634.851 c 1.248,0 2.267,-1.019 2.267,-2.269 0,-1.25 -1.019,-2.268 -2.267,-2.269 -1.252,0 -2.27,1.019 -2.27,2.269 0,1.249 1.02,2.269 2.27,2.269 l 0,0" /><path
       inkscape:connector-curvature="0"
       id="path390"
       style="fill:#59a9cc;fill-opacity:1;fill-rule:evenodd;stroke:none"
       d="m 804.797,639.109 c 3.492,0 6.342,-2.849 6.342,-6.341 0,-3.493 -2.85,-6.342 -6.342,-6.342 -3.494,0 -6.342,2.849 -6.342,6.342 0,3.492 2.848,6.341 6.342,6.341 l 0,0 z m 30.814,0 c 3.494,0 6.342,-2.849 6.342,-6.341 0,-3.493 -2.848,-6.342 -6.342,-6.342 -3.492,0 -6.341,2.849 -6.341,6.342 0,3.492 2.849,6.341 6.341,6.341 l 0,0 z m 30.817,0 c 3.492,0 6.342,-2.849 6.342,-6.341 0,-3.493 -2.85,-6.342 -6.342,-6.342 -3.492,0 -6.342,2.849 -6.342,6.342 0,3.492 2.85,6.341 6.342,6.341 l 0,0" /><path
       inkscape:connector-curvature="0"
       id="path394"
       style="fill:#59a9cc;fill-opacity:1;fill-rule:evenodd;stroke:none"
       d="m 15.4184,476.363 c 3.4921,0 6.3414,-2.849 6.3414,-6.342 0,-3.492 -2.8493,-6.341 -6.3414,-6.341 -3.493,0 -6.34184,2.849 -6.34184,6.341 0,3.493 2.84884,6.342 6.34184,6.342 l 0,0 z m 30.8156,0 c 3.4926,0 6.3414,-2.849 6.3414,-6.342 0,-3.492 -2.8488,-6.341 -6.3414,-6.341 -3.4934,0 -6.3418,2.849 -6.3418,6.341 0,3.493 2.8484,6.342 6.3418,6.342 l 0,0 z m 30.8152,0 c 3.4934,0 6.3418,-2.849 6.3418,-6.342 0,-3.492 -2.8484,-6.341 -6.3418,-6.341 -3.4926,0 -6.3418,2.849 -6.3418,6.341 0,3.493 2.8492,6.342 6.3418,6.342 l 0,0" /><path
       inkscape:connector-curvature="0"
       id="path396"
       style="fill:#488fb1;fill-opacity:1;fill-rule:evenodd;stroke:none"
       d="m 433.205,781.838 c 0,2.041 1.664,3.705 3.704,3.705 2.04,0 3.704,-1.664 3.704,-3.705 0,-2.041 -1.664,-3.705 -3.704,-3.705 -2.04,0 -3.704,1.664 -3.704,3.705 l 0,0" /><path
       inkscape:connector-curvature="0"
       id="path398"
       style="fill:#2c6b98;fill-opacity:1;fill-rule:evenodd;stroke:none"
       d="m 434.641,781.838 c 0,1.25 1.019,2.269 2.268,2.269 1.249,0 2.269,-1.019 2.269,-2.269 0,-1.25 -1.02,-2.268 -2.269,-2.268 -1.249,0 -2.268,1.018 -2.268,2.268 l 0,0" /><path
       inkscape:connector-curvature="0"
       id="path400"
       style="fill:#59a9cc;fill-opacity:1;fill-rule:evenodd;stroke:none"
       d="m 430.613,809.558 c 0,3.493 2.848,6.342 6.342,6.342 3.492,0 6.34,-2.849 6.34,-6.342 0.002,-3.493 -2.848,-6.341 -6.34,-6.341 -3.494,0 -6.342,2.848 -6.342,6.341 l 0,0 z m 12.375,63.579 -12.068,0 c -0.199,-0.614 -0.307,-1.268 -0.307,-1.948 0,-3.492 2.848,-6.341 6.342,-6.341 3.492,0 6.34,2.849 6.342,6.341 0,0.679 -0.109,1.333 -0.309,1.948 l 0,0 z m -12.375,-32.764 c 0,3.494 2.848,6.342 6.342,6.343 3.492,-10e-4 6.342,-2.849 6.34,-6.343 0.002,-3.491 -2.848,-6.341 -6.341,-6.341 -3.493,0 -6.341,2.849 -6.341,6.341 l 0,0" /><path
       inkscape:connector-curvature="0"
       id="path402"
       style="fill:#66cbc4;fill-opacity:1;fill-rule:evenodd;stroke:none"
       d="m 439.264,670.493 31.666,0 0,-14.655 -31.666,0 0,14.655" /><path
       inkscape:connector-curvature="0"
       id="path404"
       style="fill:#ee2830;fill-opacity:1;fill-rule:evenodd;stroke:none"
       d="m 402.887,655.838 10e-4,14.655 31.666,0 0,-14.655 -31.667,0 0,0" /><path
       inkscape:connector-curvature="0"
       id="path406"
       style="fill:#a2bcc6;fill-opacity:1;fill-rule:evenodd;stroke:none"
       d="m 436.909,750.214 c 15.495,0 28.134,-12.638 28.134,-28.134 0,-15.496 -12.639,-28.135 -28.134,-28.135 -15.496,0 -28.135,12.639 -28.135,28.135 0,15.496 12.639,28.134 28.135,28.134 l 0,0" /><path
       inkscape:connector-curvature="0"
       id="path408"
       style="fill:#ffffff;fill-opacity:1;fill-rule:evenodd;stroke:none"
       d="m 436.91,722.822 c -2.451,0 -4.334,1.835 -5.534,3.797 -1.667,2.726 -2.362,6.365 -1.599,9.321 0.761,2.957 2.978,5.231 7.133,5.231 4.151,0 6.367,-2.275 7.131,-5.232 0.762,-2.957 0.068,-6.595 -1.598,-9.32 -1.322,-2.162 -3.222,-3.797 -5.533,-3.797 l 0,0 z m -16.978,-7.501 c 0,2.388 1.062,4.189 3.228,4.967 l 8.051,2.385 5.698,-9.607 5.698,9.607 8.049,-2.385 c 2.168,-0.778 3.229,-2.579 3.229,-4.967 l 0,-8.203 -33.953,0 0,8.203" /><path
       inkscape:connector-curvature="0"
       id="path410"
       style="fill:#66cbc4;fill-opacity:1;fill-rule:evenodd;stroke:none"
       d="m 438.584,401.305 31.666,-0.001 0,-14.654 -31.666,0 0,14.655" /><path
       inkscape:connector-curvature="0"
       id="path412"
       style="fill:#ee2830;fill-opacity:1;fill-rule:evenodd;stroke:none"
       d="m 402.207,386.65 0,14.655 31.666,0 0,-14.655 -31.666,0 0,0" /><path
       inkscape:connector-curvature="0"
       id="path414"
       style="fill:#a2bcc6;fill-opacity:1;fill-rule:evenodd;stroke:none"
       d="m 436.228,481.026 c 15.497,0 28.135,-12.639 28.135,-28.135 0,-15.496 -12.638,-28.134 -28.135,-28.134 -15.496,0 -28.135,12.638 -28.135,28.134 0,15.496 12.639,28.135 28.135,28.135 l 0,0" /><path
       inkscape:connector-curvature="0"
       id="path416"
       style="fill:#ffffff;fill-opacity:1;fill-rule:evenodd;stroke:none"
       d="m 436.229,453.633 c -2.451,0 -4.334,1.835 -5.534,3.797 -1.667,2.726 -2.361,6.365 -1.599,9.322 0.761,2.956 2.979,5.231 7.133,5.231 4.152,0 6.369,-2.276 7.13,-5.233 0.762,-2.956 0.071,-6.595 -1.597,-9.32 -1.321,-2.162 -3.221,-3.797 -5.533,-3.797 l 0,0 z m -16.978,-7.501 c 0,2.388 1.062,4.189 3.229,4.967 l 8.05,2.386 5.698,-9.608 5.698,9.608 8.051,-2.386 c 2.166,-0.778 3.228,-2.579 3.228,-4.967 l 0,-8.202 -33.954,0 0,8.202" /><path
       inkscape:connector-curvature="0"
       id="path426"
       style="fill:#66cbc4;fill-opacity:1;fill-rule:evenodd;stroke:none"
       d="m 217.928,472.546 0.001,31.666 14.655,0.001 0,-31.667 -14.656,0 0,0" /><path
       inkscape:connector-curvature="0"
       id="path428"
       style="fill:#ee2830;fill-opacity:1;fill-rule:evenodd;stroke:none"
       d="m 232.584,436.169 -14.656,0.001 0,31.666 14.656,0 0,-31.667" /><path
       inkscape:connector-curvature="0"
       id="path430"
       style="fill:#a2bcc6;fill-opacity:1;fill-rule:evenodd;stroke:none"
       d="m 138.207,470.191 c 0,15.496 12.639,28.134 28.135,28.134 15.496,0 28.135,-12.638 28.135,-28.134 0,-15.497 -12.639,-28.135 -28.135,-28.136 -15.496,10e-4 -28.135,12.639 -28.135,28.136 l 0,0" /><path
       inkscape:connector-curvature="0"
       id="path432"
       style="fill:#ffffff;fill-opacity:1;fill-rule:evenodd;stroke:none"
       d="m 165.6,470.191 c 0,-2.45 -1.836,-4.334 -3.797,-5.533 -2.727,-1.667 -6.365,-2.362 -9.322,-1.6 -2.956,0.762 -5.231,2.979 -5.231,7.133 0,4.152 2.275,6.369 5.232,7.131 2.957,0.762 6.596,0.071 9.321,-1.597 2.162,-1.322 3.797,-3.223 3.797,-5.534 l 0,0 z m 7.501,-16.977 c -2.388,0 -4.189,1.061 -4.968,3.228 l -2.385,8.05 9.607,5.699 -9.607,5.698 2.386,8.05 c 0.779,2.166 2.579,3.229 4.967,3.228 l 8.202,0 0,-33.953 -8.202,0 0,0" /><path
       inkscape:connector-curvature="0"
       id="path434"
       style="fill:#66cbc4;fill-opacity:1;fill-rule:evenodd;stroke:none"
       d="m 661.826,630.227 0,-31.666 -14.656,0 0,31.666 14.656,0 0,0" /><path
       inkscape:connector-curvature="0"
       id="path436"
       style="fill:#ee2830;fill-opacity:1;fill-rule:evenodd;stroke:none"
       d="m 647.17,666.604 14.656,0 0,-31.666 -14.656,0 0,31.666" /><path
       inkscape:connector-curvature="0"
       id="path438"
       style="fill:#a2bcc6;fill-opacity:1;fill-rule:evenodd;stroke:none"
       d="m 741.547,632.582 c 0,-15.496 -12.639,-28.134 -28.135,-28.134 -15.496,0 -28.135,12.638 -28.135,28.134 0,15.497 12.639,28.135 28.135,28.135 15.496,-10e-4 28.135,-12.638 28.135,-28.135 l 0,0" /><path
       inkscape:connector-curvature="0"
       id="path440"
       style="fill:#ffffff;fill-opacity:1;fill-rule:evenodd;stroke:none"
       d="m 714.154,632.582 c 0,2.451 1.836,4.334 3.797,5.533 2.727,1.667 6.365,2.362 9.322,1.6 2.956,-0.762 5.231,-2.979 5.231,-7.133 0,-4.152 -2.275,-6.369 -5.233,-7.131 -2.955,-0.762 -6.595,-0.07 -9.32,1.597 -2.162,1.322 -3.797,3.223 -3.797,5.534 l 0,0 z m -7.5,16.978 c 2.387,0 4.188,-1.062 4.967,-3.229 l 2.385,-8.05 -9.608,-5.699 9.608,-5.698 -2.385,-8.05 c -0.779,-2.166 -2.58,-3.229 -4.967,-3.229 l -8.203,10e-4 0,33.954 8.203,0 0,0" /></g></svg>