<?xml version="1.0" encoding="UTF-8" standalone="no"?>
<!-- Created with Inkscape (http://www.inkscape.org/) -->

<svg
   xmlns:dc="http://purl.org/dc/elements/1.1/"
   xmlns:cc="http://creativecommons.org/ns#"
   xmlns:rdf="http://www.w3.org/1999/02/22-rdf-syntax-ns#"
   xmlns:svg="http://www.w3.org/2000/svg"
   xmlns="http://www.w3.org/2000/svg"
   xmlns:sodipodi="http://sodipodi.sourceforge.net/DTD/sodipodi-0.dtd"
   xmlns:inkscape="http://www.inkscape.org/namespaces/inkscape"
   width="100"
   height="100"
   id="svg2"
   version="1.1"
   inkscape:version="0.48.4 r9939"
   sodipodi:docname="smartphone-models.svg">
  <defs
     id="defs4" />
  <sodipodi:namedview
     id="base"
     pagecolor="#ffffff"
     bordercolor="#666666"
     borderopacity="1.0"
     inkscape:pageopacity="0.0"
     inkscape:pageshadow="2"
     inkscape:zoom="5.6568542"
     inkscape:cx="8.7314591"
     inkscape:cy="37.803281"
     inkscape:document-units="px"
     inkscape:current-layer="layer1"
     showgrid="false"
     inkscape:window-width="1920"
     inkscape:window-height="1056"
     inkscape:window-x="1920"
     inkscape:window-y="24"
     inkscape:window-maximized="1" />
  <metadata
     id="metadata7">
    <rdf:RDF>
      <cc:Work
         rdf:about="">
        <dc:format>image/svg+xml</dc:format>
        <dc:type
           rdf:resource="http://purl.org/dc/dcmitype/StillImage" />
        <dc:title />
      </cc:Work>
    </rdf:RDF>
  </metadata>
  <g
     inkscape:label="Layer 1"
     inkscape:groupmode="layer"
     id="layer1"
     transform="translate(0,-952.36218)">
    <rect
       style="fill:#60c6e4;fill-opacity:1;stroke:none"
       id="rect3753"
       width="100"
       height="100"
       x="0"
       y="952.36218"
       ry="50" />
    <g
       transform="translate(0,950.43133)"
       style="font-size:29px;font-style:normal;font-weight:normal;line-height:125%;letter-spacing:0px;word-spacing:0px;fill:#ffffff;fill-opacity:1;stroke:none;font-family:Sans"
       id="flowRoot3003">
      <path
         d="m 21.56975,57.640702 0,3.509 -11.774,0 0,-3.509 4.118,0 0,-8.787 c -0.174006,0.232012 -0.444672,0.473678 -0.812,0.725 -0.367338,0.232011 -0.773338,0.454344 -1.218,0.667 -0.44467,0.212677 -0.90867,0.386677 -1.392,0.522 -0.483335,0.135343 -0.9086683,0.20301 -1.276,0.203 l 0,-3.625 c 0.3479984,1.4e-5 0.7733313,-0.10632 1.276,-0.319 0.502664,-0.231986 0.995663,-0.502652 1.479,-0.812 0.483329,-0.309318 0.908662,-0.608985 1.276,-0.899 0.367328,-0.309317 0.589661,-0.550984 0.667,-0.725 l 3.973,0 0,13.05 3.683,0"
         style="font-variant:normal;font-weight:bold;font-stretch:normal;text-align:center;text-anchor:middle;font-family:Raleway;-inkscape-font-specification:Raleway Bold;fill:#ffffff"
         id="path3000" />
      <path
         d="m 23.431187,61.149702 c -1e-6,-0.869999 0.06767,-1.652998 0.203,-2.349 0.135332,-0.71533 0.376999,-1.372663 0.725,-1.972 0.347998,-0.599329 0.811998,-1.159995 1.392,-1.682 0.579996,-0.521994 1.324329,-1.034326 2.233,-1.537 0.773327,-0.425325 1.45966,-0.792658 2.059001,-1.102 0.618658,-0.328658 1.130991,-0.628324 1.536999,-0.899 0.425324,-0.270657 0.744324,-0.541323 0.957001,-0.812 0.212656,-0.289989 0.318989,-0.618656 0.318999,-0.986 -10e-6,-0.579988 -0.23201,-1.072988 -0.696,-1.479 -0.464009,-0.42532 -1.131008,-0.637987 -2.000999,-0.638 -0.464008,1.3e-5 -0.889341,0.06768 -1.276001,0.203 -0.386672,0.116013 -0.754005,0.280346 -1.101999,0.493 -0.328672,0.212679 -0.638005,0.454346 -0.928001,0.725 -0.270671,0.251345 -0.522004,0.522011 -0.754,0.812 l -2.494,-2.871 c 0.251332,-0.270652 0.608999,-0.560652 1.073,-0.87 0.463998,-0.328652 1.00533,-0.628318 1.624001,-0.899 0.637995,-0.289984 1.333994,-0.521984 2.087999,-0.696 0.773327,-0.193317 1.594993,-0.289983 2.465,-0.29 0.985991,1.7e-5 1.865657,0.125683 2.639001,0.377 0.773321,0.232016 1.420987,0.570349 1.942999,1.015 0.54132,0.425348 0.94732,0.947348 1.218,1.566 0.289986,0.599346 0.434986,1.256679 0.435,1.972 -1.4e-5,0.676678 -0.125681,1.276011 -0.376999,1.798 -0.251348,0.522009 -0.570348,0.986009 -0.957,1.392 -0.38668,0.406008 -0.812013,0.763675 -1.276001,1.073 -0.444678,0.290007 -0.879678,0.551007 -1.305,0.783 -0.34801,0.19334 -0.72501,0.406006 -1.131,0.638 -0.386676,0.232006 -0.773342,0.493006 -1.16,0.783 -0.386674,0.270672 -0.744341,0.570338 -1.073,0.899 -0.30934,0.328671 -0.551007,0.67667 -0.725,1.044 l 8.323001,0 0,3.509 -13.978001,0"
         style="font-variant:normal;font-weight:bold;font-stretch:normal;text-align:center;text-anchor:middle;font-family:Raleway;-inkscape-font-specification:Raleway Bold;fill:#ffffff"
         id="path3002" />
      <path
         d="m 55.138609,52.652702 c -1.6e-5,1.276007 -0.193349,2.455339 -0.58,3.538 -0.367348,1.063337 -0.889348,1.991336 -1.566,2.784 -0.657347,0.773335 -1.450012,1.382334 -2.378,1.827 -0.908677,0.425333 -1.894676,0.638 -2.958,0.638 -1.082674,0 -2.088006,-0.212667 -3.016,-0.638 -0.908671,-0.444666 -1.701337,-1.053665 -2.378,-1.827 -0.657336,-0.792664 -1.179335,-1.720663 -1.566,-2.784 -0.367335,-1.082661 -0.551001,-2.261993 -0.551,-3.538 -10e-7,-1.27599 0.183665,-2.445656 0.551,-3.509 0.386665,-1.082654 0.908664,-2.010653 1.566,-2.784 0.676663,-0.792651 1.469329,-1.411317 2.378,-1.856 0.927994,-0.44465 1.933326,-0.666983 3.016,-0.667 1.063324,1.7e-5 2.049323,0.22235 2.958,0.667 0.927988,0.444683 1.720653,1.063349 2.378,1.856 0.676652,0.773347 1.198652,1.701346 1.566,2.784 0.386651,1.063344 0.579984,2.23301 0.58,3.509 m -3.915,0 c -1.2e-5,-0.773324 -0.08701,-1.47899 -0.261,-2.117 -0.174012,-0.657322 -0.425345,-1.217988 -0.754,-1.682 -0.309344,-0.463987 -0.686344,-0.821654 -1.131,-1.073 -0.425343,-0.25132 -0.899009,-0.376986 -1.421,-0.377 -0.541341,1.4e-5 -1.034341,0.12568 -1.479,0.377 -0.444673,0.251346 -0.83134,0.609013 -1.16,1.073 -0.309339,0.464012 -0.551005,1.024678 -0.725,1.682 -0.174005,0.63801 -0.261005,1.343676 -0.261,2.117 -5e-6,0.773341 0.08699,1.479007 0.261,2.117 0.173995,0.638006 0.415661,1.189005 0.725,1.653 0.32866,0.464004 0.715327,0.82167 1.16,1.073 0.444659,0.251337 0.937659,0.377003 1.479,0.377 0.521991,3e-6 0.995657,-0.125663 1.421,-0.377 0.444656,-0.25133 0.821656,-0.608996 1.131,-1.073 0.328655,-0.463995 0.579988,-1.014994 0.754,-1.653 0.173988,-0.637993 0.260988,-1.343659 0.261,-2.117"
         style="font-variant:normal;font-weight:bold;font-stretch:normal;text-align:center;text-anchor:middle;font-family:Raleway;-inkscape-font-specification:Raleway Bold;fill:#ffffff"
         id="path3004" />
      <path
         d="m 72.980406,52.652702 c -1.6e-5,1.276007 -0.193349,2.455339 -0.58,3.538 -0.367349,1.063337 -0.889348,1.991336 -1.566,2.784 -0.657347,0.773335 -1.450013,1.382334 -2.378,1.827 -0.908677,0.425333 -1.894676,0.638 -2.958,0.638 -1.082674,0 -2.088007,-0.212667 -3.016,-0.638 -0.908671,-0.444666 -1.701337,-1.053665 -2.378,-1.827 -0.657336,-0.792664 -1.179335,-1.720663 -1.566,-2.784 -0.367335,-1.082661 -0.551001,-2.261993 -0.551,-3.538 -10e-7,-1.27599 0.183665,-2.445656 0.551,-3.509 0.386665,-1.082654 0.908664,-2.010653 1.566,-2.784 0.676663,-0.792651 1.469329,-1.411317 2.378,-1.856 0.927993,-0.44465 1.933326,-0.666983 3.016,-0.667 1.063324,1.7e-5 2.049323,0.22235 2.958,0.667 0.927987,0.444683 1.720653,1.063349 2.378,1.856 0.676652,0.773347 1.198651,1.701346 1.566,2.784 0.386651,1.063344 0.579984,2.23301 0.58,3.509 m -3.915,0 c -1.2e-5,-0.773324 -0.08701,-1.47899 -0.261,-2.117 -0.174012,-0.657322 -0.425345,-1.217988 -0.754,-1.682 -0.309344,-0.463987 -0.686344,-0.821654 -1.131,-1.073 -0.425343,-0.25132 -0.899009,-0.376986 -1.421,-0.377 -0.541341,1.4e-5 -1.034341,0.12568 -1.479,0.377 -0.444673,0.251346 -0.83134,0.609013 -1.16,1.073 -0.309339,0.464012 -0.551005,1.024678 -0.725,1.682 -0.174005,0.63801 -0.261005,1.343676 -0.261,2.117 -5e-6,0.773341 0.08699,1.479007 0.261,2.117 0.173995,0.638006 0.415661,1.189005 0.725,1.653 0.32866,0.464004 0.715327,0.82167 1.16,1.073 0.444659,0.251337 0.937659,0.377003 1.479,0.377 0.521991,3e-6 0.995657,-0.125663 1.421,-0.377 0.444656,-0.25133 0.821656,-0.608996 1.131,-1.073 0.328655,-0.463995 0.579988,-1.014994 0.754,-1.653 0.173988,-0.637993 0.260988,-1.343659 0.261,-2.117"
         style="font-variant:normal;font-weight:bold;font-stretch:normal;text-align:center;text-anchor:middle;font-family:Raleway;-inkscape-font-specification:Raleway Bold;fill:#ffffff"
         id="path3006" />
      <path
         d="m 90.822203,52.652702 c -1.6e-5,1.276007 -0.193349,2.455339 -0.58,3.538 -0.367349,1.063337 -0.889348,1.991336 -1.566,2.784 -0.657347,0.773335 -1.450013,1.382334 -2.378,1.827 -0.908678,0.425333 -1.894677,0.638 -2.958,0.638 -1.082674,0 -2.088007,-0.212667 -3.016,-0.638 -0.908672,-0.444666 -1.701337,-1.053665 -2.378,-1.827 -0.657336,-0.792664 -1.179336,-1.720663 -1.566,-2.784 -0.367335,-1.082661 -0.551001,-2.261993 -0.551,-3.538 -1e-6,-1.27599 0.183665,-2.445656 0.551,-3.509 0.386664,-1.082654 0.908664,-2.010653 1.566,-2.784 0.676663,-0.792651 1.469328,-1.411317 2.378,-1.856 0.927993,-0.44465 1.933326,-0.666983 3.016,-0.667 1.063323,1.7e-5 2.049322,0.22235 2.958,0.667 0.927987,0.444683 1.720653,1.063349 2.378,1.856 0.676652,0.773347 1.198651,1.701346 1.566,2.784 0.386651,1.063344 0.579984,2.23301 0.58,3.509 m -3.915,0 c -1.2e-5,-0.773324 -0.08701,-1.47899 -0.261,-2.117 -0.174012,-0.657322 -0.425345,-1.217988 -0.754,-1.682 -0.309344,-0.463987 -0.686344,-0.821654 -1.131,-1.073 -0.425343,-0.25132 -0.899009,-0.376986 -1.421,-0.377 -0.541342,1.4e-5 -1.034341,0.12568 -1.479,0.377 -0.444674,0.251346 -0.83134,0.609013 -1.16,1.073 -0.309339,0.464012 -0.551006,1.024678 -0.725,1.682 -0.174005,0.63801 -0.261005,1.343676 -0.261,2.117 -5e-6,0.773341 0.087,1.479007 0.261,2.117 0.173994,0.638006 0.415661,1.189005 0.725,1.653 0.32866,0.464004 0.715326,0.82167 1.16,1.073 0.444659,0.251337 0.937658,0.377003 1.479,0.377 0.521991,3e-6 0.995657,-0.125663 1.421,-0.377 0.444656,-0.25133 0.821656,-0.608996 1.131,-1.073 0.328655,-0.463995 0.579988,-1.014994 0.754,-1.653 0.173988,-0.637993 0.260988,-1.343659 0.261,-2.117"
         style="font-variant:normal;font-weight:bold;font-stretch:normal;text-align:center;text-anchor:middle;font-family:Raleway;-inkscape-font-specification:Raleway Bold;fill:#ffffff"
         id="path3008" />
    </g>
  </g>
</svg>
