<?xml version="1.0" encoding="UTF-8" standalone="no"?>
<!-- Created with Inkscape (http://www.inkscape.org/) -->

<svg
   xmlns:dc="http://purl.org/dc/elements/1.1/"
   xmlns:cc="http://creativecommons.org/ns#"
   xmlns:rdf="http://www.w3.org/1999/02/22-rdf-syntax-ns#"
   xmlns:svg="http://www.w3.org/2000/svg"
   xmlns="http://www.w3.org/2000/svg"
   xmlns:sodipodi="http://sodipodi.sourceforge.net/DTD/sodipodi-0.dtd"
   xmlns:inkscape="http://www.inkscape.org/namespaces/inkscape"
   width="146.78625"
   height="163.75772"
   id="svg10370"
   version="1.1"
   inkscape:version="0.48.4 r9939"
   sodipodi:docname="New document 17">
  <defs
     id="defs10372" />
  <sodipodi:namedview
     id="base"
     pagecolor="#ffffff"
     bordercolor="#666666"
     borderopacity="1.0"
     inkscape:pageopacity="0.0"
     inkscape:pageshadow="2"
     inkscape:zoom="0.49497475"
     inkscape:cx="248.9223"
     inkscape:cy="235.26012"
     inkscape:document-units="px"
     inkscape:current-layer="layer1"
     showgrid="false"
     fit-margin-top="0"
     fit-margin-left="0"
     fit-margin-right="0"
     fit-margin-bottom="0"
     inkscape:window-width="470"
     inkscape:window-height="372"
     inkscape:window-x="2577"
     inkscape:window-y="270"
     inkscape:window-maximized="0" />
  <metadata
     id="metadata10375">
    <rdf:RDF>
      <cc:Work
         rdf:about="">
        <dc:format>image/svg+xml</dc:format>
        <dc:type
           rdf:resource="http://purl.org/dc/dcmitype/StillImage" />
        <dc:title></dc:title>
      </cc:Work>
    </rdf:RDF>
  </metadata>
  <g
     inkscape:label="Layer 1"
     inkscape:groupmode="layer"
     id="layer1"
     transform="translate(-91.301564,-318.99397)">
    <g
       transform="translate(23.968194,-207.67976)"
       id="g10505">
      <g
         transform="matrix(1.25,0,0,-1.25,139.6765,526.67983)"
         id="g4583">
        <path
           id="path4585"
           style="fill:#802d04;fill-opacity:1;fill-rule:evenodd;stroke:none"
           d="m 0,0 c 13.188,-0.225 22.783,-3.138 31.102,-17.406 6.412,-11 11.628,-42.034 0.132,-65.623 0.079,5.401 -2.378,10.47 -6.541,13.105 1.979,-5.945 9.754,-14.973 1.933,-26.676 -7.681,-11.491 -39.529,-11.392 -51.7,5.45 -4.254,5.884 -3.802,13.464 1.092,20.768 -6.171,-2.739 -5.804,-13.895 -6.933,-11.512 -3.218,4.485 -13.179,30.356 1.465,62.137 C -23.92,-7.755 -13.586,0.231 0,0"
           inkscape:connector-curvature="0" />
      </g>
      <g
         transform="matrix(1.25,0,0,-1.25,156.4795,595.4762)"
         id="g4587">
        <path
           id="path4589"
           style="fill:#ffdecc;fill-opacity:1;fill-rule:evenodd;stroke:none"
           d="m 0,0 0,-28.767 c -6.931,-8.488 -18.272,-8.194 -25.202,0 l 0,28.767 C -25.202,15.533 0,15.533 0,0"
           inkscape:connector-curvature="0" />
      </g>
      <g
         transform="matrix(1.25,0,0,-1.25,126.05337,623.8247)"
         id="g4591">
        <path
           id="path4593"
           style="fill:#497194;fill-opacity:1;fill-rule:evenodd;stroke:none"
           d="m 0,0 c -25.951,-11.377 -33.736,-17.443 -36.813,-20.166 -4.743,-4.196 -7.366,-19.838 -10.163,-33.119 l 58.715,0 58.714,0 c -2.797,13.281 -5.42,28.923 -10.162,33.119 -3.076,2.723 -10.576,8.633 -36.528,20.01 L 0,0 z"
           inkscape:connector-curvature="0" />
      </g>
      <g
         transform="matrix(1.25,0,0,-1.25,121.68575,621.4052)"
         id="g4595">
        <path
           id="path4597"
           style="fill:#ffdecc;fill-opacity:1;fill-rule:evenodd;stroke:none"
           d="m 0,0 -1.306,-55.221 33.025,0 L 30.412,0 0,0 z"
           inkscape:connector-curvature="0" />
      </g>
      <g
         transform="matrix(1.25,0,0,-1.25,115.97525,640.92308)"
         id="g4599">
        <path
           id="path4601"
           style="fill:#ffffff;fill-opacity:1;fill-rule:evenodd;stroke:none"
           d="M 0,0 C 6.531,-4.856 24.619,-8.038 40.865,-1.172 29.639,-16.008 33.496,-39.606 33.496,-39.606 l -22.945,0 c 0,0 -2.344,20.681 -10.551,39.606"
           inkscape:connector-curvature="0" />
      </g>
      <g
         transform="matrix(1.25,0,0,-1.25,156.47825,595.4762)"
         id="g4603">
        <path
           id="path4605"
           style="fill:#f7c5aa;fill-opacity:1;fill-rule:evenodd;stroke:none"
           d="m 0,0 0,-19.26 c -4.768,-3.475 -9.364,-5.423 -12.601,-5.423 -3.236,0 -7.833,1.948 -12.6,5.423 l 0,19.26 C -25.201,15.533 0,15.533 0,0"
           inkscape:connector-curvature="0" />
      </g>
      <g
         transform="matrix(1.25,0,0,-1.25,124.97675,613.0947)"
         id="g4607">
        <path
           id="path4609"
           style="fill:#86bceb;fill-opacity:1;fill-rule:evenodd;stroke:none"
           d="m 0,0 0,-14.672 5.474,-47.197 -9.412,0 -10.355,21.021 9.884,6.589 -12.079,5.648 c 0,0 2.535,19.81 16.488,28.611"
           inkscape:connector-curvature="0" />
      </g>
      <g
         transform="matrix(1.25,0,0,-1.25,156.47825,613.0947)"
         id="g4611">
        <path
           id="path4613"
           style="fill:#86bceb;fill-opacity:1;fill-rule:evenodd;stroke:none"
           d="m 0,0 0.001,-14.672 -5.528,-47.197 9.412,0 10.353,21.021 -9.883,6.589 12.08,5.648 C 16.435,-28.611 11.93,-7.788 0,0"
           inkscape:connector-curvature="0" />
      </g>
      <g
         transform="matrix(1.25,0,0,-1.25,140.7275,530.9182)"
         id="g4615">
        <path
           id="path4617"
           style="fill:#ffdecc;fill-opacity:1;fill-rule:evenodd;stroke:none"
           d="m 0,0 c -42.292,0 -27.083,-51.102 -24.32,-55.17 3.046,-4.485 17.487,-16.376 24.32,-16.376 6.833,0 21.273,11.891 24.319,16.376 C 27.083,-51.102 42.292,0 0,0"
           inkscape:connector-curvature="0" />
      </g>
      <g
         transform="matrix(1.25,0,0,-1.25,123.778,594.29095)"
         id="g4619">
        <path
           id="path4621"
           style="fill:#f7c5aa;fill-opacity:1;fill-rule:evenodd;stroke:none"
           d="M 0,0 C 9.258,-3.58 19.715,-3.23 27.119,0 24.159,-7.662 4.219,-7.725 0,0"
           inkscape:connector-curvature="0" />
      </g>
      <g
         transform="matrix(1.25,0,0,-1.25,127.207,592.41107)"
         id="g4623">
        <path
           id="path4625"
           style="fill:#f7c5aa;fill-opacity:1;fill-rule:evenodd;stroke:none"
           d="M 0,0 C -1.705,-1.418 -2.773,-3.497 -2.947,-5.294 -4.118,-3.32 -1.963,0.616 0,0"
           inkscape:connector-curvature="0" />
      </g>
      <g
         transform="matrix(1.25,0,0,-1.25,154.01113,592.41107)"
         id="g4627">
        <path
           id="path4629"
           style="fill:#f7c5aa;fill-opacity:1;fill-rule:evenodd;stroke:none"
           d="M 0,0 C 1.704,-1.418 2.772,-3.497 2.947,-5.294 4.118,-3.32 1.963,0.616 0,0"
           inkscape:connector-curvature="0" />
      </g>
      <g
         transform="matrix(1.25,0,0,-1.25,100.3625,568.80145)"
         id="g4631">
        <path
           id="path4633"
           style="fill:#ffdecc;fill-opacity:1;fill-rule:evenodd;stroke:none"
           d="m 0,0 c 2.22,0.73 5.043,-1.788 6.308,-5.626 1.264,-3.839 0.489,-7.542 -1.731,-8.273 -2.22,-0.731 -5.043,1.788 -6.307,5.626 C -2.994,-4.436 -2.219,-0.731 0,0"
           inkscape:connector-curvature="0" />
      </g>
      <g
         transform="matrix(1.25,0,0,-1.25,181.47212,568.80145)"
         id="g4635">
        <path
           id="path4637"
           style="fill:#ffdecc;fill-opacity:1;fill-rule:evenodd;stroke:none"
           d="m 0,0 c -2.22,0.73 -5.044,-1.788 -6.308,-5.626 -1.263,-3.839 -0.489,-7.542 1.731,-8.273 2.22,-0.731 5.043,1.788 6.307,5.626 C 2.994,-4.436 2.22,-0.731 0,0"
           inkscape:connector-curvature="0" />
      </g>
      <g
         transform="matrix(1.25,0,0,-1.25,175.17325,585.45308)"
         id="g4639">
        <path
           id="path4641"
           style="fill:#802d04;fill-opacity:1;fill-rule:evenodd;stroke:none"
           d="M 0,0 C 0,0 -2.76,15.065 -9.122,23.705 -13.731,13.566 -18.283,8.602 -40.179,3.443 c 6.628,5.561 9.712,13.902 10.028,18.417 -14.176,-3.907 -22.932,-14.958 -25.12,-22.438 -6.642,11.557 -0.565,28.978 4.014,35.564 8.838,12.711 30.487,15.798 43.417,4.24 C 1.132,31.205 4.827,32.988 0,0"
           inkscape:connector-curvature="0" />
      </g>
      <g
         transform="matrix(1.25,0,0,-1.25,97.243625,690.43108)"
         id="g4643">
        <path
           id="path4645"
           style="fill:#264057;fill-opacity:1;fill-rule:evenodd;stroke:none"
           d="M 0,0 2.011,0 C 1.921,8.941 1.921,15.386 1.921,15.386 1.921,15.386 1.03,8.688 0,0"
           inkscape:connector-curvature="0" />
      </g>
      <g
         transform="matrix(1.25,0,0,-1.25,184.21138,690.43108)"
         id="g4647">
        <path
           id="path4649"
           style="fill:#264057;fill-opacity:1;fill-rule:evenodd;stroke:none"
           d="m 0,0 -2.012,0 c 0.09,8.941 0.09,15.386 0.09,15.386 0,0 0.891,-6.698 1.922,-15.386"
           inkscape:connector-curvature="0" />
      </g>
    </g>
  </g>
</svg>
