<?xml version="1.0" encoding="UTF-8" standalone="no"?>
<!-- Created with Inkscape (http://www.inkscape.org/) -->

<svg
   xmlns:dc="http://purl.org/dc/elements/1.1/"
   xmlns:cc="http://creativecommons.org/ns#"
   xmlns:rdf="http://www.w3.org/1999/02/22-rdf-syntax-ns#"
   xmlns:svg="http://www.w3.org/2000/svg"
   xmlns="http://www.w3.org/2000/svg"
   xmlns:sodipodi="http://sodipodi.sourceforge.net/DTD/sodipodi-0.dtd"
   xmlns:inkscape="http://www.inkscape.org/namespaces/inkscape"
   width="146.78625"
   height="163.75772"
   id="svg10370"
   version="1.1"
   inkscape:version="0.48.4 r9939"
   sodipodi:docname="productowner.svg">
  <defs
     id="defs10372" />
  <sodipodi:namedview
     id="base"
     pagecolor="#ffffff"
     bordercolor="#666666"
     borderopacity="1.0"
     inkscape:pageopacity="0.0"
     inkscape:pageshadow="2"
     inkscape:zoom="2.8"
     inkscape:cx="122.01338"
     inkscape:cy="126.62994"
     inkscape:document-units="px"
     inkscape:current-layer="layer1"
     showgrid="false"
     fit-margin-top="0"
     fit-margin-left="0"
     fit-margin-right="0"
     fit-margin-bottom="0"
     inkscape:window-width="1920"
     inkscape:window-height="1056"
     inkscape:window-x="1920"
     inkscape:window-y="24"
     inkscape:window-maximized="1" />
  <metadata
     id="metadata10375">
    <rdf:RDF>
      <cc:Work
         rdf:about="">
        <dc:format>image/svg+xml</dc:format>
        <dc:type
           rdf:resource="http://purl.org/dc/dcmitype/StillImage" />
        <dc:title />
      </cc:Work>
    </rdf:RDF>
  </metadata>
  <g
     inkscape:label="Layer 1"
     inkscape:groupmode="layer"
     id="layer1"
     transform="translate(-91.301564,-318.99397)">
    <g
       transform="matrix(1.25,0,0,-1.25,-689.15556,410.16607)"
       id="g5056">
      <path
         d="m 671.3412,-5.16118 c -25.952,-11.377 -33.737,-17.443 -36.814,-20.166 -4.742,-4.197 -7.365,-19.838 -10.162,-33.119 l 117.43,0 c -2.797,13.281 -5.421,28.922 -10.163,33.119 -3.077,2.723 -10.577,8.633 -36.529,20.01 l -23.762,0.156"
         style="fill:#ffdecc;fill-opacity:1;fill-rule:evenodd;stroke:none"
         id="path300"
         inkscape:connector-curvature="0" />
      <path
         d="m 671.3402,-5.16118 c -25.951,-11.377 -33.736,-17.443 -36.813,-20.166 -4.742,-4.197 -7.365,-19.838 -10.162,-33.119 l 117.429,0 c -2.797,13.281 -5.42,28.922 -10.163,33.119 -3.076,2.723 -10.576,8.633 -36.528,20.01 l -23.763,0.156"
         style="fill:#497194;fill-opacity:1;fill-rule:evenodd;stroke:none"
         id="path302"
         inkscape:connector-curvature="0" />
      <path
         d="m 695.6802,17.51682 0,-28.766 c -6.93,-8.488 -18.271,-8.195 -25.201,0 l 0,28.766 c 0,15.534 25.201,15.534 25.201,0"
         style="fill:#ffdecc;fill-opacity:1;fill-rule:evenodd;stroke:none"
         id="path304"
         inkscape:connector-curvature="0" />
      <path
         d="m 695.6802,17.51682 0,-19.259 c -4.768,-3.476 -9.364,-5.423 -12.6,-5.423 -3.237,0 -7.833,1.947 -12.601,5.423 l 0,19.259 c 0,15.534 25.201,15.534 25.201,0"
         style="fill:#f7c5aa;fill-opacity:1;fill-rule:evenodd;stroke:none"
         id="path306"
         inkscape:connector-curvature="0" />
      <path
         d="m 683.0802,69.16382 c -42.292,0 -27.083,-51.102 -24.321,-55.169 3.046,-4.486 17.488,-16.376 24.321,-16.376 6.833,0 21.273,11.89 24.319,16.376 2.764,4.067 17.973,55.169 -24.319,55.169"
         style="fill:#ffdecc;fill-opacity:1;fill-rule:evenodd;stroke:none"
         id="path308"
         inkscape:connector-curvature="0" />
      <path
         d="m 694.3432,13.16782 c -9.915,-0.456 -19.719,3.195 -25.715,8.609 0.374,-8.206 19.263,-14.595 25.715,-8.609"
         style="fill:#f7c5aa;fill-opacity:1;fill-rule:evenodd;stroke:none"
         id="path310"
         inkscape:connector-curvature="0" />
      <path
         d="m 671.2342,22.48982 c -2.067,-0.804 -3.739,-2.436 -4.476,-4.084 -0.483,2.243 2.811,5.291 4.476,4.084"
         style="fill:#f7c5aa;fill-opacity:1;fill-rule:evenodd;stroke:none"
         id="path312"
         inkscape:connector-curvature="0" />
      <path
         d="m 650.5812,35.60182 c 2.218,0.732 5.043,-1.787 6.306,-5.626 1.264,-3.837 0.49,-7.542 -1.73,-8.273 -2.219,-0.73 -5.043,1.788 -6.307,5.627 -1.264,3.838 -0.489,7.542 1.731,8.272"
         style="fill:#ffdecc;fill-opacity:1;fill-rule:evenodd;stroke:none"
         id="path314"
         inkscape:connector-curvature="0" />
      <path
         d="m 715.4672,35.60182 c -2.219,0.732 -5.044,-1.788 -6.307,-5.626 -1.264,-3.837 -0.49,-7.542 1.73,-8.272 2.22,-0.731 5.044,1.787 6.308,5.626 1.264,3.838 0.489,7.542 -1.731,8.272"
         style="fill:#ffdecc;fill-opacity:1;fill-rule:evenodd;stroke:none"
         id="path316"
         inkscape:connector-curvature="0" />
      <path
         d="m 663.7492,52.06182 c -2.454,-13.402 -8.597,-12.151 -8.11,-27.879 -1.973,12.258 -4.921,28.571 3.413,39.316 6.66,8.586 28.715,14.727 42.997,4.426 15.775,-3.37 10.842,-35.487 8.727,-41.557 -1.477,9.832 -4.784,13.928 -8.96,25.488 -5.665,-4.062 -30.806,-4.968 -38.067,0.206"
         style="fill:#ffc65d;fill-opacity:1;fill-rule:evenodd;stroke:none"
         id="path318"
         inkscape:connector-curvature="0" />
      <path
         d="m 683.1452,-17.50518 c 0,0 -17.585,-4.198 -17.585,-5.263 0,-1.064 6.692,-35.678 6.692,-35.678 l 23.874,0 2.736,35.526 -15.717,5.415"
         style="fill:#e6e6e6;fill-opacity:1;fill-rule:evenodd;stroke:none"
         id="path320"
         inkscape:connector-curvature="0" />
      <path
         d="m 670.4792,-5.54018 0,-5.709 5.474,-47.197 -9.412,0 -10.355,21.021 9.884,6.589 -12.079,5.647 11.107,17.236 5.381,2.413"
         style="fill:#86bceb;fill-opacity:1;fill-rule:evenodd;stroke:none"
         id="path322"
         inkscape:connector-curvature="0" />
      <path
         d="m 695.6802,-5.57018 10e-4,-5.679 -5.528,-47.197 9.412,0 10.354,21.021 -9.883,6.589 12.079,5.647 -9.872,16.704 -6.563,2.915"
         style="fill:#86bceb;fill-opacity:1;fill-rule:evenodd;stroke:none"
         id="path324"
         inkscape:connector-curvature="0" />
      <path
         d="m 670.4792,-1.74218 -1.101,-4.285 3.083,-22.314 10.684,10.835 -12.666,15.764"
         style="fill:#ffffff;fill-opacity:1;fill-rule:evenodd;stroke:none"
         id="path326"
         inkscape:connector-curvature="0" />
      <path
         d="m 677.6612,-23.34218 3.051,-4.727 c 1.578,0 3.157,0 4.734,0 l 3.053,4.727 -5.354,5.837 -5.484,-5.837"
         style="fill:#9d3421;fill-opacity:1;fill-rule:evenodd;stroke:none"
         id="path328"
         inkscape:connector-curvature="0" />
      <path
         d="m 680.7122,-28.06918 -4.344,-30.377 13.424,0 -4.345,30.377 -4.735,0"
         style="fill:#9d3421;fill-opacity:1;fill-rule:evenodd;stroke:none"
         id="path330"
         inkscape:connector-curvature="0" />
      <path
         d="m 695.6802,-1.74218 0.869,-4.215 -2.896,-22.607 -10.508,11.058 12.535,15.764"
         style="fill:#ffffff;fill-opacity:1;fill-rule:evenodd;stroke:none"
         id="path332"
         inkscape:connector-curvature="0" />
      <path
         d="m 648.2932,-58.44618 2.01,0 c -0.09,8.941 -0.09,15.385 -0.09,15.385 0,0 -0.89,-6.697 -1.92,-15.385"
         style="fill:#304d66;fill-opacity:1;fill-rule:evenodd;stroke:none"
         id="path334"
         inkscape:connector-curvature="0" />
      <path
         d="m 717.8672,-58.44618 -2.012,0 c 0.09,8.941 0.09,15.385 0.09,15.385 0,0 0.891,-6.697 1.922,-15.385"
         style="fill:#304d66;fill-opacity:1;fill-rule:evenodd;stroke:none"
         id="path336"
         inkscape:connector-curvature="0" />
    </g>
  </g>
</svg>
