<?xml version="1.0" encoding="UTF-8" standalone="no"?>
<!-- Created with Inkscape (http://www.inkscape.org/) -->

<svg
   xmlns:dc="http://purl.org/dc/elements/1.1/"
   xmlns:cc="http://creativecommons.org/ns#"
   xmlns:rdf="http://www.w3.org/1999/02/22-rdf-syntax-ns#"
   xmlns:svg="http://www.w3.org/2000/svg"
   xmlns="http://www.w3.org/2000/svg"
   xmlns:sodipodi="http://sodipodi.sourceforge.net/DTD/sodipodi-0.dtd"
   xmlns:inkscape="http://www.inkscape.org/namespaces/inkscape"
   width="100"
   height="100"
   id="svg2"
   version="1.1"
   inkscape:version="0.48.4 r9939"
   sodipodi:docname="screen-sizes.svg">
  <defs
     id="defs4" />
  <sodipodi:namedview
     id="base"
     pagecolor="#ffffff"
     bordercolor="#666666"
     borderopacity="1.0"
     inkscape:pageopacity="0.0"
     inkscape:pageshadow="2"
     inkscape:zoom="5.6568542"
     inkscape:cx="70.603303"
     inkscape:cy="37.803281"
     inkscape:document-units="px"
     inkscape:current-layer="layer1"
     showgrid="false"
     inkscape:window-width="1920"
     inkscape:window-height="1056"
     inkscape:window-x="1920"
     inkscape:window-y="24"
     inkscape:window-maximized="1" />
  <metadata
     id="metadata7">
    <rdf:RDF>
      <cc:Work
         rdf:about="">
        <dc:format>image/svg+xml</dc:format>
        <dc:type
           rdf:resource="http://purl.org/dc/dcmitype/StillImage" />
        <dc:title />
      </cc:Work>
    </rdf:RDF>
  </metadata>
  <g
     inkscape:label="Layer 1"
     inkscape:groupmode="layer"
     id="layer1"
     transform="translate(0,-952.36218)">
    <rect
       style="fill:#6ca5ff;fill-opacity:1;stroke:none"
       id="rect3753"
       width="100"
       height="100"
       x="0"
       y="952.36218"
       ry="50" />
    <g
       transform="translate(0,950.43133)"
       style="font-size:29px;font-style:normal;font-weight:normal;line-height:125%;letter-spacing:0px;word-spacing:0px;fill:#ffffff;fill-opacity:1;stroke:none;font-family:Sans"
       id="flowRoot3003">
      <path
         d="m 26.093297,61.149702 c -1e-6,-0.869999 0.06767,-1.652998 0.203,-2.349 0.135332,-0.71533 0.376998,-1.372663 0.725,-1.972 0.347997,-0.599329 0.811997,-1.159995 1.392,-1.682 0.579996,-0.521994 1.324328,-1.034326 2.233,-1.537 0.773327,-0.425325 1.459659,-0.792658 2.059,-1.102 0.618658,-0.328658 1.130991,-0.628324 1.537,-0.899 0.425323,-0.270657 0.744323,-0.541323 0.957,-0.812 0.212656,-0.289989 0.318989,-0.618656 0.319,-0.986 -1.1e-5,-0.579988 -0.232011,-1.072988 -0.696,-1.479 -0.46401,-0.42532 -1.131009,-0.637987 -2.001,-0.638 -0.464008,1.3e-5 -0.88934,0.06768 -1.276,0.203 -0.386673,0.116013 -0.754006,0.280346 -1.102,0.493 -0.328672,0.212679 -0.638005,0.454346 -0.928,0.725 -0.270671,0.251345 -0.522004,0.522011 -0.754,0.812 l -2.494,-2.871 c 0.251332,-0.270652 0.608998,-0.560652 1.073,-0.87 0.463997,-0.328652 1.00533,-0.628318 1.624,-0.899 0.637995,-0.289984 1.333994,-0.521984 2.088,-0.696 0.773326,-0.193317 1.594992,-0.289983 2.465,-0.29 0.98599,1.7e-5 1.865656,0.125683 2.639,0.377 0.773321,0.232016 1.420987,0.570349 1.943,1.015 0.541319,0.425348 0.947319,0.947348 1.218,1.566 0.289985,0.599346 0.434985,1.256679 0.435,1.972 -1.5e-5,0.676678 -0.125682,1.276011 -0.377,1.798 -0.251348,0.522009 -0.570347,0.986009 -0.957,1.392 -0.38668,0.406008 -0.812013,0.763675 -1.276,1.073 -0.444679,0.290007 -0.879678,0.551007 -1.305,0.783 -0.348011,0.19334 -0.72501,0.406006 -1.131,0.638 -0.386676,0.232006 -0.773342,0.493006 -1.16,0.783 -0.386675,0.270672 -0.744341,0.570338 -1.073,0.899 -0.309341,0.328671 -0.551007,0.67667 -0.725,1.044 l 8.323,0 0,3.509 -13.978,0"
         style="font-variant:normal;font-weight:bold;font-stretch:normal;text-align:center;text-anchor:middle;font-family:Raleway;-inkscape-font-specification:Raleway Bold;fill:#ffffff"
         id="path2988" />
      <path
         d="m 49.767719,51.898702 c 0.966657,9e-6 1.865656,0.164342 2.697,0.493 0.831321,0.309342 1.546654,0.754008 2.146,1.334 0.618653,0.580007 1.092319,1.276006 1.421,2.088 0.347985,0.812004 0.521985,1.711003 0.522,2.697 -1.5e-5,1.044001 -0.193349,1.991334 -0.58,2.842 -0.386681,0.850665 -0.918347,1.575665 -1.595,2.175 -0.676679,0.618664 -1.479012,1.09233 -2.407,1.421 -0.92801,0.347996 -1.933342,0.521996 -3.016,0.522 -1.508006,-4e-6 -2.861338,-0.319004 -4.06,-0.957 -1.179336,-0.638003 -2.078335,-1.508002 -2.697,-2.61 l 2.233,-2.32 c 0.560663,0.754001 1.237329,1.353333 2.03,1.798 0.811994,0.444666 1.652993,0.666999 2.523,0.667 1.043991,-10e-7 1.894657,-0.309334 2.552,-0.928 0.676656,-0.637999 1.014989,-1.478999 1.015,-2.523 -1.1e-5,-1.00533 -0.319011,-1.817329 -0.957,-2.436 -0.618677,-0.618661 -1.411342,-0.927994 -2.378,-0.928 -0.638007,6e-6 -1.23734,0.145006 -1.798,0.435 -0.541339,0.290005 -0.976339,0.686338 -1.305,1.189 l -3.393,0 c -2e-6,-0.058 0.03866,-0.270662 0.116,-0.638 0.07733,-0.386661 0.173998,-0.869994 0.29,-1.45 0.115998,-0.599326 0.241664,-1.256659 0.377,-1.972 0.135331,-0.734658 0.280331,-1.47899 0.435,-2.233 0.347997,-1.778654 0.734663,-3.769986 1.16,-5.974 l 10.15,0 0,3.538 -7.337,0 -0.812,4.611 c 0.231994,-0.251325 0.570327,-0.454325 1.015,-0.609 0.444659,-0.154658 0.995659,-0.231991 1.653,-0.232"
         style="font-variant:normal;font-weight:bold;font-stretch:normal;text-align:center;text-anchor:middle;font-family:Raleway;-inkscape-font-specification:Raleway Bold;fill:#ffffff"
         id="path2990" />
      <path
         d="m 73.886656,52.652702 c -1.6e-5,1.276007 -0.193349,2.455339 -0.58,3.538 -0.367349,1.063337 -0.889348,1.991336 -1.566,2.784 -0.657347,0.773335 -1.450013,1.382334 -2.378,1.827 -0.908677,0.425333 -1.894676,0.638 -2.958,0.638 -1.082674,0 -2.088007,-0.212667 -3.016,-0.638 -0.908671,-0.444666 -1.701337,-1.053665 -2.378,-1.827 -0.657336,-0.792664 -1.179335,-1.720663 -1.566,-2.784 -0.367335,-1.082661 -0.551001,-2.261993 -0.551,-3.538 -10e-7,-1.27599 0.183665,-2.445656 0.551,-3.509 0.386665,-1.082654 0.908664,-2.010653 1.566,-2.784 0.676663,-0.792651 1.469329,-1.411317 2.378,-1.856 0.927993,-0.44465 1.933326,-0.666983 3.016,-0.667 1.063324,1.7e-5 2.049323,0.22235 2.958,0.667 0.927987,0.444683 1.720653,1.063349 2.378,1.856 0.676652,0.773347 1.198651,1.701346 1.566,2.784 0.386651,1.063344 0.579984,2.23301 0.58,3.509 m -3.915,0 c -1.2e-5,-0.773324 -0.08701,-1.47899 -0.261,-2.117 -0.174012,-0.657322 -0.425345,-1.217988 -0.754,-1.682 -0.309344,-0.463987 -0.686344,-0.821654 -1.131,-1.073 -0.425343,-0.25132 -0.899009,-0.376986 -1.421,-0.377 -0.541341,1.4e-5 -1.034341,0.12568 -1.479,0.377 -0.444673,0.251346 -0.83134,0.609013 -1.16,1.073 -0.309339,0.464012 -0.551005,1.024678 -0.725,1.682 -0.174005,0.63801 -0.261005,1.343676 -0.261,2.117 -5e-6,0.773341 0.08699,1.479007 0.261,2.117 0.173995,0.638006 0.415661,1.189005 0.725,1.653 0.32866,0.464004 0.715327,0.82167 1.16,1.073 0.444659,0.251337 0.937659,0.377003 1.479,0.377 0.521991,3e-6 0.995657,-0.125663 1.421,-0.377 0.444656,-0.25133 0.821656,-0.608996 1.131,-1.073 0.328655,-0.463995 0.579988,-1.014994 0.754,-1.653 0.173988,-0.637993 0.260988,-1.343659 0.261,-2.117"
         style="font-variant:normal;font-weight:bold;font-stretch:normal;text-align:center;text-anchor:middle;font-family:Raleway;-inkscape-font-specification:Raleway Bold;fill:#ffffff"
         id="path2992" />
    </g>
  </g>
</svg>
